<svg width="328" height="167" viewBox="0 0 328 167" fill="none" xmlns="http://www.w3.org/2000/svg">
<g clip-path="url(#clip0_2_764)">
<path d="M42.8276 156.797C42.5469 156.81 42.269 156.736 42.0315 156.586C41.7941 156.436 41.6086 156.216 41.5001 155.957C41.3917 155.698 41.3656 155.412 41.4254 155.137C41.4852 154.863 41.6279 154.613 41.8343 154.422C41.8688 154.285 41.8936 154.187 41.9282 154.049C41.9158 154.019 41.9034 153.99 41.8909 153.96C41.608 153.292 41.1341 152.723 40.5287 152.323C39.9232 151.924 39.2131 151.712 38.4877 151.715C37.7623 151.718 37.0538 151.935 36.4513 152.338C35.8488 152.742 35.3792 153.315 35.1013 153.985C33.9909 156.658 32.5771 159.336 32.2289 162.163C32.0756 163.412 32.1403 164.679 32.4201 165.906C29.8119 160.219 28.4576 154.038 28.4489 147.782C28.4483 146.212 28.5356 144.644 28.7102 143.083C28.8546 141.804 29.0548 140.535 29.311 139.274C30.7089 132.433 33.7103 126.021 38.0687 120.565C40.1782 119.414 41.8841 117.645 42.9567 115.496C43.3452 114.723 43.6198 113.898 43.772 113.047C43.534 113.078 43.2922 113.098 43.0542 113.113C42.9801 113.117 42.9021 113.121 42.8279 113.125L42.8 113.126C42.5385 113.138 42.2791 113.074 42.0532 112.942C41.8272 112.81 41.6443 112.615 41.5265 112.381C41.4087 112.148 41.3609 111.885 41.389 111.625C41.417 111.365 41.5197 111.118 41.6847 110.915C41.7874 110.788 41.8902 110.662 41.9931 110.536C42.1492 110.341 42.3091 110.15 42.4651 109.955C42.4831 109.936 42.5001 109.917 42.5158 109.896C42.6953 109.674 42.8747 109.456 43.0542 109.233C42.7266 108.725 42.2861 108.3 41.7669 107.99C39.9685 106.937 37.4875 107.666 36.1884 109.292C34.8855 110.918 34.6397 113.199 35.0922 115.231C35.5372 116.959 36.2733 118.6 37.269 120.081C37.1715 120.206 37.07 120.327 36.9725 120.452C35.1897 122.743 33.6359 125.204 32.3333 127.798C32.6501 124.892 32.272 121.952 31.2302 119.22C30.1744 116.674 28.1953 114.529 26.4525 112.328C24.3591 109.684 20.0664 110.838 19.6976 114.19C19.6941 114.222 19.6906 114.255 19.6872 114.287C19.946 114.433 20.1994 114.588 20.4474 114.752C20.7588 114.96 21.0002 115.257 21.1398 115.604C21.2794 115.952 21.3107 116.333 21.2297 116.699C21.1486 117.065 20.959 117.397 20.6857 117.653C20.4123 117.909 20.068 118.077 19.6978 118.134L19.6599 118.139C19.7521 119.072 19.9151 119.996 20.1475 120.904C20.8209 123.439 22.0108 125.807 23.6427 127.86C25.2746 129.913 27.3132 131.607 29.6308 132.836C29.783 132.914 29.9312 132.992 30.0834 133.066C28.7747 136.773 27.9538 140.635 27.6413 144.553C27.4645 146.865 27.4749 149.188 27.6726 151.498L27.6609 151.416C27.1615 148.847 25.7905 146.529 23.7793 144.854C20.7923 142.401 16.5722 141.498 13.3497 139.526C13.0072 139.307 12.609 139.189 12.2021 139.188C11.7951 139.187 11.3963 139.303 11.0528 139.521C10.7092 139.739 10.4352 140.051 10.2631 140.419C10.0911 140.788 10.028 141.198 10.0815 141.601C10.0858 141.63 10.0902 141.659 10.0947 141.687C10.575 141.883 11.0428 142.108 11.4951 142.362C11.754 142.508 12.0074 142.663 12.2553 142.827C12.5668 143.035 12.8081 143.332 12.9477 143.679C13.0873 144.027 13.1186 144.408 13.0376 144.774C12.9566 145.14 12.767 145.472 12.4936 145.728C12.2203 145.984 11.8759 146.152 11.5057 146.209L11.4678 146.215C11.4405 146.218 11.4171 146.222 11.3898 146.226C12.2106 148.185 13.3626 149.988 14.7954 151.557C16.5653 153.455 18.7045 154.972 21.0818 156.015C23.4592 157.057 26.0245 157.604 28.6205 157.62H28.6244C29.3291 160.681 30.3502 163.66 31.6711 166.51H42.5549C42.5939 166.39 42.629 166.265 42.6641 166.144C41.6567 166.207 40.6453 166.147 39.6525 165.965C40.4601 164.974 41.2675 163.976 42.0751 162.985C42.0931 162.967 42.11 162.947 42.1258 162.927C42.5354 162.42 42.9489 161.917 43.3585 161.41L43.3587 161.41C43.3805 159.856 43.2022 158.306 42.828 156.797L42.8276 156.797Z" fill="#F2F2F2"/>
<path d="M259.839 150.316C260.046 150.507 260.306 150.629 260.584 150.667C260.863 150.705 261.146 150.656 261.396 150.527C261.646 150.399 261.85 150.197 261.981 149.948C262.112 149.7 262.164 149.417 262.129 149.138C262.191 149.011 262.235 148.919 262.297 148.792C262.326 148.777 262.355 148.762 262.383 148.747C263.03 148.418 263.759 148.288 264.48 148.372C265.2 148.456 265.88 148.751 266.433 149.219C266.987 149.688 267.389 150.31 267.59 151.007C267.791 151.703 267.782 152.444 267.563 153.135C266.691 155.896 266.048 158.855 264.495 161.242C263.807 162.297 262.942 163.224 261.938 163.983C267.596 161.31 272.613 157.451 276.648 152.669C277.66 151.468 278.603 150.211 279.474 148.905C280.188 147.834 280.852 146.733 281.468 145.603C284.804 139.469 286.636 132.631 286.814 125.651C285.941 123.413 285.775 120.962 286.338 118.627C286.539 117.785 286.86 116.977 287.291 116.228C287.453 116.405 287.626 116.576 287.798 116.741C287.852 116.791 287.909 116.844 287.964 116.895L287.984 116.914C288.177 117.091 288.417 117.209 288.675 117.253C288.933 117.298 289.198 117.266 289.439 117.163C289.679 117.06 289.885 116.89 290.031 116.673C290.177 116.456 290.257 116.201 290.262 115.939C290.265 115.777 290.267 115.614 290.27 115.451C290.276 115.201 290.277 114.952 290.283 114.703C290.281 114.677 290.281 114.651 290.282 114.625C290.287 114.34 290.291 114.057 290.297 113.772C290.875 113.593 291.486 113.551 292.083 113.648C294.137 113.999 295.566 116.154 295.513 118.234C295.463 120.317 294.182 122.22 292.527 123.484C291.074 124.521 289.454 125.302 287.738 125.795C287.732 125.954 287.732 126.111 287.726 126.27C287.615 129.17 287.219 132.053 286.545 134.877C288.175 132.449 290.357 130.442 292.914 129.022C295.362 127.753 298.257 127.385 301.008 126.822C304.313 126.146 306.855 129.791 304.979 132.593C304.961 132.62 304.942 132.647 304.924 132.674C304.632 132.619 304.338 132.575 304.043 132.541C303.671 132.499 303.295 132.572 302.964 132.748C302.633 132.924 302.364 133.195 302.19 133.527C302.017 133.859 301.948 134.236 301.992 134.608C302.037 134.979 302.192 135.329 302.439 135.611L302.464 135.64C301.793 136.294 301.073 136.897 300.31 137.442C298.163 138.948 295.727 139.995 293.156 140.516C290.585 141.037 287.934 141.022 285.369 140.471C285.202 140.433 285.039 140.397 284.875 140.356C283.489 144.035 281.63 147.518 279.346 150.718C277.992 152.601 276.488 154.372 274.849 156.012L274.911 155.957C276.948 154.313 279.49 153.421 282.108 153.433C285.973 153.478 289.784 155.502 293.52 156.067C293.924 156.119 294.304 156.285 294.616 156.546C294.928 156.807 295.159 157.152 295.281 157.54C295.404 157.928 295.413 158.343 295.307 158.736C295.201 159.129 294.985 159.483 294.685 159.757C294.663 159.777 294.641 159.796 294.619 159.815C294.126 159.655 293.623 159.527 293.113 159.43C292.821 159.375 292.527 159.331 292.232 159.297C291.86 159.255 291.484 159.327 291.153 159.504C290.822 159.68 290.553 159.951 290.379 160.283C290.206 160.615 290.137 160.992 290.181 161.363C290.225 161.735 290.381 162.085 290.628 162.367L290.653 162.396C290.671 162.416 290.687 162.434 290.705 162.455C288.815 163.426 286.773 164.065 284.666 164.343C282.089 164.657 279.475 164.441 276.984 163.709C274.494 162.978 272.179 161.745 270.181 160.087L270.178 160.085C267.668 161.974 264.968 163.597 262.122 164.928L253.793 157.925C253.841 157.807 253.894 157.689 253.945 157.574C254.675 158.271 255.488 158.875 256.365 159.375C256.385 158.097 256.41 156.814 256.43 155.536C256.428 155.51 256.428 155.484 256.429 155.459C256.442 154.807 256.449 154.156 256.462 153.505L256.462 153.504C257.446 152.301 258.581 151.229 259.839 150.316L259.839 150.316Z" fill="#F2F2F2"/>
<path d="M79.9175 91.4707C79.6127 91.3973 79.3277 91.2579 79.0826 91.0625C78.8375 90.8671 78.6383 90.6204 78.4989 90.3397C78.3596 90.059 78.2835 89.7512 78.276 89.4379C78.2686 89.1246 78.3299 88.8135 78.4557 88.5265L72.8643 83.3511L76.7101 82.4071L81.4301 87.4665C81.8985 87.7097 82.2613 88.1163 82.4498 88.6091C82.6384 89.1018 82.6395 89.6466 82.4531 90.1402C82.2666 90.6337 81.9055 91.0418 81.4382 91.287C80.9708 91.5322 80.4298 91.5976 79.9175 91.4707Z" fill="#FFB6B6"/>
<path d="M62.8548 77.3555L56.9941 60.2553C56.531 58.8994 56.625 57.4152 57.2553 56.1284C57.8857 54.8416 59.001 53.8573 60.3565 53.3915C61.1073 53.1344 61.9055 53.0457 62.6944 53.1317C63.4833 53.2176 64.2437 53.4761 64.9214 53.8888C65.5991 54.3016 66.1777 54.8583 66.6159 55.5197C67.0542 56.181 67.3414 56.9307 67.4572 57.7154L69.7997 73.5919L79.599 83.623L77.0216 87.2939L62.8548 77.3555Z" fill="#3F3D56"/>
<path d="M53.1798 158.029H57.3639L59.3543 141.898H53.1791L53.1798 158.029Z" fill="#FFB6B6"/>
<path d="M51.7631 155.966L58.3769 155.571V158.403L64.6648 162.744C64.9754 162.959 65.2093 163.267 65.3323 163.623C65.4554 163.98 65.4612 164.366 65.3489 164.727C65.2366 165.087 65.012 165.402 64.708 165.625C64.404 165.849 64.0364 165.969 63.659 165.969H50.9292L51.7631 155.966Z" fill="#025464"/>
<path d="M56.8352 82.2593C56.8352 82.2593 55.5308 80.8936 53.031 84.1203C50.7215 87.0423 50.8363 87.6127 51.1343 91.3246C51.3771 93.9788 48.9981 107.319 51.3689 109.586L53.2808 152.311C53.2808 152.311 59.081 153.938 59.3542 151.208L74.3301 96.8802L72.5407 82.9898L56.8352 82.2593Z" fill="#025464"/>
<path d="M84.5357 157.624L88.202 155.609L82.1713 140.516L76.7601 143.49L84.5357 157.624Z" fill="#FFB6B6"/>
<path d="M82.2998 156.499L87.9052 152.968L89.2704 155.45L96.8726 156.226C97.2481 156.264 97.6015 156.421 97.8813 156.674C98.161 156.928 98.3524 157.264 98.4276 157.633C98.5028 158.003 98.4578 158.387 98.2991 158.729C98.1405 159.072 97.8765 159.354 97.5457 159.536L90.6459 163.328L88.9922 164.237L86.3907 165.667L82.2998 156.499Z" fill="#025464"/>
<path d="M51.2185 89.4683C51.2185 89.4683 51.1429 96.3509 50.5076 100.382C49.8921 104.055 50.6896 107.824 52.7398 110.934C54.2319 113.143 56.4294 115.202 59.5999 116.047L81.8683 152.566C81.8683 152.566 87.7353 151.198 86.6588 148.675L73.5963 93.8553L65.3333 82.545L51.2185 89.4683Z" fill="#025464"/>
<path d="M51.0384 69.9962L50.3757 91.3246L72.4733 85.2121L72.8621 84.1576L73.8095 80.5663C73.8095 80.5663 71.6185 75.3995 72.0652 63.3683L66.4833 48.4925L57.6418 48.3119L57.5925 48.3612C54.8 51.1476 52.7403 54.5811 51.5968 58.3558C50.4533 62.1306 50.2615 66.1294 51.0384 69.9962Z" fill="#3F3D56"/>
<path d="M95.4916 78.7618C95.1917 78.853 94.8754 78.8773 94.565 78.8331C94.2546 78.7889 93.9578 78.6772 93.6952 78.5059C93.4327 78.3346 93.211 78.1078 93.0457 77.8416C92.8803 77.5754 92.7754 77.2761 92.7383 76.965L85.2936 75.3379L88.1296 72.5752L94.7643 74.5439C95.2914 74.5161 95.8103 74.6827 96.2228 75.0118C96.6353 75.341 96.9126 75.81 97.0022 76.3299C97.0919 76.8499 96.9876 77.3846 96.7092 77.8328C96.4308 78.281 95.9975 78.6115 95.4916 78.7618Z" fill="#FFB6B6"/>
<path d="M73.6248 75.2429L59.8993 63.474C58.8123 62.54 58.1405 61.2131 58.0311 59.7845C57.9217 58.3559 58.3837 56.9422 59.3158 55.8537C59.8325 55.2517 60.4755 54.7707 61.1991 54.4449C61.9227 54.1192 62.7091 53.9567 63.5027 53.9689C64.2962 53.9811 65.0772 54.1678 65.7904 54.5157C66.5036 54.8637 67.1315 55.3642 67.6294 55.982L77.7018 68.4791L91.2364 72.1588L90.8769 76.6292L73.6248 75.2429Z" fill="#3F3D56"/>
<path d="M71.239 33.9194C71.2378 36.3385 70.3168 38.6666 68.6624 40.4322C67.0081 42.1977 64.7442 43.2687 62.3294 43.4282C59.9146 43.5876 57.5294 42.8236 55.6571 41.2909C53.7848 39.7582 52.5653 37.5714 52.2458 35.1736C51.9262 32.7757 52.5305 30.3461 53.9361 28.3769C55.3418 26.4078 57.4437 25.0463 59.8161 24.5684C62.1884 24.0904 64.6539 24.5317 66.7129 25.8028C68.7719 27.074 70.2705 29.0799 70.9052 31.4143C71.1272 32.2308 71.2395 33.0733 71.239 33.9194Z" fill="#FFB8B8"/>
<path d="M67.7668 21.3683C66.9938 21.3454 67.2591 19.8888 66.6363 19.4241C66.6332 19.4382 66.6301 19.4523 66.6269 19.4663C66.5452 19.781 66.3646 20.0611 66.1117 20.2654C65.8588 20.4698 65.5469 20.5875 65.222 20.6014C64.8971 20.6153 64.5764 20.5245 64.307 20.3424C64.0376 20.1603 63.8338 19.8966 63.7256 19.5901C63.6223 19.2355 63.4354 18.9108 63.1804 18.6435C62.9255 18.3762 62.61 18.1739 62.2606 18.0538C62.2219 19.4039 61.2002 20.5757 59.9814 21.1588C58.7625 21.7419 57.3728 21.8389 56.0217 21.8589C54.6707 21.8788 53.3001 21.8336 51.9899 22.1641C50.6798 22.4946 49.4054 23.2716 48.8456 24.5009C48.2859 25.7302 48.6853 27.4227 49.9093 27.9948C48.961 27.9999 48.1564 28.782 47.8286 29.6714C47.5598 30.5836 47.4897 31.5428 47.623 32.4844C47.8895 35.9709 48.5392 39.7246 51.0791 42.1291C53.0148 43.9616 55.7855 44.6999 58.4516 44.6892C61.1177 44.6785 60.649 44.4336 63.2268 43.7534C63.2268 43.7534 65.6776 36.7306 65.0605 36.0397C64.4433 35.3488 63.9307 34.4648 64.0424 33.5454C64.1541 32.6259 65.1426 31.8023 66.0005 32.1523C65.8563 31.7837 65.7476 31.7135 65.6795 31.7322C65.7228 31.6275 65.7607 31.5205 65.7929 31.4118C65.9544 30.8579 66.2451 30.3501 66.6411 29.9304C67.0371 29.5106 67.5272 29.1908 68.0709 28.9971C68.6202 28.819 69.2109 28.8131 69.7636 28.9803C70.3163 29.1475 70.8046 29.4797 71.1628 29.9325C73.9855 27.2863 72.2343 21.5009 67.7668 21.3683Z" fill="#025464"/>
<path d="M231.744 91.4707C232.049 91.3972 232.334 91.2579 232.579 91.0625C232.824 90.8671 233.023 90.6204 233.163 90.3397C233.302 90.059 233.378 89.7512 233.386 89.4379C233.393 89.1246 233.332 88.8135 233.206 88.5265L238.797 83.3511L234.952 82.4071L230.232 87.4665C229.763 87.7097 229.4 88.1163 229.212 88.6091C229.023 89.1018 229.022 89.6466 229.209 90.1402C229.395 90.6337 229.756 91.0418 230.224 91.287C230.691 91.5322 231.232 91.5976 231.744 91.4707Z" fill="#9E616A"/>
<path d="M234.64 87.2939L232.063 83.623L241.862 73.5919L244.205 57.7154C244.32 56.9307 244.608 56.181 245.046 55.5197C245.484 54.8583 246.063 54.3016 246.74 53.8888C247.418 53.4761 248.178 53.2176 248.967 53.1317C249.756 53.0457 250.554 53.1344 251.305 53.3915C252.661 53.8573 253.776 54.8416 254.406 56.1284C255.037 57.4152 255.131 58.8994 254.668 60.2553L248.807 77.3555L234.64 87.2939Z" fill="#E6E6E6"/>
<path d="M258.482 158.029H254.298L252.307 141.898H258.483L258.482 158.029Z" fill="#9E616A"/>
<path d="M260.733 165.969H248.003C247.625 165.969 247.258 165.849 246.954 165.625C246.65 165.402 246.425 165.087 246.313 164.727C246.201 164.366 246.206 163.98 246.329 163.623C246.453 163.267 246.686 162.959 246.997 162.744L253.285 158.403V155.571L259.899 155.966L260.733 165.969Z" fill="#025464"/>
<path d="M254.827 82.2593C254.827 82.2593 258.21 88.254 260.71 91.4807C263.02 94.4027 262.722 95.9544 262.424 99.6663C262.181 102.32 262.664 107.319 260.293 109.586L258.381 152.311C258.381 152.311 252.581 153.938 252.308 151.208L237.332 96.8801L239.121 82.9898L254.827 82.2593Z" fill="#025464"/>
<path d="M227.126 157.624L223.46 155.609L229.491 140.516L234.902 143.49L227.126 157.624Z" fill="#9E616A"/>
<path d="M225.271 165.667L222.669 164.237L221.016 163.328L214.116 159.536C213.785 159.354 213.521 159.072 213.363 158.729C213.204 158.387 213.159 158.003 213.234 157.633C213.309 157.264 213.501 156.928 213.78 156.674C214.06 156.421 214.414 156.264 214.789 156.226L222.391 155.45L223.756 152.968L229.362 156.499L225.271 165.667Z" fill="#025464"/>
<path d="M260.443 89.4683C260.443 89.4683 260.519 96.3509 261.154 100.382C261.77 104.055 260.972 107.824 258.922 110.934C257.43 113.143 255.232 115.202 252.062 116.047L229.793 152.566C229.793 152.566 223.926 151.198 225.003 148.675L238.065 93.8553L246.328 82.545L260.443 89.4683Z" fill="#025464"/>
<path d="M254.069 48.3612L254.02 48.3119L245.178 48.4925L239.597 63.3683C240.043 75.3995 237.852 80.5663 237.852 80.5663L238.8 84.1576L235.871 101.941L264.031 96.2462L260.623 69.9962C261.4 66.1294 261.208 62.1306 260.065 58.3558C258.921 54.5811 256.862 51.1476 254.069 48.3612Z" fill="#E6E6E6"/>
<path d="M216.17 78.7618C216.47 78.853 216.786 78.8773 217.097 78.8331C217.407 78.7889 217.704 78.6772 217.966 78.5059C218.229 78.3346 218.451 78.1078 218.616 77.8416C218.781 77.5754 218.886 77.2761 218.924 76.965L226.368 75.3379L223.532 72.5752L216.897 74.5439C216.37 74.5162 215.851 74.6827 215.439 75.0119C215.026 75.341 214.749 75.81 214.66 76.3299C214.57 76.8499 214.674 77.3846 214.953 77.8328C215.231 78.281 215.664 78.6115 216.17 78.7618Z" fill="#9E616A"/>
<path d="M220.785 76.6292L220.425 72.1588L233.96 68.4791L244.032 55.982C244.53 55.3642 245.158 54.8637 245.871 54.5157C246.585 54.1678 247.366 53.9811 248.159 53.9689C248.953 53.9567 249.739 54.1192 250.463 54.4449C251.186 54.7707 251.829 55.2517 252.346 55.8537C253.278 56.9422 253.74 58.3559 253.631 59.7845C253.521 61.2131 252.849 62.54 251.762 63.474L238.037 75.2429L220.785 76.6292Z" fill="#E6E6E6"/>
<path d="M240.757 31.4143C241.391 29.0799 242.89 27.074 244.949 25.8028C247.008 24.5317 249.473 24.0904 251.846 24.5684C254.218 25.0463 256.32 26.4078 257.726 28.3769C259.131 30.3461 259.736 32.7757 259.416 35.1736C259.096 37.5714 257.877 39.7582 256.005 41.2909C254.132 42.8236 251.747 43.5876 249.332 43.4282C246.918 43.2687 244.654 42.1977 242.999 40.4322C241.345 38.6666 240.424 36.3385 240.423 33.9194C240.422 33.0733 240.535 32.2308 240.757 31.4143Z" fill="#9E616A"/>
<path d="M243.895 21.3682C244.668 21.3453 254.289 21.8388 255.64 21.8588C256.991 21.8787 258.362 21.8335 259.672 22.164C260.982 22.4945 262.256 23.2715 262.816 24.5008C263.376 25.7301 263.505 28.7819 263.833 29.6712C264.102 30.5835 264.172 31.5427 264.039 32.4843C263.772 35.9708 263.123 39.7245 260.583 42.129C258.647 43.9615 255.876 44.6997 253.21 44.6891C250.544 44.6784 251.013 44.4335 248.435 43.7533C248.435 43.7533 245.984 36.7304 246.601 36.0396C247.218 35.3487 247.731 34.4647 247.619 33.5453C247.508 32.6258 246.519 31.8022 245.661 32.1522C245.806 31.7836 245.914 31.7134 245.982 31.7321C245.939 31.6273 245.901 31.5204 245.869 31.4117C245.707 30.8577 245.417 30.35 245.021 29.9302C244.625 29.5105 244.135 29.1906 243.591 28.997C243.042 28.8188 242.451 28.813 241.898 28.9802C241.345 29.1474 240.857 29.4796 240.499 29.9323C237.676 27.2862 239.427 21.5008 243.895 21.3682Z" fill="#025464"/>
<path d="M94.8274 78.0693C107.187 76.4505 120.985 74.8005 131.8 82.4203C136.156 85.4891 139.565 89.9279 140.605 95.223C141.263 98.5707 141.054 102.01 141.096 105.4C141.134 108.436 141.407 111.466 142.431 114.343C144.161 119.21 147.553 123.342 151.75 126.309C156.303 129.478 161.696 131.223 167.243 131.321C179.525 131.628 190.724 124.971 198.543 115.89C206.94 106.138 211.757 94.0437 215.961 82.041C216.515 80.4583 217.064 78.8738 217.607 77.2873C217.846 76.5936 216.747 76.2956 216.51 76.9849C212.309 89.1864 208.001 101.637 200.17 112.065C192.988 121.629 182.546 129.232 170.302 130.111C164.72 130.511 159.104 129.413 154.256 126.572C149.805 123.964 146.076 120.035 144.014 115.28C142.904 112.583 142.311 109.701 142.266 106.784C142.143 103.409 142.391 100.016 141.974 96.6542C141.307 91.2663 138.569 86.5659 134.459 83.0546C130.307 79.5927 125.322 77.274 119.999 76.328C113.369 75.0794 106.583 75.5135 99.9254 76.2899C98.2241 76.4883 96.5256 76.7094 94.8274 76.9318C94.1115 77.0256 94.1022 78.1643 94.8274 78.0693Z" fill="#3F3D56"/>
<path d="M196.439 50.5296C194.273 52.8273 191.124 54.0445 187.976 54.2872C185.719 54.4608 183.45 54.1698 181.31 53.4323C179.17 52.6948 177.205 51.5264 175.534 49.9994C173.864 48.4723 172.525 46.6191 171.6 44.5542C170.674 42.4893 170.182 40.2566 170.155 37.9942C170.12 35.4537 170.674 32.9246 170.549 30.3842C170.238 24.1089 165.83 18.4062 166.301 12.1385L169.32 13.075C167.294 12.438 165.269 11.801 163.243 11.164C162.548 10.9785 161.882 10.6991 161.263 10.3336C159.495 9.17336 158.976 6.61396 159.825 4.67639C160.679 2.73883 162.648 1.44206 164.722 1.00981C166.135 0.741827 167.585 0.750844 168.994 1.03635C169.668 1.1565 170.334 1.31732 170.989 1.5179C172.899 0.888922 174.926 0.702704 176.918 0.97337C178.91 1.24404 180.815 1.96448 182.487 3.08009C184.519 4.47656 186.12 6.41395 187.107 8.67286C187.738 10.0979 188.107 11.6252 188.196 13.1812C188.423 17.4127 186.618 21.796 186.876 25.8834C186.931 27.0014 187.181 28.1011 187.615 29.1329C189.853 34.3389 196.89 36.3978 198.654 41.7859C199.637 44.7851 198.605 48.2318 196.439 50.5296Z" fill="#025464"/>
<path d="M198.084 131.89L195.179 134.9L182.183 125.132L186.471 120.69L198.084 131.89Z" fill="#9E616A"/>
<path d="M205.364 135.785L203.302 137.92L201.992 139.278L196.525 144.942C196.263 145.214 195.921 145.394 195.549 145.458C195.177 145.521 194.794 145.464 194.457 145.295C194.12 145.126 193.845 144.853 193.674 144.517C193.503 144.181 193.443 143.799 193.505 143.426L194.745 135.889L192.706 133.923L197.582 129.439L205.364 135.785Z" fill="#025464"/>
<path d="M170.161 137.624L166.395 139.445L157.576 125.79L163.134 123.102L170.161 137.624Z" fill="#9E616A"/>
<path d="M175.647 143.792L172.974 145.085L171.275 145.906L164.187 149.333C163.847 149.498 163.464 149.549 163.093 149.48C162.722 149.411 162.382 149.226 162.124 148.95C161.866 148.675 161.703 148.324 161.659 147.95C161.614 147.575 161.69 147.196 161.877 146.868L165.646 140.223L164.412 137.674L170.538 135.15L175.647 143.792Z" fill="#025464"/>
<path d="M176.304 62.1633C176.304 62.1633 179.688 68.158 182.188 71.3848C184.497 74.3067 184.2 75.8584 183.902 79.5703C183.659 82.2245 184.141 87.2227 181.77 89.4902L180.734 112.645L193.515 127.286C193.515 127.286 188.347 134.626 188.074 131.896L169.154 114.311L158.809 76.7842L160.599 62.8938L176.304 62.1633Z" fill="#025464"/>
<path d="M181.921 69.3722C181.921 69.3722 181.996 76.2548 182.632 80.2862C183.247 83.9589 182.45 87.7284 180.399 90.8376C178.907 93.0465 176.71 95.1057 173.539 95.9509L162.699 113.729L168.72 130.953C168.72 130.953 160.065 135.937 161.142 133.413L150.665 111.018L159.543 73.7592L167.806 62.449L181.921 69.3722Z" fill="#025464"/>
<path d="M175.547 28.265L175.498 28.2157L166.656 28.3963L161.074 43.2721C161.521 55.3033 159.33 60.4701 159.33 60.4701L160.277 64.0614L160.666 65.116L185.509 76.15L182.101 49.9C182.878 46.0332 182.686 42.0344 181.543 38.2596C180.399 34.4849 178.339 31.0514 175.547 28.265Z" fill="#E57C23"/>
<path d="M137.648 58.6657C137.948 58.7569 138.264 58.7813 138.574 58.737C138.885 58.6928 139.182 58.5811 139.444 58.4098C139.707 58.2385 139.928 58.0118 140.094 57.7455C140.259 57.4793 140.364 57.1801 140.401 56.8689L147.846 55.2419L145.01 52.4791L138.375 54.4478C137.848 54.4201 137.329 54.5866 136.916 54.9158C136.504 55.245 136.227 55.714 136.137 56.2339C136.047 56.7538 136.152 57.2885 136.43 57.7367C136.709 58.1849 137.142 58.5155 137.648 58.6657Z" fill="#9E616A"/>
<path d="M142.262 56.5332L141.903 52.0629L155.438 48.3832L165.51 35.886C166.008 35.2683 166.636 34.7677 167.349 34.4198C168.062 34.0719 168.843 33.8852 169.637 33.873C170.43 33.8607 171.217 34.0232 171.94 34.349C172.664 34.6747 173.307 35.1557 173.824 35.7578C174.756 36.8463 175.218 38.2599 175.108 39.6885C174.999 41.1171 174.327 42.444 173.24 43.378L159.514 55.1469L142.262 56.5332Z" fill="#E57C23"/>
<path d="M194.933 76.799C195.054 76.5099 195.11 76.1978 195.097 75.8847C195.084 75.5716 195.003 75.2651 194.859 74.9869C194.714 74.7086 194.511 74.4653 194.263 74.2741C194.014 74.0829 193.727 73.9484 193.421 73.8802L192.55 66.313L189.515 68.8556L190.807 75.6518C190.727 76.1732 190.84 76.706 191.127 77.1493C191.413 77.5926 191.852 77.9155 192.36 78.057C192.869 78.1984 193.412 78.1484 193.886 77.9166C194.36 77.6847 194.732 77.2871 194.933 76.799Z" fill="#9E616A"/>
<path d="M193.274 71.9956L188.788 71.9038L186.486 58.0737L175.059 46.8005C174.494 46.2432 174.059 45.5685 173.785 44.8243C173.51 44.08 173.403 43.2845 173.47 42.4941C173.538 41.7037 173.779 40.9379 174.176 40.251C174.573 39.5641 175.116 38.973 175.767 38.5197C176.944 37.7021 178.398 37.3847 179.809 37.6371C181.22 37.8895 182.473 38.6911 183.293 39.8659L193.628 54.699L193.274 71.9956Z" fill="#E57C23"/>
<path d="M162.234 11.3181C162.869 8.98374 164.367 6.9778 166.426 5.70665C168.485 4.43551 170.951 3.99421 173.323 4.47216C175.696 4.95011 177.798 6.31158 179.203 8.28074C180.609 10.2499 181.213 12.6795 180.894 15.0774C180.574 17.4752 179.355 19.662 177.482 21.1947C175.61 22.7274 173.225 23.4914 170.81 23.332C168.395 23.1725 166.131 22.1015 164.477 20.336C162.823 18.5704 161.901 16.2423 161.9 13.8232C161.9 12.9771 162.012 12.1346 162.234 11.3181Z" fill="#9E616A"/>
<path d="M161.022 66.616C159.357 66.6101 157.718 66.2022 156.244 65.427C154.771 64.6518 153.506 63.5323 152.559 62.1637C152.034 61.3714 151.58 60.3888 151.886 59.4285C151.969 59.0914 152.17 58.7954 152.454 58.5955C152.738 58.3955 153.085 58.3051 153.43 58.3409C154.179 58.4457 154.824 59.0182 155.326 59.5432C156.005 60.293 156.629 61.0915 157.191 61.9323C158.082 63.1904 159.816 65.227 158.475 66.7338C157.348 68.001 155.452 68.1083 153.934 68.5652C152.294 69.0589 150.615 70.1666 150.468 72.0349C150.325 73.8519 152.071 75.0778 153.681 75.3411C154.644 75.4782 155.626 75.3772 156.541 75.0471C157.455 74.7169 158.275 74.1676 158.928 73.4473C160.206 71.9712 160.903 70.0814 160.89 68.1298C160.888 67.9822 160.828 67.8414 160.724 67.7371C160.619 67.6327 160.478 67.573 160.331 67.5704C160.183 67.5678 160.04 67.6226 159.932 67.7233C159.824 67.8239 159.76 67.9625 159.752 68.1099C159.724 69.8874 159.141 71.7029 157.824 72.9485C156.591 74.1146 154.631 74.6704 153.024 73.9836C152.23 73.6439 151.49 72.9288 151.613 71.9984C151.726 71.1446 152.42 70.4759 153.145 70.0904C154.785 69.2186 156.755 69.2957 158.355 68.2897C159.88 67.3303 160.488 65.7252 159.795 64.0234C159.359 63.0792 158.817 62.1878 158.179 61.3664C157.594 60.5035 156.958 59.6769 156.273 58.8912C155.245 57.7616 153.633 56.667 152.085 57.4733C150.321 58.3924 150.438 60.697 151.254 62.2046C153.116 65.6422 157.164 67.7387 161.002 67.7536C161.15 67.751 161.291 67.6913 161.395 67.587C161.499 67.4827 161.559 67.3419 161.562 67.1944C161.564 67.0469 161.509 66.9041 161.409 66.7962C161.308 66.6883 161.169 66.6237 161.022 66.616Z" fill="#025464"/>
<path d="M186.876 25.8834L171.755 22.7932C171.205 19.8925 176.285 15.9833 177.605 11.2171C175.245 10.9327 172.085 10.4587 169.35 9.84069C166.615 9.21885 164.301 8.45672 163.634 7.58842C164.119 5.22369 165.523 3.14811 167.538 1.81784C169.553 0.487576 172.014 0.0114551 174.38 0.494119L176.235 0.87329C176.296 0.884665 176.357 0.899832 176.417 0.914999C178.691 1.42354 180.681 2.78831 181.975 4.72567C183.875 5.77549 185.605 7.10624 187.107 8.67285C187.738 10.0979 188.107 11.6251 188.196 13.1812C188.423 17.4128 186.618 21.796 186.876 25.8834Z" fill="#025464"/>
<path d="M328 166.35C328 166.409 327.989 166.468 327.966 166.523C327.943 166.577 327.91 166.627 327.868 166.669C327.826 166.711 327.776 166.744 327.722 166.767C327.667 166.79 327.608 166.801 327.549 166.801H0.45141C0.331689 166.801 0.216875 166.753 0.13222 166.669C0.0475642 166.584 0 166.469 0 166.35C0 166.23 0.0475642 166.115 0.13222 166.031C0.216875 165.946 0.331689 165.899 0.45141 165.899H327.549C327.608 165.898 327.667 165.91 327.722 165.933C327.776 165.955 327.826 165.988 327.868 166.03C327.91 166.072 327.943 166.122 327.966 166.177C327.989 166.232 328 166.29 328 166.35Z" fill="#CCCCCC"/>
</g>
<defs>
<clipPath id="clip0_2_764">
<rect width="328" height="166.492" fill="white" transform="translate(0 0.308716)"/>
</clipPath>
</defs>
</svg>
