<svg width="328" height="256" viewBox="0 0 328 256" fill="none" xmlns="http://www.w3.org/2000/svg">
<g clip-path="url(#clip0_2_874)">
<path opacity="0.1" d="M266.059 34.5586V171.041C266.06 175.483 265.186 179.881 263.487 183.984C261.788 188.088 259.297 191.816 256.157 194.957C253.016 198.097 249.288 200.588 245.184 202.287C241.081 203.986 236.683 204.86 232.241 204.859H95.7587C88.1171 204.869 80.6989 202.282 74.7211 197.522C72.247 195.551 70.0586 193.246 68.2189 190.673C64.1347 184.942 61.9402 178.079 61.9413 171.041V34.5586C61.9413 33.6535 61.9766 32.7581 62.0472 31.8723C62.1818 30.1423 62.4512 28.4254 62.8528 26.7373C64.6143 19.3346 68.8204 12.7421 74.7913 8.02494C80.7623 3.30783 88.1492 0.741704 95.7587 0.741211H232.241C239.851 0.741704 247.238 3.30783 253.209 8.02494C259.18 12.7421 263.386 19.3346 265.147 26.7373C265.549 28.4254 265.818 30.1423 265.953 31.8723C266.023 32.7581 266.059 33.6535 266.059 34.5586Z" fill="#E57C23"/>
<path opacity="0.1" d="M166.568 108.256H266.059V113.391H166.568V149.015H266.059V154.15H166.568V204.859H161.432V154.15H61.9413V149.015H161.432V113.391H61.9413V108.256H161.432V72.6316H61.9413V67.4966H161.432V31.8723H62.0472C62.1818 30.1423 62.4512 28.4254 62.8528 26.7373H161.432V0.741211H166.568V26.7373H265.147C265.549 28.4254 265.818 30.1423 265.953 31.8723H166.568V67.4966H266.059V72.6316H166.568V108.256Z" fill="#E57C23"/>
<path opacity="0.1" d="M164 255.888C254.575 255.888 328 244.368 328 230.158C328 215.948 254.575 204.428 164 204.428C73.4253 204.428 0 215.948 0 230.158C0 244.368 73.4253 255.888 164 255.888Z" fill="#E57C23"/>
<path d="M289.712 220.909C294.196 220.909 297.832 220.209 297.832 219.346C297.832 218.482 294.196 217.783 289.712 217.783C285.228 217.783 281.592 218.482 281.592 219.346C281.592 220.209 285.228 220.909 289.712 220.909Z" fill="#E57C23"/>
<path d="M289.577 219.923C290.1 219.923 290.524 219.369 290.524 218.685C290.524 218 290.1 217.446 289.577 217.446C289.054 217.446 288.63 218 288.63 218.685C288.63 219.369 289.054 219.923 289.577 219.923Z" fill="#3F3D56"/>
<path d="M289.577 218.409C290.1 218.409 290.524 217.854 290.524 217.17C290.524 216.486 290.1 215.931 289.577 215.931C289.054 215.931 288.63 216.486 288.63 217.17C288.63 217.854 289.054 218.409 289.577 218.409Z" fill="#3F3D56"/>
<path d="M289.577 216.897C290.1 216.897 290.524 216.342 290.524 215.658C290.524 214.974 290.1 214.419 289.577 214.419C289.054 214.419 288.63 214.974 288.63 215.658C288.63 216.342 289.054 216.897 289.577 216.897Z" fill="#3F3D56"/>
<path d="M289.577 215.386C290.1 215.386 290.524 214.831 290.524 214.147C290.524 213.463 290.1 212.908 289.577 212.908C289.054 212.908 288.63 213.463 288.63 214.147C288.63 214.831 289.054 215.386 289.577 215.386Z" fill="#3F3D56"/>
<path d="M289.577 213.87C290.1 213.87 290.524 213.316 290.524 212.632C290.524 211.947 290.1 211.393 289.577 211.393C289.054 211.393 288.63 211.947 288.63 212.632C288.63 213.316 289.054 213.87 289.577 213.87Z" fill="#3F3D56"/>
<path d="M289.577 212.359C290.1 212.359 290.524 211.804 290.524 211.12C290.524 210.436 290.1 209.881 289.577 209.881C289.054 209.881 288.63 210.436 288.63 211.12C288.63 211.804 289.054 212.359 289.577 212.359Z" fill="#3F3D56"/>
<path d="M289.577 210.847C290.1 210.847 290.524 210.293 290.524 209.608C290.524 208.924 290.1 208.37 289.577 208.37C289.054 208.37 288.63 208.924 288.63 209.608C288.63 210.293 289.054 210.847 289.577 210.847Z" fill="#3F3D56"/>
<path d="M293.114 199.258C293.244 199.093 293.362 198.92 293.467 198.738L290.983 198.331L293.669 198.35C293.926 197.789 294.067 197.182 294.082 196.565C294.097 195.948 293.986 195.334 293.756 194.762L290.152 196.633L293.477 194.187C293.166 193.646 292.748 193.175 292.247 192.803C291.746 192.431 291.174 192.166 290.566 192.026C289.959 191.885 289.328 191.872 288.715 191.986C288.102 192.1 287.519 192.34 287.002 192.69C286.486 193.04 286.048 193.493 285.714 194.02C285.381 194.547 285.16 195.138 285.066 195.754C284.971 196.371 285.005 197 285.165 197.603C285.325 198.206 285.608 198.769 285.995 199.258C285.795 199.514 285.622 199.791 285.479 200.083L288.688 201.758L285.251 200.603C285.008 201.316 284.948 202.079 285.075 202.822C285.203 203.564 285.513 204.263 285.979 204.855C285.454 205.523 285.127 206.326 285.036 207.171C284.945 208.016 285.094 208.869 285.465 209.633C285.837 210.398 286.415 211.042 287.136 211.493C287.856 211.944 288.689 212.184 289.539 212.184C290.388 212.184 291.221 211.944 291.942 211.493C292.662 211.042 293.241 210.398 293.612 209.633C293.983 208.869 294.132 208.016 294.041 207.171C293.95 206.326 293.623 205.523 293.098 204.855C293.726 204.058 294.067 203.072 294.067 202.057C294.067 201.042 293.726 200.056 293.098 199.258H293.114Z" fill="#E57C23"/>
<path opacity="0.1" d="M285.026 202.057C285.023 203.072 285.362 204.058 285.989 204.856C285.464 205.524 285.137 206.326 285.046 207.171C284.955 208.016 285.104 208.869 285.475 209.634C285.846 210.398 286.425 211.043 287.145 211.494C287.866 211.945 288.698 212.184 289.548 212.184C290.398 212.184 291.231 211.945 291.951 211.494C292.672 211.043 293.25 210.398 293.622 209.634C293.993 208.869 294.142 208.016 294.051 207.171C293.96 206.326 293.633 205.524 293.108 204.856C293.721 204.085 285.026 201.55 285.026 202.057Z" fill="black"/>
<path d="M259.8 179.504H66.274V223.955H259.8V179.504Z" fill="#46455B"/>
<path d="M67.5577 133.449L49.2642 147.25L63.3855 160.087L71.409 147.25L82.3209 133.449H67.5577Z" fill="#46455B"/>
<path d="M256.591 150.138L254.023 147.25L237.656 137.943L252.74 137.622L276.168 147.25L266.54 153.348L256.591 150.138Z" fill="#46455B"/>
<path d="M66.2739 150.78L82.3209 133.449V173.246L71.409 182.232L64.6693 172.925L66.2739 150.78Z" fill="#46455B"/>
<path d="M256.912 157.841L254.023 147.25L248.567 140.189L237.656 137.943V182.232H259.8L256.912 157.841Z" fill="#46455B"/>
<path d="M85.8673 121.575H235.714C237.037 121.575 238.307 122.101 239.243 123.036C240.179 123.972 240.704 125.242 240.704 126.565V172.283H80.8767V126.565C80.8767 125.242 81.4025 123.972 82.3384 123.036C83.2743 122.101 84.5437 121.575 85.8673 121.575Z" fill="#46455B"/>
<path d="M71.409 182.232L82.3209 168.753H237.656L254.023 182.232H71.409Z" fill="#46455B"/>
<path opacity="0.05" d="M71.409 182.232L82.3209 168.753H237.656L254.023 182.232H71.409Z" fill="black"/>
<path d="M71.409 147.25H49.2642V223.955H71.409V147.25Z" fill="#46455B"/>
<path opacity="0.05" d="M71.409 147.25H49.2642V223.955H71.409V147.25Z" fill="white"/>
<path d="M276.168 147.25H254.023V223.955H276.168V147.25Z" fill="#46455B"/>
<path opacity="0.05" d="M276.168 147.25H254.023V223.955H276.168V147.25Z" fill="white"/>
<path d="M141.213 132.968C155.393 132.968 166.888 117.809 166.888 99.1091C166.888 80.4092 155.393 65.25 141.213 65.25C127.033 65.25 115.538 80.4092 115.538 99.1091C115.538 117.809 127.033 132.968 141.213 132.968Z" fill="#025464"/>
<path d="M152.446 84.5063H123.883V124.303H152.446V84.5063Z" fill="#025464"/>
<path opacity="0.1" d="M152.446 84.5063H123.883V124.303H152.446V84.5063Z" fill="black"/>
<path d="M125.956 107.845C125.062 108.933 123.908 109.779 122.601 110.303C121.294 110.827 119.876 111.012 118.478 110.843C118.35 112.839 119.704 114.591 120.985 116.128L131.007 128.154C131.047 128.249 131.112 128.332 131.195 128.393C131.278 128.454 131.377 128.49 131.48 128.499C131.582 128.508 131.685 128.488 131.778 128.442C131.87 128.395 131.948 128.325 132.002 128.237L147.311 113.715C145.784 114.357 143.977 113.339 143.139 111.908C142.301 110.477 142.218 108.756 142.141 107.094C142.03 104.612 141.923 102.132 141.82 99.6546C141.794 99.1026 141.74 98.4928 141.332 98.1205C141.015 97.8818 140.637 97.7382 140.241 97.7065C137.824 97.2925 130.292 95.139 128.896 97.6808C128.254 98.8394 128.543 101.099 128.254 102.408C127.821 104.35 127.208 106.285 125.956 107.845Z" fill="#FBBEBE"/>
<path opacity="0.1" d="M125.956 107.845C125.062 108.933 123.908 109.779 122.601 110.303C121.294 110.827 119.876 111.012 118.478 110.843C118.35 112.839 119.704 114.591 120.985 116.128L131.007 128.154C131.047 128.249 131.112 128.332 131.195 128.393C131.278 128.454 131.377 128.49 131.48 128.499C131.582 128.508 131.685 128.488 131.778 128.442C131.87 128.395 131.948 128.325 132.002 128.237L147.311 113.715C145.784 114.357 143.977 113.339 143.139 111.908C142.301 110.477 142.218 108.756 142.141 107.094C142.03 104.612 141.923 102.132 141.82 99.6546C141.794 99.1026 141.74 98.4928 141.332 98.1205C141.015 97.8818 140.637 97.7382 140.241 97.7065C137.824 97.2925 130.292 95.139 128.896 97.6808C128.254 98.8394 128.543 101.099 128.254 102.408C127.821 104.35 127.208 106.285 125.956 107.845Z" fill="black"/>
<path d="M137.041 105.367C145.372 105.367 152.125 98.6139 152.125 90.2831C152.125 81.9524 145.372 75.199 137.041 75.199C128.71 75.199 121.957 81.9524 121.957 90.2831C121.957 98.6139 128.71 105.367 137.041 105.367Z" fill="#FBBEBE"/>
<path d="M131.585 120.657L129.165 113.028C128.202 109.973 126.835 106.51 123.786 105.525C121.861 104.908 119.784 105.473 117.778 105.303C113.876 104.966 110.076 101.863 106.427 103.284C101.934 105.03 101.972 111.931 97.9827 114.639C97.9827 121.087 100.066 127.076 101.192 133.421C102.319 139.766 102.643 146.614 99.703 152.356C98.4577 154.789 96.6765 156.907 95.3478 159.295C93.1696 163.232 92.2786 167.753 92.7996 172.222C109.835 172.436 126.873 172.488 143.912 172.376C143.755 170.168 142.77 167.992 142.609 165.784C142.513 165.118 142.566 164.438 142.763 163.794C143.139 162.832 144.095 162.257 144.914 161.631C146.01 160.786 146.939 159.743 147.651 158.557C148.787 156.666 149.327 154.487 149.853 152.343L156.233 126.347C156.994 123.25 157.732 119.871 156.41 116.969C154.959 113.782 151.48 112.126 148.268 110.73C146.342 109.886 144.127 109.032 142.17 109.809C140.565 110.451 139.557 111.988 138.543 113.381C136.581 116.125 134.238 118.574 131.585 120.657Z" fill="#F86D70"/>
<path opacity="0.1" d="M97.8127 116.928C97.312 118.802 97.5912 120.805 97.2221 122.705C96.6027 125.885 94.2823 128.414 92.729 131.251C90.3216 135.657 89.7121 140.823 91.028 145.668C91.4195 147.083 92.116 148.598 93.4896 149.118C94.4717 149.493 95.5693 149.259 96.6188 149.352C98.0052 149.474 99.4462 150.161 100.727 149.615C102.309 148.941 102.624 146.884 102.797 145.174C103.196 141.207 104.05 137.299 105.342 133.527C106.626 129.752 108.388 126.007 108.362 122.018C108.343 119.206 104.742 121.793 102.392 120.127C99.7415 118.26 98.6824 113.689 97.8127 116.928Z" fill="black"/>
<path d="M97.1707 116.606C96.6701 118.481 96.9493 120.483 96.5802 122.383C95.9608 125.564 93.6404 128.093 92.0871 130.93C89.6797 135.336 89.0702 140.502 90.3861 145.347C90.7776 146.762 91.4741 148.277 92.8477 148.797C93.8298 149.172 94.9274 148.938 95.9769 149.031C97.3633 149.153 98.8043 149.84 100.085 149.294C101.667 148.62 101.982 146.563 102.155 144.852C102.554 140.885 103.408 136.977 104.7 133.205C105.984 129.431 107.746 125.686 107.72 121.697C107.701 118.885 106.465 115.778 104.116 114.113C101.465 112.245 98.0405 113.368 97.1707 116.606Z" fill="#F86D70"/>
<path d="M119.133 98.9582C121.058 97.8799 122.955 96.7117 124.938 95.7103C128.039 94.1602 131.524 92.9503 133.963 90.5753C134.089 90.4555 134.243 90.3698 134.411 90.3264C134.579 90.2831 134.756 90.2834 134.924 90.3275C135.092 90.3716 135.245 90.4579 135.371 90.5782C135.496 90.6986 135.588 90.8489 135.639 91.015C136.688 94.4331 137.93 97.789 139.358 101.067C140.591 103.891 141.964 106.664 142.889 109.604C143.53 111.648 143.932 113.776 144.731 115.743C145.774 118.311 147.439 120.596 149.092 122.836C149.699 123.664 150.325 124.505 151.175 125.083C152.369 125.895 154.15 126.415 154.276 127.852C152.725 128.972 150.617 128.603 148.707 128.587C146.798 128.571 144.856 128.966 142.969 129.431C140.764 129.934 138.614 130.652 136.55 131.575C134.541 132.522 132.699 133.767 130.837 135.006L113.773 146.454C112.518 145.019 112.566 142.924 112.297 141.024C112.067 139.657 111.736 138.308 111.308 136.99L109.607 131.261C108.798 128.539 108.002 125.821 107.091 123.128C106.34 120.882 105.506 118.613 104.036 116.758C102.264 114.511 99.7158 113.054 97.5045 111.247C96.7215 110.605 95.948 109.873 95.6559 108.904C95.559 108.588 95.5317 108.254 95.5761 107.926C95.6204 107.598 95.7352 107.284 95.9127 107.004C96.3813 106.327 97.052 106.426 97.7966 106.308C99.6131 106.019 101.415 105.654 103.201 105.213C106.745 104.334 110.21 103.159 113.558 101.702C115.46 100.881 117.318 99.966 119.133 98.9582Z" fill="#BBBDC8"/>
<path opacity="0.1" d="M119.832 101.333C121.524 100.396 123.167 99.369 124.897 98.5025C127.605 97.1481 130.642 96.0954 132.769 94.0318C132.879 93.9263 133.013 93.8506 133.16 93.8121C133.307 93.7736 133.461 93.7736 133.608 93.8119C133.755 93.8503 133.89 93.9257 133.999 94.0311C134.109 94.1365 134.189 94.2683 134.233 94.4137C135.148 97.3954 136.231 100.323 137.478 103.182C138.553 105.647 139.75 108.066 140.549 110.631C141.101 112.412 141.457 114.257 142.154 115.987C143.062 118.234 144.519 120.22 145.957 122.175C146.448 122.925 147.062 123.587 147.773 124.133C148.82 124.842 150.373 125.294 150.479 126.553C149.128 127.515 147.289 127.194 145.623 127.194C143.931 127.229 142.25 127.477 140.62 127.933C138.698 128.37 136.824 128.997 135.026 129.804C133.29 130.677 131.624 131.681 130.041 132.808L115.153 142.779C114.059 141.528 114.104 139.689 113.869 138.039C113.67 136.843 113.382 135.663 113.009 134.509L111.523 129.512C110.817 127.137 110.111 124.765 109.328 122.416C108.686 120.455 107.948 118.478 106.664 116.857C105.117 114.902 102.896 113.628 100.964 112.043C100.284 111.488 99.6067 110.846 99.3596 110.002C99.2749 109.726 99.2512 109.435 99.2899 109.149C99.3287 108.863 99.4291 108.589 99.5842 108.346C99.9918 107.752 100.579 107.839 101.227 107.736C102.813 107.486 104.384 107.165 105.942 106.773C109.034 106.008 112.056 104.984 114.976 103.711C116.635 102.997 118.253 102.204 119.832 101.333Z" fill="black"/>
<path d="M113.603 114.399C114.312 114.399 114.887 113.824 114.887 113.115C114.887 112.406 114.312 111.831 113.603 111.831C112.894 111.831 112.319 112.406 112.319 113.115C112.319 113.824 112.894 114.399 113.603 114.399Z" fill="#BBBDC8"/>
<path d="M127.291 108.06C128 108.06 128.575 107.485 128.575 106.776C128.575 106.067 128 105.493 127.291 105.493C126.582 105.493 126.007 106.067 126.007 106.776C126.007 107.485 126.582 108.06 127.291 108.06Z" fill="#BBBDC8"/>
<path d="M120.076 128.379C120.785 128.379 121.36 127.804 121.36 127.095C121.36 126.386 120.785 125.811 120.076 125.811C119.367 125.811 118.792 126.386 118.792 127.095C118.792 127.804 119.367 128.379 120.076 128.379Z" fill="#BBBDC8"/>
<path d="M133.764 122.04C134.473 122.04 135.048 121.465 135.048 120.756C135.048 120.047 134.473 119.473 133.764 119.473C133.055 119.473 132.481 120.047 132.481 120.756C132.481 121.465 133.055 122.04 133.764 122.04Z" fill="#BBBDC8"/>
<path d="M100.226 135.163C101.51 134.794 102.861 134.39 103.805 133.443C104.536 132.705 104.944 131.713 105.457 130.808C106.481 129.001 108.102 127.4 110.14 127.002C112.178 126.604 114.572 127.782 115.009 129.813C115.291 131.136 114.739 132.48 114.19 133.719C113.369 135.574 112.441 137.519 110.746 138.639C109.264 139.618 107.373 139.833 105.916 140.85C104.633 141.749 103.824 143.171 102.707 144.278C101.247 145.716 99.3157 146.577 97.2702 146.701C96.9597 146.738 96.6449 146.695 96.3556 146.576C96.0722 146.408 95.8342 146.173 95.6623 145.892C94.7188 144.609 93.7624 143.286 93.2617 141.768C91.519 136.476 96.4518 136.245 100.226 135.163Z" fill="#FBBEBE"/>
<path d="M134.419 135.869C133.986 133.283 133.928 130.462 132.33 128.382C130.991 126.646 128.767 125.766 126.578 125.619C125.937 125.574 125.182 125.638 124.81 126.164C124.598 126.536 124.514 126.966 124.569 127.39C124.705 130.677 125.931 133.826 128.055 136.338C128.854 137.275 129.781 138.129 130.34 139.227C130.828 140.173 131.007 141.255 131.46 142.218C132.051 143.473 133.065 144.464 133.841 145.62C134.943 147.275 135.513 149.226 135.478 151.214C136.325 149.83 136.223 148.1 136.303 146.48C136.409 144.198 138.007 142.949 136.971 141.088C135.934 139.227 134.795 138.132 134.419 135.869Z" fill="#FBBEBE"/>
<path opacity="0.1" d="M146.265 133.292C145.453 135.41 145.036 137.676 144.079 139.733C143.827 140.377 143.395 140.934 142.834 141.338C141.807 141.98 140.449 141.582 139.429 140.943C138.408 140.305 137.503 139.425 136.39 139.002C135.889 143.877 131.839 148.168 126.999 148.951C129.887 151.605 132.93 154.554 133.581 158.419C133.703 159.128 133.745 159.882 134.124 160.495C134.734 161.474 136.021 161.795 137.176 161.779C140.112 161.756 142.805 160.206 145.257 158.569C146.085 158.024 146.923 157.44 147.475 156.618C148.027 155.797 148.264 154.753 148.473 153.759C149.892 147.017 151.309 140.272 152.725 133.523C153.111 131.691 153.046 128.09 150.203 128.452C148.274 128.735 146.862 131.742 146.265 133.292Z" fill="black"/>
<path d="M146.907 133.292C146.095 135.41 145.678 137.676 144.721 139.733C144.469 140.377 144.037 140.934 143.476 141.338C142.449 141.98 141.091 141.582 140.071 140.943C139.05 140.305 138.145 139.425 137.031 139.002C136.531 143.877 132.481 148.168 127.641 148.951C130.529 151.605 133.572 154.554 134.223 158.419C134.345 159.128 134.387 159.882 134.766 160.495C135.375 161.474 136.662 161.795 137.818 161.779C140.754 161.756 143.447 160.206 145.899 158.569C146.727 158.024 147.565 157.44 148.117 156.618C148.669 155.797 148.906 154.753 149.115 153.759C150.533 147.017 151.951 140.272 153.367 133.523C153.752 131.691 153.688 128.09 150.845 128.452C148.916 128.735 147.504 131.742 146.907 133.292Z" fill="#F86D70"/>
<path d="M100.088 145.809C99.9726 146.396 99.3917 146.753 98.8653 147.035C97.848 147.584 96.7407 148.152 95.595 147.998C94.4492 147.844 93.4896 146.997 92.7386 146.098C92.3645 145.67 92.0414 145.201 91.7758 144.699C90.6172 142.41 90.492 132.673 95.2805 135.85C97.2574 137.166 96.1438 139.413 96.3909 141.348C96.499 142.496 96.9572 143.583 97.7036 144.461C97.848 144.628 100.014 146.188 100.088 145.809Z" fill="#F86D70"/>
<path d="M141.053 86.7529C148.94 86.7529 155.335 83.7354 155.335 80.0132C155.335 76.2909 148.94 73.2734 141.053 73.2734C133.165 73.2734 126.771 76.2909 126.771 80.0132C126.771 83.7354 133.165 86.7529 141.053 86.7529Z" fill="#025464"/>
<path opacity="0.1" d="M141.695 84.5063C133.966 84.5063 127.679 81.6178 127.426 77.9912C127.016 78.5865 126.792 79.2904 126.784 80.0131C126.784 83.736 133.177 86.7529 141.066 86.7529C148.954 86.7529 155.347 83.736 155.347 80.0131C155.347 79.9361 155.347 79.8623 155.347 79.7885C153.502 82.5229 148.091 84.5063 141.695 84.5063Z" fill="black"/>
<path d="M203.796 132.326C223.294 132.326 239.1 117.957 239.1 100.232C239.1 82.5071 223.294 68.1382 203.796 68.1382C184.299 68.1382 168.493 82.5071 168.493 100.232C168.493 117.957 184.299 132.326 203.796 132.326Z" fill="#025464"/>
<path opacity="0.1" d="M203.796 123.982C185.917 123.982 171.141 111.895 168.814 96.2205C168.602 97.6549 168.494 99.103 168.493 100.553C168.493 118.279 184.299 132.647 203.796 132.647C223.293 132.647 239.1 118.279 239.1 100.553C239.099 99.103 238.991 97.6549 238.779 96.2205C236.452 111.895 221.676 123.982 203.796 123.982Z" fill="black"/>
<path d="M203.155 124.303C212.549 124.303 220.164 114.029 220.164 101.356C220.164 88.6822 212.549 78.4084 203.155 78.4084C193.76 78.4084 186.145 88.6822 186.145 101.356C186.145 114.029 193.76 124.303 203.155 124.303Z" fill="#025464"/>
<path opacity="0.1" d="M203.155 124.303C212.549 124.303 220.164 114.029 220.164 101.356C220.164 88.6822 212.549 78.4084 203.155 78.4084C193.76 78.4084 186.145 88.6822 186.145 101.356C186.145 114.029 193.76 124.303 203.155 124.303Z" fill="black"/>
<path d="M195.333 112.987C194.691 114.572 193.408 116.257 191.482 116.379C194.05 118.487 196.649 120.618 199.717 122.156C202.785 123.693 206.419 124.595 209.91 124.043C212.375 123.655 214.615 122.573 216.708 121.389C220.27 119.373 223.768 116.725 224.67 113.137C221.996 113.272 219.315 113.221 216.647 112.987C215.264 112.868 213.848 112.685 212.648 112.082C211.911 111.693 211.26 111.16 210.732 110.515C210.205 109.87 209.812 109.126 209.577 108.327C209.098 106.812 209.108 105.217 209.195 103.647C209.243 102.733 209.278 101.722 208.575 101.022C207.872 100.322 206.711 100.229 205.655 100.207C203.531 100.164 201.407 100.289 199.303 100.582C198.2 100.697 197.106 100.895 196.033 101.176C194.64 101.6 194.772 101.436 195.109 102.601C196.155 106.17 196.794 109.379 195.333 112.987Z" fill="#A0616A"/>
<path opacity="0.1" d="M195.333 112.987C194.691 114.572 193.408 116.257 191.482 116.379C194.05 118.487 196.649 120.618 199.717 122.156C202.785 123.693 206.419 124.595 209.91 124.043C212.375 123.655 214.615 122.573 216.708 121.389C220.27 119.373 223.768 116.725 224.67 113.137C221.996 113.272 219.315 113.221 216.647 112.987C215.264 112.868 213.848 112.685 212.648 112.082C211.911 111.693 211.26 111.16 210.732 110.515C210.205 109.87 209.812 109.126 209.577 108.327C209.098 106.812 209.108 105.217 209.195 103.647C209.243 102.733 209.278 101.722 208.575 101.022C207.872 100.322 206.711 100.229 205.655 100.207C203.531 100.164 201.407 100.289 199.303 100.582C198.2 100.697 197.106 100.895 196.033 101.176C194.64 101.6 194.772 101.436 195.109 102.601C196.155 106.17 196.794 109.379 195.333 112.987Z" fill="black"/>
<path d="M202.673 109.7C211.004 109.7 217.757 102.947 217.757 94.6159C217.757 86.2851 211.004 79.5317 202.673 79.5317C194.342 79.5317 187.589 86.2851 187.589 94.6159C187.589 102.947 194.342 109.7 202.673 109.7Z" fill="#A0616A"/>
<path d="M197.474 114.315C196.489 113.134 195.474 111.927 194.162 111.125C192.012 109.806 189.348 109.723 186.828 109.681C184.097 109.633 181.129 109.658 178.969 111.33C178.006 112.085 177.268 113.118 176.565 114.132L167.415 127.291C167.059 127.804 166.683 128.385 166.773 129.005C166.875 129.45 167.097 129.86 167.415 130.189L177.479 142.757C178.054 143.472 178.648 144.227 178.84 145.125C179.033 146.024 178.795 146.968 178.487 147.84C177.271 151.303 174.957 154.58 175.169 158.229C175.319 160.611 176.565 162.799 178.089 164.648C181.587 168.862 186.623 171.603 191.89 173.098C197.156 174.594 202.686 174.921 208.164 174.957C218.492 175.024 229.346 173.898 237.877 168.072L231.173 161.756C229.847 160.505 228.457 159.157 227.998 157.392C227.678 156.204 227.832 154.952 227.976 153.736C228.246 151.512 228.515 149.272 229.234 147.154C231.234 141.252 236.372 137.05 239.799 131.848C240.229 131.206 240.647 130.468 240.599 129.688C240.56 129.03 240.194 128.443 239.838 127.891C238.272 125.461 236.648 123.045 235.512 120.387C234.664 118.41 234.09 116.308 233.04 114.431C231.991 112.553 230.325 110.865 228.226 110.47C225.524 109.963 222.889 111.655 220.145 111.77C218.136 111.857 216.04 111.103 214.163 111.818C211.935 112.669 210.953 115.178 209.705 117.216C208.784 118.734 206.037 122.887 203.883 121.867C202.712 121.308 201.637 119.299 200.796 118.314L197.474 114.315Z" fill="#F98A8D"/>
<path d="M209.49 124.518C208.982 124.231 208.391 124.125 207.815 124.216C207.53 124.271 207.271 124.418 207.079 124.635C206.887 124.853 206.772 125.127 206.752 125.416L205.825 125.362C205.718 125.351 205.609 125.356 205.504 125.378C205.37 125.407 205.253 125.488 205.178 125.603C205.104 125.718 205.079 125.859 205.107 125.993C205.136 126.127 205.217 126.244 205.333 126.318C205.448 126.392 205.588 126.418 205.722 126.389C205.267 126.569 204.861 126.855 204.538 127.223C204.296 127.587 204.207 128.032 204.291 128.462C204.375 128.891 204.625 129.269 204.987 129.515C205.367 129.733 205.813 129.805 206.242 129.718C206.671 129.63 207.053 129.389 207.317 129.04C207.263 129.232 207.278 129.436 207.361 129.618C207.443 129.799 207.587 129.946 207.766 130.032C209.506 130.972 210.392 129.695 210.629 128.215C210.899 126.591 211.245 125.384 209.49 124.518Z" fill="#FFE9B3"/>
<path opacity="0.15" d="M209.49 124.518C208.982 124.231 208.391 124.125 207.815 124.216C207.53 124.271 207.271 124.418 207.079 124.635C206.887 124.853 206.772 125.127 206.752 125.416L205.825 125.362C205.718 125.351 205.609 125.356 205.504 125.378C205.37 125.407 205.253 125.488 205.178 125.603C205.104 125.718 205.079 125.859 205.107 125.993C205.136 126.127 205.217 126.244 205.333 126.318C205.448 126.392 205.588 126.418 205.722 126.389C205.267 126.569 204.861 126.855 204.538 127.223C204.296 127.587 204.207 128.032 204.291 128.462C204.375 128.891 204.625 129.269 204.987 129.515C205.367 129.733 205.813 129.805 206.242 129.718C206.671 129.63 207.053 129.389 207.317 129.04C207.263 129.232 207.278 129.436 207.361 129.618C207.443 129.799 207.587 129.946 207.766 130.032C209.506 130.972 210.392 129.695 210.629 128.215C210.899 126.591 211.245 125.384 209.49 124.518Z" fill="black"/>
<path d="M214.227 123.427C213.719 123.14 213.128 123.034 212.552 123.128C212.267 123.182 212.009 123.328 211.817 123.545C211.625 123.762 211.511 124.036 211.493 124.325L210.565 124.271C210.458 124.26 210.35 124.265 210.244 124.287C210.119 124.326 210.012 124.411 209.945 124.524C209.878 124.637 209.856 124.771 209.881 124.9C209.916 125.027 209.996 125.137 210.107 125.207C210.218 125.278 210.352 125.305 210.482 125.282C210.027 125.463 209.621 125.749 209.297 126.116C209.056 126.48 208.968 126.925 209.052 127.354C209.136 127.783 209.386 128.161 209.747 128.408C210.126 128.626 210.573 128.699 211.002 128.612C211.432 128.525 211.815 128.285 212.08 127.936C212.026 128.127 212.041 128.331 212.122 128.512C212.204 128.692 212.347 128.839 212.526 128.924C214.269 129.868 215.151 128.603 215.392 127.111C215.639 125.5 215.992 124.293 214.227 123.427Z" fill="#FFE9B3"/>
<path d="M218.091 123.979C217.584 123.692 216.994 123.587 216.419 123.68C216.134 123.733 215.875 123.88 215.682 124.096C215.49 124.313 215.375 124.588 215.357 124.877L214.429 124.823C214.322 124.811 214.214 124.817 214.108 124.839C213.983 124.878 213.876 124.963 213.809 125.076C213.742 125.189 213.72 125.323 213.746 125.452C213.78 125.579 213.86 125.689 213.971 125.759C214.082 125.83 214.216 125.857 214.346 125.834C213.89 126.013 213.484 126.299 213.161 126.668C212.919 127.032 212.831 127.477 212.915 127.906C212.999 128.335 213.249 128.714 213.611 128.96C213.99 129.179 214.436 129.252 214.865 129.165C215.294 129.078 215.677 128.837 215.941 128.488C215.887 128.679 215.902 128.883 215.985 129.064C216.067 129.245 216.21 129.391 216.39 129.476C218.13 130.42 219.012 129.139 219.253 127.663C219.503 126.068 219.843 124.845 218.091 123.979Z" fill="#FFE9B3"/>
<path opacity="0.15" d="M218.091 123.979C217.584 123.692 216.994 123.587 216.419 123.68C216.134 123.733 215.875 123.88 215.682 124.096C215.49 124.313 215.375 124.588 215.357 124.877L214.429 124.823C214.322 124.811 214.214 124.817 214.108 124.839C213.983 124.878 213.876 124.963 213.809 125.076C213.742 125.189 213.72 125.323 213.746 125.452C213.78 125.579 213.86 125.689 213.971 125.759C214.082 125.83 214.216 125.857 214.346 125.834C213.89 126.013 213.484 126.299 213.161 126.668C212.919 127.032 212.831 127.477 212.915 127.906C212.999 128.335 213.249 128.714 213.611 128.96C213.99 129.179 214.436 129.252 214.865 129.165C215.294 129.078 215.677 128.837 215.941 128.488C215.887 128.679 215.902 128.883 215.985 129.064C216.067 129.245 216.21 129.391 216.39 129.476C218.13 130.42 219.012 129.139 219.253 127.663C219.503 126.068 219.843 124.845 218.091 123.979Z" fill="black"/>
<path d="M227.546 126.228V160.704C227.545 160.923 227.458 161.133 227.303 161.288C227.147 161.443 226.937 161.531 226.718 161.532H199.81C199.591 161.531 199.381 161.443 199.226 161.288C199.071 161.133 198.983 160.923 198.982 160.704V126.228C198.982 126.091 199.016 125.955 199.081 125.834C199.147 125.713 199.241 125.61 199.356 125.535C199.471 125.459 199.603 125.414 199.74 125.402C199.877 125.39 200.015 125.413 200.141 125.468C200.826 125.763 201.509 126.036 202.192 126.286C203.155 126.639 204.117 126.946 205.08 127.207C206.043 127.467 207.006 127.682 207.969 127.849C208.931 128.016 209.894 128.144 210.857 128.221C211.82 128.298 212.783 128.331 213.746 128.311C214.708 128.292 215.671 128.237 216.634 128.132C217.597 128.026 218.56 127.868 219.522 127.666C220.485 127.464 221.448 127.227 222.411 126.934C223.159 126.707 223.91 126.453 224.658 126.171C225.235 125.956 225.81 125.721 226.387 125.471C226.513 125.416 226.651 125.394 226.788 125.405C226.924 125.417 227.056 125.462 227.171 125.537C227.286 125.612 227.38 125.715 227.446 125.835C227.511 125.956 227.546 126.091 227.546 126.228Z" fill="#BBBDC8"/>
<path d="M205.08 127.207V161.548H202.192V126.286C203.155 126.639 204.117 126.946 205.08 127.207Z" fill="white"/>
<path d="M210.857 128.218V161.532H207.969V127.833C208.932 128.019 209.894 128.141 210.857 128.218Z" fill="white"/>
<path d="M216.634 128.128V161.532H213.746V128.315C214.708 128.297 215.671 128.235 216.634 128.128Z" fill="white"/>
<path d="M222.411 126.931V161.532H219.523V127.673C220.485 127.471 221.448 127.224 222.411 126.931Z" fill="white"/>
<path opacity="0.1" d="M227.546 126.228V160.704C227.545 160.923 227.458 161.133 227.303 161.288C227.147 161.443 226.937 161.531 226.718 161.532H224.658V126.167C225.235 125.952 225.81 125.718 226.387 125.468C226.514 125.413 226.651 125.39 226.788 125.402C226.925 125.414 227.057 125.459 227.172 125.535C227.287 125.61 227.382 125.713 227.447 125.834C227.512 125.955 227.546 126.091 227.546 126.228Z" fill="black"/>
<path d="M206.496 122.874C205.988 122.588 205.399 122.483 204.824 122.576C204.539 122.629 204.279 122.775 204.087 122.992C203.894 123.209 203.78 123.484 203.761 123.773L202.834 123.719C202.727 123.707 202.618 123.713 202.513 123.735C202.387 123.774 202.281 123.858 202.214 123.972C202.147 124.085 202.124 124.219 202.15 124.348C202.184 124.475 202.265 124.585 202.376 124.655C202.487 124.726 202.621 124.752 202.75 124.729C202.295 124.909 201.888 125.195 201.566 125.564C201.324 125.928 201.235 126.373 201.319 126.802C201.403 127.231 201.654 127.61 202.015 127.855C202.395 128.074 202.84 128.147 203.269 128.06C203.698 127.973 204.081 127.733 204.345 127.384C204.291 127.575 204.307 127.779 204.389 127.96C204.471 128.141 204.615 128.287 204.795 128.372C206.534 129.312 207.417 128.035 207.657 126.559C207.908 124.948 208.254 123.741 206.496 122.874Z" fill="#FFE9B3"/>
<path d="M211.31 117.419C210.802 117.132 210.213 117.027 209.638 117.12C209.353 117.173 209.093 117.32 208.901 117.536C208.709 117.753 208.594 118.028 208.575 118.317L207.648 118.263C207.541 118.251 207.432 118.257 207.327 118.279C207.201 118.318 207.095 118.403 207.028 118.516C206.961 118.629 206.938 118.763 206.964 118.892C206.998 119.019 207.079 119.129 207.19 119.199C207.301 119.27 207.435 119.297 207.564 119.274C207.109 119.453 206.703 119.739 206.38 120.108C206.138 120.472 206.049 120.917 206.133 121.346C206.218 121.775 206.468 122.154 206.829 122.4C207.209 122.618 207.655 122.691 208.084 122.604C208.513 122.517 208.895 122.277 209.159 121.928C209.105 122.119 209.121 122.323 209.203 122.504C209.285 122.685 209.429 122.831 209.609 122.916C211.348 123.857 212.231 122.579 212.471 121.103C212.722 119.492 213.068 118.285 211.31 117.419Z" fill="#FFE9B3"/>
<path d="M214.58 124.829C214.961 124.386 215.179 123.827 215.199 123.244C215.205 122.953 215.114 122.668 214.939 122.436C214.765 122.203 214.517 122.036 214.237 121.96L214.471 121.061C214.505 120.958 214.521 120.849 214.519 120.74C214.514 120.605 214.455 120.477 214.356 120.385C214.257 120.293 214.125 120.244 213.989 120.249C213.854 120.254 213.726 120.313 213.634 120.412C213.542 120.512 213.493 120.643 213.498 120.779C213.411 120.297 213.209 119.844 212.911 119.456C212.6 119.149 212.18 118.977 211.743 118.977C211.306 118.977 210.886 119.149 210.575 119.456C210.285 119.785 210.125 120.208 210.125 120.646C210.125 121.083 210.285 121.506 210.575 121.835C210.397 121.745 210.193 121.72 209.999 121.766C209.806 121.812 209.634 121.925 209.516 122.085C208.254 123.606 209.336 124.723 210.738 125.246C212.272 125.811 213.389 126.389 214.58 124.829Z" fill="#FFE9B3"/>
<path d="M218.752 124.829C219.133 124.386 219.351 123.827 219.372 123.244C219.377 122.953 219.286 122.668 219.111 122.436C218.937 122.203 218.69 122.036 218.409 121.96L218.643 121.061C218.677 120.958 218.693 120.849 218.691 120.74C218.686 120.605 218.627 120.477 218.528 120.385C218.429 120.293 218.297 120.244 218.162 120.249C218.026 120.254 217.899 120.313 217.806 120.412C217.714 120.512 217.666 120.643 217.671 120.779C217.583 120.297 217.382 119.844 217.083 119.456C216.772 119.149 216.352 118.977 215.915 118.977C215.478 118.977 215.058 119.149 214.747 119.456C214.457 119.785 214.297 120.208 214.297 120.646C214.297 121.083 214.457 121.506 214.747 121.835C214.569 121.745 214.365 121.72 214.172 121.766C213.978 121.812 213.806 121.925 213.688 122.085C212.427 123.606 213.508 124.723 214.911 125.246C216.445 125.811 217.562 126.389 218.752 124.829Z" fill="#FFE9B3"/>
<path d="M221.365 127.573C221.659 127.069 221.772 126.479 221.686 125.901C221.635 125.615 221.491 125.355 221.276 125.16C221.061 124.965 220.787 124.848 220.498 124.826L220.566 123.902C220.582 123.795 220.582 123.687 220.566 123.581C220.535 123.449 220.454 123.334 220.339 123.262C220.225 123.19 220.086 123.167 219.954 123.197C219.822 123.227 219.708 123.309 219.636 123.423C219.564 123.538 219.54 123.677 219.571 123.809C219.394 123.352 219.113 122.943 218.749 122.615C218.387 122.369 217.943 122.275 217.513 122.355C217.083 122.434 216.701 122.68 216.451 123.038C216.228 123.416 216.151 123.861 216.234 124.292C216.317 124.722 216.554 125.107 216.9 125.375C216.709 125.319 216.505 125.333 216.323 125.413C216.141 125.493 215.993 125.636 215.905 125.814C214.943 127.544 216.226 128.443 217.69 128.703C219.279 128.956 220.485 129.319 221.365 127.573Z" fill="#FFE9B3"/>
<path d="M208.527 122.438C208.821 121.933 208.934 121.344 208.848 120.766C208.798 120.48 208.654 120.22 208.439 120.025C208.224 119.83 207.95 119.713 207.661 119.691L207.728 118.766C207.744 118.66 207.744 118.552 207.728 118.445C207.698 118.314 207.616 118.199 207.502 118.127C207.387 118.055 207.249 118.032 207.117 118.062C206.985 118.092 206.87 118.174 206.798 118.288C206.726 118.403 206.703 118.541 206.733 118.673C206.557 118.216 206.275 117.807 205.912 117.479C205.55 117.234 205.106 117.14 204.676 117.219C204.245 117.299 203.864 117.544 203.614 117.903C203.391 118.28 203.314 118.726 203.396 119.156C203.479 119.587 203.716 119.972 204.063 120.24C203.872 120.184 203.667 120.197 203.485 120.278C203.303 120.358 203.155 120.5 203.068 120.679C202.105 122.409 203.389 123.308 204.852 123.568C206.441 123.821 207.648 124.184 208.527 122.438Z" fill="#FFE9B3"/>
<path d="M209.811 120.667C209.302 120.38 208.712 120.274 208.136 120.365C207.851 120.42 207.592 120.567 207.4 120.784C207.208 121.001 207.093 121.276 207.073 121.565L206.146 121.511C206.039 121.499 205.93 121.505 205.825 121.527C205.691 121.556 205.574 121.637 205.499 121.752C205.425 121.867 205.4 122.007 205.428 122.141C205.457 122.275 205.538 122.392 205.654 122.467C205.769 122.541 205.909 122.567 206.043 122.538C205.588 122.718 205.182 123.004 204.859 123.372C204.617 123.736 204.528 124.181 204.612 124.61C204.696 125.039 204.946 125.418 205.308 125.664C205.688 125.882 206.134 125.954 206.563 125.867C206.992 125.779 207.374 125.538 207.638 125.189C207.584 125.38 207.599 125.585 207.682 125.767C207.764 125.948 207.908 126.095 208.087 126.18C209.827 127.121 210.713 125.843 210.95 124.364C211.22 122.74 211.566 121.533 209.811 120.667Z" fill="#FFE9B3"/>
<path opacity="0.15" d="M209.811 120.667C209.302 120.38 208.712 120.274 208.136 120.365C207.851 120.42 207.592 120.567 207.4 120.784C207.208 121.001 207.093 121.276 207.073 121.565L206.146 121.511C206.039 121.499 205.93 121.505 205.825 121.527C205.691 121.556 205.574 121.637 205.499 121.752C205.425 121.867 205.4 122.007 205.428 122.141C205.457 122.275 205.538 122.392 205.654 122.467C205.769 122.541 205.909 122.567 206.043 122.538C205.588 122.718 205.182 123.004 204.859 123.372C204.617 123.736 204.528 124.181 204.612 124.61C204.696 125.039 204.946 125.418 205.308 125.664C205.688 125.882 206.134 125.954 206.563 125.867C206.992 125.779 207.374 125.538 207.638 125.189C207.584 125.38 207.599 125.585 207.682 125.767C207.764 125.948 207.908 126.095 208.087 126.18C209.827 127.121 210.713 125.843 210.95 124.364C211.22 122.74 211.566 121.533 209.811 120.667Z" fill="black"/>
<path d="M223.614 121.771C223.106 121.484 222.515 121.378 221.939 121.472C221.654 121.526 221.395 121.672 221.203 121.889C221.011 122.106 220.896 122.38 220.877 122.669L219.953 122.615C219.845 122.604 219.737 122.609 219.632 122.631C219.506 122.67 219.4 122.755 219.333 122.868C219.266 122.981 219.243 123.115 219.269 123.244C219.303 123.371 219.384 123.481 219.495 123.551C219.606 123.622 219.739 123.649 219.869 123.626C219.414 123.807 219.009 124.093 218.685 124.46C218.443 124.824 218.355 125.269 218.439 125.698C218.523 126.127 218.773 126.505 219.134 126.752C219.513 126.97 219.959 127.043 220.388 126.956C220.817 126.869 221.2 126.629 221.464 126.28C221.41 126.471 221.426 126.675 221.508 126.856C221.59 127.037 221.734 127.183 221.913 127.268C223.653 128.209 224.539 126.931 224.776 125.452C225.023 123.844 225.37 122.637 223.614 121.771Z" fill="#FFE9B3"/>
<path opacity="0.15" d="M223.614 121.771C223.106 121.484 222.515 121.378 221.939 121.472C221.654 121.526 221.395 121.672 221.203 121.889C221.011 122.106 220.896 122.38 220.877 122.669L219.953 122.615C219.845 122.604 219.737 122.609 219.632 122.631C219.506 122.67 219.4 122.755 219.333 122.868C219.266 122.981 219.243 123.115 219.269 123.244C219.303 123.371 219.384 123.481 219.495 123.551C219.606 123.622 219.739 123.649 219.869 123.626C219.414 123.807 219.009 124.093 218.685 124.46C218.443 124.824 218.355 125.269 218.439 125.698C218.523 126.127 218.773 126.505 219.134 126.752C219.513 126.97 219.959 127.043 220.388 126.956C220.817 126.869 221.2 126.629 221.464 126.28C221.41 126.471 221.426 126.675 221.508 126.856C221.59 127.037 221.734 127.183 221.913 127.268C223.653 128.209 224.539 126.931 224.776 125.452C225.023 123.844 225.37 122.637 223.614 121.771Z" fill="black"/>
<path d="M215.27 116.315C214.762 116.027 214.171 115.922 213.595 116.016C213.31 116.07 213.051 116.216 212.859 116.433C212.666 116.65 212.552 116.924 212.532 117.213L211.608 117.159C211.501 117.148 211.393 117.153 211.287 117.175C211.162 117.214 211.055 117.298 210.988 117.412C210.921 117.525 210.899 117.659 210.925 117.788C210.959 117.915 211.039 118.025 211.15 118.095C211.261 118.166 211.395 118.193 211.525 118.17C211.07 118.351 210.664 118.637 210.34 119.004C210.099 119.368 210.011 119.813 210.095 120.242C210.179 120.671 210.429 121.049 210.79 121.296C211.169 121.514 211.615 121.587 212.044 121.5C212.473 121.413 212.855 121.173 213.12 120.824C213.066 121.015 213.081 121.219 213.163 121.4C213.246 121.581 213.389 121.727 213.569 121.812C215.309 122.753 216.194 121.475 216.432 119.996C216.679 118.388 217.026 117.181 215.27 116.315Z" fill="#FFE9B3"/>
<path opacity="0.15" d="M215.27 116.315C214.762 116.027 214.171 115.922 213.595 116.016C213.31 116.07 213.051 116.216 212.859 116.433C212.666 116.65 212.552 116.924 212.532 117.213L211.608 117.159C211.501 117.148 211.393 117.153 211.287 117.175C211.162 117.214 211.055 117.298 210.988 117.412C210.921 117.525 210.899 117.659 210.925 117.788C210.959 117.915 211.039 118.025 211.15 118.095C211.261 118.166 211.395 118.193 211.525 118.17C211.07 118.351 210.664 118.637 210.34 119.004C210.099 119.368 210.011 119.813 210.095 120.242C210.179 120.671 210.429 121.049 210.79 121.296C211.169 121.514 211.615 121.587 212.044 121.5C212.473 121.413 212.855 121.173 213.12 120.824C213.066 121.015 213.081 121.219 213.163 121.4C213.246 121.581 213.389 121.727 213.569 121.812C215.309 122.753 216.194 121.475 216.432 119.996C216.679 118.388 217.026 117.181 215.27 116.315Z" fill="black"/>
<path d="M208.851 114.389C208.343 114.102 207.752 113.997 207.176 114.091C206.891 114.144 206.632 114.291 206.44 114.507C206.248 114.724 206.133 114.999 206.114 115.288L205.189 115.233C205.082 115.222 204.974 115.227 204.868 115.249C204.743 115.289 204.637 115.373 204.57 115.486C204.503 115.599 204.48 115.733 204.506 115.862C204.54 115.989 204.62 116.099 204.732 116.17C204.843 116.241 204.976 116.267 205.106 116.244C204.651 116.425 204.245 116.711 203.922 117.078C203.68 117.443 203.592 117.888 203.676 118.316C203.76 118.745 204.01 119.124 204.371 119.37C204.75 119.589 205.196 119.661 205.625 119.574C206.054 119.488 206.437 119.247 206.701 118.898C206.647 119.089 206.662 119.294 206.745 119.475C206.827 119.656 206.971 119.802 207.15 119.887C208.89 120.827 209.776 119.55 210.013 118.07C210.26 116.462 210.607 115.256 208.851 114.389Z" fill="#FFE9B3"/>
<path opacity="0.15" d="M208.851 114.389C208.343 114.102 207.752 113.997 207.176 114.091C206.891 114.144 206.632 114.291 206.44 114.507C206.248 114.724 206.133 114.999 206.114 115.288L205.189 115.233C205.082 115.222 204.974 115.227 204.868 115.249C204.743 115.289 204.637 115.373 204.57 115.486C204.503 115.599 204.48 115.733 204.506 115.862C204.54 115.989 204.62 116.099 204.732 116.17C204.843 116.241 204.976 116.267 205.106 116.244C204.651 116.425 204.245 116.711 203.922 117.078C203.68 117.443 203.592 117.888 203.676 118.316C203.76 118.745 204.01 119.124 204.371 119.37C204.75 119.589 205.196 119.661 205.625 119.574C206.054 119.488 206.437 119.247 206.701 118.898C206.647 119.089 206.662 119.294 206.745 119.475C206.827 119.656 206.971 119.802 207.15 119.887C208.89 120.827 209.776 119.55 210.013 118.07C210.26 116.462 210.607 115.256 208.851 114.389Z" fill="black"/>
<path d="M215.912 113.105C215.404 112.818 214.813 112.713 214.237 112.807C213.952 112.86 213.693 113.007 213.501 113.223C213.308 113.44 213.194 113.715 213.174 114.004L212.25 113.949C212.143 113.938 212.035 113.943 211.929 113.965C211.804 114.005 211.697 114.089 211.63 114.202C211.563 114.315 211.541 114.449 211.566 114.578C211.601 114.705 211.681 114.815 211.792 114.886C211.903 114.957 212.037 114.983 212.167 114.96C211.712 115.141 211.306 115.427 210.982 115.795C210.741 116.159 210.653 116.604 210.737 117.032C210.821 117.461 211.071 117.84 211.432 118.086C211.811 118.305 212.257 118.377 212.686 118.29C213.115 118.204 213.497 117.963 213.762 117.614C213.708 117.806 213.723 118.01 213.805 118.191C213.888 118.372 214.031 118.518 214.211 118.603C215.95 119.543 216.836 118.266 217.074 116.786C217.321 115.178 217.667 113.972 215.912 113.105Z" fill="#FFE9B3"/>
<path opacity="0.15" d="M215.912 113.105C215.404 112.818 214.813 112.713 214.237 112.807C213.952 112.86 213.693 113.007 213.501 113.223C213.308 113.44 213.194 113.715 213.174 114.004L212.25 113.949C212.143 113.938 212.035 113.943 211.929 113.965C211.804 114.005 211.697 114.089 211.63 114.202C211.563 114.315 211.541 114.449 211.566 114.578C211.601 114.705 211.681 114.815 211.792 114.886C211.903 114.957 212.037 114.983 212.167 114.96C211.712 115.141 211.306 115.427 210.982 115.795C210.741 116.159 210.653 116.604 210.737 117.032C210.821 117.461 211.071 117.84 211.432 118.086C211.811 118.305 212.257 118.377 212.686 118.29C213.115 118.204 213.497 117.963 213.762 117.614C213.708 117.806 213.723 118.01 213.805 118.191C213.888 118.372 214.031 118.518 214.211 118.603C215.95 119.543 216.836 118.266 217.074 116.786C217.321 115.178 217.667 113.972 215.912 113.105Z" fill="black"/>
<path d="M218.479 115.031C217.971 114.744 217.38 114.639 216.804 114.733C216.519 114.786 216.26 114.933 216.068 115.149C215.876 115.366 215.761 115.641 215.742 115.93L214.818 115.875C214.71 115.864 214.602 115.869 214.497 115.891C214.371 115.931 214.265 116.015 214.198 116.128C214.131 116.241 214.108 116.375 214.134 116.504C214.168 116.631 214.249 116.741 214.36 116.812C214.471 116.883 214.604 116.909 214.734 116.886C214.279 117.067 213.874 117.353 213.55 117.721C213.308 118.085 213.22 118.53 213.304 118.958C213.388 119.387 213.638 119.766 213.999 120.012C214.378 120.231 214.824 120.303 215.253 120.216C215.682 120.13 216.065 119.889 216.329 119.54C216.275 119.732 216.291 119.936 216.373 120.117C216.455 120.298 216.599 120.444 216.778 120.529C218.518 121.469 219.404 120.192 219.641 118.712C219.888 117.104 220.235 115.898 218.479 115.031Z" fill="#FFE9B3"/>
<path opacity="0.15" d="M218.479 115.031C217.971 114.744 217.38 114.639 216.804 114.733C216.519 114.786 216.26 114.933 216.068 115.149C215.876 115.366 215.761 115.641 215.742 115.93L214.818 115.875C214.71 115.864 214.602 115.869 214.497 115.891C214.371 115.931 214.265 116.015 214.198 116.128C214.131 116.241 214.108 116.375 214.134 116.504C214.168 116.631 214.249 116.741 214.36 116.812C214.471 116.883 214.604 116.909 214.734 116.886C214.279 117.067 213.874 117.353 213.55 117.721C213.308 118.085 213.22 118.53 213.304 118.958C213.388 119.387 213.638 119.766 213.999 120.012C214.378 120.231 214.824 120.303 215.253 120.216C215.682 120.13 216.065 119.889 216.329 119.54C216.275 119.732 216.291 119.936 216.373 120.117C216.455 120.298 216.599 120.444 216.778 120.529C218.518 121.469 219.404 120.192 219.641 118.712C219.888 117.104 220.235 115.898 218.479 115.031Z" fill="black"/>
<path d="M202.753 121.771C202.245 121.484 201.654 121.378 201.078 121.472C200.793 121.526 200.534 121.672 200.342 121.889C200.15 122.106 200.035 122.38 200.016 122.669L199.092 122.615C198.984 122.604 198.876 122.609 198.771 122.631C198.645 122.67 198.539 122.755 198.472 122.868C198.405 122.981 198.382 123.115 198.408 123.244C198.442 123.371 198.523 123.481 198.634 123.551C198.745 123.622 198.878 123.649 199.008 123.626C198.553 123.807 198.148 124.093 197.824 124.46C197.583 124.824 197.494 125.269 197.578 125.698C197.663 126.127 197.912 126.505 198.273 126.752C198.652 126.97 199.098 127.043 199.527 126.956C199.956 126.869 200.339 126.629 200.603 126.28C200.549 126.471 200.565 126.675 200.647 126.856C200.729 127.037 200.873 127.183 201.052 127.268C202.792 128.209 203.678 126.931 203.915 125.452C204.162 123.844 204.509 122.637 202.753 121.771Z" fill="#FFE9B3"/>
<path opacity="0.15" d="M202.753 121.771C202.245 121.484 201.654 121.378 201.078 121.472C200.793 121.526 200.534 121.672 200.342 121.889C200.15 122.106 200.035 122.38 200.016 122.669L199.092 122.615C198.984 122.604 198.876 122.609 198.771 122.631C198.645 122.67 198.539 122.755 198.472 122.868C198.405 122.981 198.382 123.115 198.408 123.244C198.442 123.371 198.523 123.481 198.634 123.551C198.745 123.622 198.878 123.649 199.008 123.626C198.553 123.807 198.148 124.093 197.824 124.46C197.583 124.824 197.494 125.269 197.578 125.698C197.663 126.127 197.912 126.505 198.273 126.752C198.652 126.97 199.098 127.043 199.527 126.956C199.956 126.869 200.339 126.629 200.603 126.28C200.549 126.471 200.565 126.675 200.647 126.856C200.729 127.037 200.873 127.183 201.052 127.268C202.792 128.209 203.678 126.931 203.915 125.452C204.162 123.844 204.509 122.637 202.753 121.771Z" fill="black"/>
<path d="M221.368 117.277C220.86 116.99 220.269 116.885 219.693 116.979C219.408 117.032 219.149 117.179 218.957 117.396C218.764 117.612 218.65 117.887 218.63 118.176L217.706 118.121C217.599 118.11 217.491 118.116 217.385 118.138C217.26 118.177 217.153 118.261 217.086 118.375C217.019 118.488 216.997 118.622 217.022 118.751C217.057 118.878 217.137 118.988 217.248 119.058C217.359 119.129 217.493 119.155 217.623 119.132C217.168 119.314 216.762 119.6 216.438 119.967C216.197 120.331 216.109 120.776 216.193 121.205C216.277 121.634 216.527 122.012 216.888 122.258C217.267 122.477 217.713 122.55 218.142 122.463C218.571 122.376 218.953 122.136 219.218 121.787C219.164 121.978 219.179 122.182 219.261 122.363C219.344 122.544 219.487 122.69 219.667 122.775C221.406 123.715 222.292 122.438 222.53 120.959C222.777 119.351 223.123 118.144 221.368 117.277Z" fill="#FFE9B3"/>
<path opacity="0.15" d="M221.368 117.277C220.86 116.99 220.269 116.885 219.693 116.979C219.408 117.032 219.149 117.179 218.957 117.396C218.764 117.612 218.65 117.887 218.63 118.176L217.706 118.121C217.599 118.11 217.491 118.116 217.385 118.138C217.26 118.177 217.153 118.261 217.086 118.375C217.019 118.488 216.997 118.622 217.022 118.751C217.057 118.878 217.137 118.988 217.248 119.058C217.359 119.129 217.493 119.155 217.623 119.132C217.168 119.314 216.762 119.6 216.438 119.967C216.197 120.331 216.109 120.776 216.193 121.205C216.277 121.634 216.527 122.012 216.888 122.258C217.267 122.477 217.713 122.55 218.142 122.463C218.571 122.376 218.953 122.136 219.218 121.787C219.164 121.978 219.179 122.182 219.261 122.363C219.344 122.544 219.487 122.69 219.667 122.775C221.406 123.715 222.292 122.438 222.53 120.959C222.777 119.351 223.123 118.144 221.368 117.277Z" fill="black"/>
<path d="M227.466 120.487C226.957 120.2 226.367 120.095 225.79 120.188C225.506 120.242 225.247 120.389 225.054 120.605C224.862 120.822 224.747 121.096 224.728 121.386L223.804 121.331C223.697 121.32 223.588 121.325 223.483 121.347C223.357 121.386 223.251 121.471 223.184 121.584C223.117 121.697 223.094 121.831 223.12 121.96C223.154 122.087 223.235 122.197 223.346 122.268C223.457 122.338 223.591 122.365 223.72 122.342C223.266 122.523 222.86 122.809 222.536 123.176C222.295 123.541 222.207 123.985 222.291 124.414C222.375 124.843 222.624 125.222 222.985 125.468C223.365 125.686 223.811 125.759 224.24 125.672C224.669 125.585 225.051 125.345 225.315 124.996C225.261 125.187 225.277 125.392 225.359 125.573C225.441 125.754 225.585 125.9 225.765 125.985C227.504 126.925 228.39 125.648 228.628 124.168C228.875 122.56 229.221 121.353 227.466 120.487Z" fill="#FFE9B3"/>
<path opacity="0.15" d="M227.466 120.487C226.957 120.2 226.367 120.095 225.79 120.188C225.506 120.242 225.247 120.389 225.054 120.605C224.862 120.822 224.747 121.096 224.728 121.386L223.804 121.331C223.697 121.32 223.588 121.325 223.483 121.347C223.357 121.386 223.251 121.471 223.184 121.584C223.117 121.697 223.094 121.831 223.12 121.96C223.154 122.087 223.235 122.197 223.346 122.268C223.457 122.338 223.591 122.365 223.72 122.342C223.266 122.523 222.86 122.809 222.536 123.176C222.295 123.541 222.207 123.985 222.291 124.414C222.375 124.843 222.624 125.222 222.985 125.468C223.365 125.686 223.811 125.759 224.24 125.672C224.669 125.585 225.051 125.345 225.315 124.996C225.261 125.187 225.277 125.392 225.359 125.573C225.441 125.754 225.585 125.9 225.765 125.985C227.504 126.925 228.39 125.648 228.628 124.168C228.875 122.56 229.221 121.353 227.466 120.487Z" fill="black"/>
<path d="M222.331 113.426C221.822 113.139 221.232 113.034 220.655 113.128C220.371 113.181 220.112 113.328 219.919 113.544C219.727 113.761 219.612 114.036 219.593 114.325L218.669 114.27C218.562 114.259 218.453 114.264 218.348 114.286C218.222 114.326 218.116 114.41 218.049 114.523C217.982 114.636 217.959 114.77 217.985 114.899C218.019 115.026 218.1 115.136 218.211 115.207C218.322 115.278 218.456 115.304 218.585 115.281C218.13 115.462 217.725 115.748 217.401 116.116C217.16 116.48 217.072 116.925 217.156 117.354C217.24 117.782 217.489 118.161 217.85 118.407C218.23 118.626 218.676 118.698 219.105 118.611C219.534 118.525 219.916 118.284 220.18 117.935C220.126 118.127 220.142 118.331 220.224 118.512C220.306 118.693 220.45 118.839 220.63 118.924C222.369 119.864 223.255 118.587 223.492 117.107C223.74 115.499 224.086 114.293 222.331 113.426Z" fill="#FFE9B3"/>
<path opacity="0.15" d="M222.331 113.426C221.822 113.139 221.232 113.034 220.655 113.128C220.371 113.181 220.112 113.328 219.919 113.544C219.727 113.761 219.612 114.036 219.593 114.325L218.669 114.27C218.562 114.259 218.453 114.264 218.348 114.286C218.222 114.326 218.116 114.41 218.049 114.523C217.982 114.636 217.959 114.77 217.985 114.899C218.019 115.026 218.1 115.136 218.211 115.207C218.322 115.278 218.456 115.304 218.585 115.281C218.13 115.462 217.725 115.748 217.401 116.116C217.16 116.48 217.072 116.925 217.156 117.354C217.24 117.782 217.489 118.161 217.85 118.407C218.23 118.626 218.676 118.698 219.105 118.611C219.534 118.525 219.916 118.284 220.18 117.935C220.126 118.127 220.142 118.331 220.224 118.512C220.306 118.693 220.45 118.839 220.63 118.924C222.369 119.864 223.255 118.587 223.492 117.107C223.74 115.499 224.086 114.293 222.331 113.426Z" fill="black"/>
<path d="M226.821 121.154C227.115 120.65 227.228 120.06 227.142 119.482C227.091 119.197 226.947 118.936 226.732 118.741C226.517 118.547 226.243 118.429 225.954 118.407L226.022 117.483C226.038 117.376 226.038 117.268 226.022 117.162C226.007 117.096 225.979 117.035 225.94 116.98C225.901 116.925 225.852 116.879 225.795 116.843C225.738 116.808 225.675 116.784 225.609 116.773C225.543 116.761 225.475 116.763 225.41 116.778C225.345 116.793 225.283 116.821 225.228 116.86C225.174 116.899 225.127 116.948 225.092 117.005C225.056 117.061 225.032 117.125 225.021 117.191C225.01 117.257 225.012 117.324 225.027 117.39C224.85 116.933 224.569 116.524 224.205 116.196C223.843 115.95 223.399 115.856 222.969 115.936C222.539 116.015 222.157 116.261 221.907 116.619C221.684 116.997 221.607 117.442 221.69 117.873C221.773 118.303 222.01 118.688 222.356 118.956C222.165 118.9 221.961 118.914 221.779 118.994C221.597 119.074 221.449 119.217 221.361 119.396C220.399 121.125 221.682 122.024 223.146 122.284C224.735 122.538 225.941 122.9 226.821 121.154Z" fill="#FFE9B3"/>
<path d="M226.821 116.019C227.115 115.515 227.228 114.925 227.142 114.347C227.091 114.062 226.947 113.801 226.732 113.606C226.517 113.412 226.243 113.294 225.954 113.272L226.022 112.348C226.038 112.242 226.038 112.133 226.022 112.027C225.991 111.895 225.91 111.781 225.795 111.709C225.681 111.637 225.542 111.613 225.41 111.643C225.278 111.674 225.164 111.755 225.092 111.87C225.02 111.984 224.996 112.123 225.027 112.255C224.85 111.798 224.569 111.389 224.205 111.061C223.843 110.815 223.399 110.722 222.969 110.801C222.539 110.88 222.157 111.126 221.907 111.485C221.684 111.862 221.607 112.308 221.69 112.738C221.773 113.168 222.01 113.553 222.356 113.821C222.165 113.765 221.961 113.779 221.779 113.859C221.597 113.94 221.449 114.082 221.361 114.261C220.399 115.991 221.682 116.889 223.146 117.149C224.735 117.403 225.941 117.765 226.821 116.019Z" fill="#FFE9B3"/>
<path d="M221.365 122.759C221.659 122.254 221.772 121.665 221.686 121.087C221.635 120.801 221.491 120.541 221.276 120.346C221.061 120.151 220.787 120.034 220.498 120.012L220.566 119.087C220.582 118.981 220.582 118.873 220.566 118.767C220.535 118.635 220.454 118.52 220.339 118.448C220.225 118.376 220.086 118.353 219.954 118.383C219.822 118.413 219.708 118.495 219.636 118.609C219.564 118.724 219.54 118.862 219.571 118.994C219.394 118.537 219.113 118.129 218.749 117.8C218.387 117.555 217.943 117.461 217.513 117.54C217.083 117.62 216.701 117.865 216.451 118.224C216.228 118.601 216.151 119.047 216.234 119.477C216.317 119.908 216.554 120.293 216.9 120.561C216.709 120.505 216.505 120.518 216.323 120.599C216.141 120.679 215.993 120.821 215.905 121C214.943 122.73 216.226 123.629 217.69 123.889C219.279 124.142 220.485 124.505 221.365 122.759Z" fill="#FFE9B3"/>
<path d="M227.463 128.536C227.757 128.031 227.87 127.442 227.784 126.864C227.733 126.578 227.589 126.318 227.374 126.123C227.159 125.928 226.885 125.811 226.596 125.789L226.663 124.865C226.68 124.758 226.68 124.65 226.663 124.544C226.633 124.412 226.552 124.297 226.437 124.225C226.323 124.153 226.184 124.13 226.052 124.16C225.92 124.19 225.806 124.272 225.734 124.386C225.662 124.501 225.638 124.64 225.669 124.771C225.492 124.315 225.211 123.906 224.847 123.578C224.485 123.332 224.041 123.238 223.611 123.318C223.181 123.397 222.799 123.643 222.549 124.001C222.326 124.379 222.249 124.824 222.332 125.254C222.414 125.685 222.652 126.07 222.998 126.338C222.807 126.282 222.603 126.295 222.421 126.376C222.239 126.456 222.091 126.599 222.003 126.777C221.041 128.507 222.324 129.406 223.788 129.666C225.376 129.919 226.583 130.282 227.463 128.536Z" fill="#FFE9B3"/>
<path d="M215.909 130.782C216.203 130.278 216.316 129.688 216.23 129.11C216.179 128.825 216.035 128.564 215.82 128.369C215.605 128.175 215.331 128.057 215.042 128.035L215.11 127.111C215.126 127.005 215.126 126.896 215.11 126.79C215.079 126.658 214.998 126.543 214.883 126.472C214.769 126.4 214.63 126.376 214.498 126.406C214.366 126.437 214.252 126.518 214.18 126.633C214.108 126.747 214.084 126.886 214.115 127.018C213.938 126.561 213.657 126.152 213.293 125.824C212.931 125.578 212.487 125.485 212.057 125.564C211.627 125.643 211.245 125.889 210.995 126.248C210.772 126.625 210.695 127.071 210.778 127.501C210.861 127.931 211.098 128.316 211.444 128.584C211.253 128.528 211.049 128.542 210.867 128.622C210.685 128.703 210.537 128.845 210.45 129.024C209.487 130.754 210.771 131.652 212.234 131.912C213.823 132.166 215.029 132.528 215.909 130.782Z" fill="#FFE9B3"/>
<path d="M213.341 117.624C213.635 117.119 213.748 116.53 213.662 115.952C213.612 115.666 213.468 115.406 213.253 115.211C213.038 115.016 212.764 114.899 212.475 114.877L212.542 113.952C212.558 113.846 212.558 113.738 212.542 113.631C212.512 113.5 212.43 113.385 212.316 113.313C212.201 113.241 212.063 113.218 211.931 113.248C211.799 113.278 211.684 113.36 211.612 113.474C211.54 113.589 211.517 113.727 211.547 113.859C211.371 113.402 211.089 112.993 210.726 112.665C210.364 112.42 209.92 112.326 209.49 112.405C209.059 112.485 208.678 112.73 208.428 113.089C208.205 113.466 208.128 113.912 208.21 114.342C208.293 114.773 208.53 115.158 208.877 115.426C208.686 115.37 208.481 115.383 208.299 115.464C208.117 115.544 207.969 115.686 207.882 115.865C206.919 117.595 208.203 118.494 209.666 118.754C211.255 119.007 212.462 119.37 213.341 117.624Z" fill="#FFE9B3"/>
<path d="M220.081 116.019C220.375 115.515 220.488 114.925 220.402 114.347C220.351 114.062 220.207 113.801 219.992 113.606C219.777 113.412 219.504 113.294 219.214 113.272L219.282 112.348C219.298 112.242 219.298 112.133 219.282 112.027C219.252 111.895 219.17 111.781 219.056 111.709C218.941 111.637 218.802 111.613 218.67 111.643C218.539 111.674 218.424 111.755 218.352 111.87C218.28 111.984 218.257 112.123 218.287 112.255C218.11 111.798 217.829 111.389 217.465 111.061C217.104 110.815 216.66 110.722 216.229 110.801C215.799 110.88 215.418 111.126 215.167 111.485C214.945 111.862 214.867 112.308 214.95 112.738C215.033 113.168 215.27 113.553 215.617 113.821C215.426 113.765 215.221 113.779 215.039 113.859C214.857 113.94 214.709 114.082 214.622 114.261C213.659 115.991 214.943 116.889 216.406 117.149C217.995 117.403 219.202 117.765 220.081 116.019Z" fill="#FFE9B3"/>
<path d="M206.601 122.117C206.896 121.613 207.009 121.023 206.922 120.445C206.872 120.159 206.728 119.899 206.513 119.704C206.298 119.509 206.024 119.392 205.735 119.37L205.802 118.446C205.819 118.339 205.819 118.231 205.802 118.125C205.772 117.993 205.691 117.878 205.576 117.806C205.461 117.734 205.323 117.711 205.191 117.741C205.059 117.771 204.945 117.853 204.873 117.967C204.801 118.082 204.777 118.221 204.807 118.353C204.631 117.896 204.35 117.487 203.986 117.159C203.624 116.913 203.18 116.819 202.75 116.899C202.32 116.978 201.938 117.224 201.688 117.582C201.465 117.96 201.388 118.405 201.471 118.835C201.553 119.266 201.79 119.651 202.137 119.919C201.946 119.863 201.742 119.876 201.56 119.957C201.377 120.037 201.23 120.18 201.142 120.358C200.179 122.088 201.463 122.987 202.927 123.247C204.515 123.5 205.722 123.863 206.601 122.117Z" fill="#FFE9B3"/>
<path d="M201.489 136.839C203.158 136.704 204.804 136.277 206.479 136.299C208.671 136.328 210.78 137.121 212.776 138.026C213.363 138.252 213.901 138.588 214.362 139.014C214.691 139.394 214.93 139.842 215.063 140.327C215.195 140.811 215.216 141.319 215.126 141.813C214.938 142.801 214.546 143.738 213.977 144.567C213.392 145.494 212.67 146.409 211.653 146.813C211.084 147.01 210.487 147.113 209.885 147.118C207.372 147.256 204.811 147.118 202.426 146.313C201.203 145.895 200.045 145.311 198.848 144.817C195.032 143.238 190.904 142.615 186.851 141.819C186.645 141.795 186.448 141.719 186.28 141.598C185.435 140.87 187.268 138.244 187.698 137.509C188.423 136.261 189.081 136.126 190.551 136.091C194.223 135.998 197.808 137.066 201.489 136.839Z" fill="#A0616A"/>
<path d="M230.043 145.719C228.881 145.148 227.838 144.358 226.686 143.764C225.235 143.018 223.64 142.594 222.01 142.522C220.954 142.474 219.805 142.615 219.038 143.344C217.943 144.384 218.075 146.152 218.434 147.619C218.98 149.817 220.078 152.144 222.186 152.975C223.015 153.253 223.88 153.401 224.754 153.415C228.66 153.685 232.726 153.929 236.346 152.452C236.611 152.37 236.839 152.196 236.988 151.961C237.145 151.64 236.988 151.255 236.828 150.931C236.25 149.769 235.335 147.333 234.218 146.608C233.178 145.912 231.339 146.354 230.043 145.719Z" fill="#A0616A"/>
<path opacity="0.1" d="M239.222 128.241C241.361 131.635 243.12 135.254 244.466 139.034C244.842 139.963 245.059 140.95 245.108 141.951C245.108 143.065 244.719 144.143 244.312 145.196C243.013 148.564 241.506 151.848 239.799 155.029C239.286 155.992 238.699 156.997 237.681 157.526C236.613 158.085 235.297 157.998 234.074 157.847C231.01 157.512 227.971 156.974 224.978 156.236C226.862 156.297 228.563 154.885 229.433 153.348C230.303 151.81 230.495 150.052 230.64 148.335C230.772 147.41 230.733 146.469 230.524 145.559C230.402 145.089 230.169 144.655 229.844 144.295C229.519 143.934 229.111 143.658 228.656 143.488C228.57 142.651 229.369 141.948 230.194 141.563C231.019 141.178 231.956 140.963 232.626 140.385C233.615 139.538 233.756 138.122 233.432 136.922C233.108 135.722 232.402 134.637 231.901 133.485C231.198 131.88 234.825 130.192 234.969 128.459C235.001 128.067 234.725 128.78 234.969 128.459C235.213 128.138 236.728 129.252 237.071 129.101C239.328 128.125 237.973 126.257 239.222 128.241Z" fill="black"/>
<path d="M239.921 128.241C242.06 131.635 243.82 135.255 245.169 139.034C245.547 139.963 245.764 140.949 245.811 141.951C245.811 143.065 245.422 144.143 245.018 145.196C243.718 148.564 242.211 151.848 240.505 155.03C239.992 155.992 239.405 156.997 238.387 157.526C237.319 158.085 235.999 157.998 234.78 157.847C231.715 157.513 228.675 156.975 225.681 156.236C227.562 156.297 229.266 154.885 230.133 153.348C230.999 151.811 231.198 150.052 231.343 148.335C231.473 147.41 231.434 146.469 231.227 145.559C231.104 145.089 230.871 144.656 230.545 144.296C230.22 143.936 229.814 143.659 229.359 143.489C229.269 142.651 230.072 141.948 230.897 141.563C231.721 141.178 232.659 140.963 233.329 140.385C234.315 139.538 234.456 138.122 234.132 136.922C233.807 135.722 233.101 134.637 232.601 133.485C231.9 131.878 231.607 130.123 231.747 128.376C231.754 127.976 231.872 127.586 232.087 127.249C232.326 126.963 232.635 126.742 232.983 126.607C235.248 125.644 238.673 126.257 239.921 128.241Z" fill="#F98A8D"/>
<path opacity="0.1" d="M171.317 125.057C169.234 126.983 167.084 129.017 166.07 131.672C165.518 133.119 165.335 134.679 165.155 136.219C164.854 138.845 164.581 141.656 165.797 143.999C167.145 146.566 169.969 147.943 172.62 149.108C173.537 149.539 174.487 149.895 175.461 150.174C176.736 150.459 178.037 150.618 179.344 150.649L192.724 151.393C190.978 149.634 189.861 146.881 190.099 144.413C190.314 142.208 191.382 140.186 192.458 138.257C193.016 137.262 193.648 136.216 194.679 135.725C190.319 134.762 185.837 134.48 181.392 134.891C181.093 134.916 180.75 134.926 180.554 134.688C180.456 134.539 180.411 134.362 180.426 134.184C180.426 132.191 181.915 130.535 182.531 128.642C183.516 125.606 180.162 127.271 177.146 126.228C174.129 125.185 171.934 121.925 171.317 125.057Z" fill="black"/>
<path d="M170.355 125.057C168.272 126.983 166.121 129.017 165.107 131.672C164.555 133.119 164.372 134.679 164.193 136.219C163.891 138.845 163.618 141.656 164.834 143.999C166.182 146.566 169.007 147.943 171.658 149.108C172.574 149.539 173.524 149.895 174.498 150.174C175.774 150.459 177.074 150.618 178.381 150.649L191.761 151.393C190.015 149.635 188.898 146.881 189.136 144.413C189.351 142.208 190.42 140.186 191.495 138.257C192.053 137.262 192.686 136.216 193.716 135.725C189.357 134.762 184.874 134.48 180.429 134.891C180.13 134.916 179.787 134.926 179.591 134.688C179.494 134.539 179.448 134.362 179.463 134.185C179.463 132.192 180.952 130.536 181.568 128.642C182.553 125.606 180.84 121.902 177.82 120.853C174.8 119.803 170.971 121.925 170.355 125.057Z" fill="#F98A8D"/>
<path d="M203.957 90.604C212.908 90.604 220.164 87.5865 220.164 83.8642C220.164 80.142 212.908 77.1245 203.957 77.1245C195.006 77.1245 187.75 80.142 187.75 83.8642C187.75 87.5865 195.006 90.604 203.957 90.604Z" fill="#025464"/>
<path opacity="0.1" d="M203.636 87.7157C195.879 87.7157 189.396 85.4466 187.804 82.4202C187.563 82.8636 187.434 83.3595 187.429 83.8644C187.429 87.5873 194.685 90.6041 203.636 90.6041C212.587 90.6041 219.843 87.5873 219.843 83.8644C219.838 83.3595 219.709 82.8636 219.468 82.4202C217.876 85.4466 211.393 87.7157 203.636 87.7157Z" fill="black"/>
<path d="M225.54 88.3929C225.032 88.1059 224.441 88.0006 223.865 88.0944C223.58 88.1479 223.321 88.2945 223.129 88.5112C222.936 88.7279 222.822 89.0024 222.802 89.2915L221.878 89.237C221.771 89.2259 221.663 89.2313 221.557 89.253C221.432 89.2924 221.325 89.3769 221.258 89.49C221.191 89.6032 221.169 89.7371 221.195 89.866C221.229 89.9932 221.309 90.103 221.42 90.1737C221.531 90.2444 221.665 90.2709 221.795 90.2479C221.34 90.4292 220.934 90.7151 220.61 91.0824C220.369 91.4467 220.281 91.8914 220.365 92.3203C220.449 92.7492 220.699 93.1277 221.06 93.3739C221.439 93.5925 221.885 93.6651 222.314 93.5783C222.743 93.4914 223.125 93.251 223.39 92.9021C223.336 93.0934 223.351 93.2976 223.434 93.4786C223.516 93.6596 223.659 93.8055 223.839 93.8906C225.579 94.831 226.464 93.5536 226.702 92.0741C226.949 90.4662 227.296 89.2594 225.54 88.3929Z" fill="#FFE9B3"/>
<path opacity="0.15" d="M225.54 88.3929C225.032 88.1059 224.441 88.0006 223.865 88.0944C223.58 88.1479 223.321 88.2945 223.129 88.5112C222.936 88.7279 222.822 89.0024 222.802 89.2915L221.878 89.237C221.771 89.2259 221.663 89.2313 221.557 89.253C221.432 89.2924 221.325 89.3769 221.258 89.49C221.191 89.6032 221.169 89.7371 221.195 89.866C221.229 89.9932 221.309 90.103 221.42 90.1737C221.531 90.2444 221.665 90.2709 221.795 90.2479C221.34 90.4292 220.934 90.7151 220.61 91.0824C220.369 91.4467 220.281 91.8914 220.365 92.3203C220.449 92.7492 220.699 93.1277 221.06 93.3739C221.439 93.5925 221.885 93.6651 222.314 93.5783C222.743 93.4914 223.125 93.251 223.39 92.9021C223.336 93.0934 223.351 93.2976 223.434 93.4786C223.516 93.6596 223.659 93.8055 223.839 93.8906C225.579 94.831 226.464 93.5536 226.702 92.0741C226.949 90.4662 227.296 89.2594 225.54 88.3929Z" fill="black"/>
<path d="M240.945 112.784C240.437 112.497 239.846 112.392 239.27 112.486C238.985 112.539 238.726 112.686 238.534 112.903C238.342 113.119 238.227 113.394 238.208 113.683L237.283 113.628C237.176 113.617 237.068 113.623 236.962 113.644C236.837 113.684 236.73 113.768 236.664 113.881C236.597 113.995 236.574 114.128 236.6 114.257C236.634 114.385 236.714 114.494 236.825 114.565C236.937 114.636 237.07 114.662 237.2 114.639C236.745 114.821 236.339 115.106 236.016 115.474C235.774 115.838 235.686 116.283 235.77 116.712C235.854 117.141 236.104 117.519 236.465 117.765C236.844 117.984 237.29 118.056 237.719 117.97C238.148 117.883 238.531 117.642 238.795 117.293C238.741 117.485 238.756 117.689 238.839 117.87C238.921 118.051 239.065 118.197 239.244 118.282C240.984 119.222 241.869 117.945 242.107 116.465C242.354 114.858 242.701 113.651 240.945 112.784Z" fill="#FFE9B3"/>
<path opacity="0.15" d="M240.945 112.784C240.437 112.497 239.846 112.392 239.27 112.486C238.985 112.539 238.726 112.686 238.534 112.903C238.342 113.119 238.227 113.394 238.208 113.683L237.283 113.628C237.176 113.617 237.068 113.623 236.962 113.644C236.837 113.684 236.73 113.768 236.664 113.881C236.597 113.995 236.574 114.128 236.6 114.257C236.634 114.385 236.714 114.494 236.825 114.565C236.937 114.636 237.07 114.662 237.2 114.639C236.745 114.821 236.339 115.106 236.016 115.474C235.774 115.838 235.686 116.283 235.77 116.712C235.854 117.141 236.104 117.519 236.465 117.765C236.844 117.984 237.29 118.056 237.719 117.97C238.148 117.883 238.531 117.642 238.795 117.293C238.741 117.485 238.756 117.689 238.839 117.87C238.921 118.051 239.065 118.197 239.244 118.282C240.984 119.222 241.869 117.945 242.107 116.465C242.354 114.858 242.701 113.651 240.945 112.784Z" fill="black"/>
<path d="M258.918 138.78C258.409 138.493 257.819 138.388 257.242 138.482C256.958 138.535 256.699 138.682 256.506 138.899C256.314 139.115 256.199 139.39 256.18 139.679L255.256 139.624C255.149 139.613 255.04 139.619 254.935 139.64C254.809 139.68 254.703 139.764 254.636 139.877C254.569 139.991 254.546 140.125 254.572 140.253C254.606 140.381 254.687 140.49 254.798 140.561C254.909 140.632 255.043 140.658 255.172 140.635C254.718 140.817 254.312 141.103 253.988 141.47C253.747 141.834 253.659 142.279 253.743 142.708C253.827 143.137 254.076 143.515 254.437 143.761C254.817 143.98 255.263 144.053 255.692 143.966C256.121 143.879 256.503 143.638 256.767 143.29C256.713 143.481 256.729 143.685 256.811 143.866C256.893 144.047 257.037 144.193 257.217 144.278C258.956 145.218 259.842 143.941 260.08 142.462C260.327 140.854 260.673 139.647 258.918 138.78Z" fill="#FFE9B3"/>
<path opacity="0.15" d="M258.918 138.78C258.409 138.493 257.819 138.388 257.242 138.482C256.958 138.535 256.699 138.682 256.506 138.899C256.314 139.115 256.199 139.39 256.18 139.679L255.256 139.624C255.149 139.613 255.04 139.619 254.935 139.64C254.809 139.68 254.703 139.764 254.636 139.877C254.569 139.991 254.546 140.125 254.572 140.253C254.606 140.381 254.687 140.49 254.798 140.561C254.909 140.632 255.043 140.658 255.172 140.635C254.718 140.817 254.312 141.103 253.988 141.47C253.747 141.834 253.659 142.279 253.743 142.708C253.827 143.137 254.076 143.515 254.437 143.761C254.817 143.98 255.263 144.053 255.692 143.966C256.121 143.879 256.503 143.638 256.767 143.29C256.713 143.481 256.729 143.685 256.811 143.866C256.893 144.047 257.037 144.193 257.217 144.278C258.956 145.218 259.842 143.941 260.08 142.462C260.327 140.854 260.673 139.647 258.918 138.78Z" fill="black"/>
<path d="M231.314 81.3579C231.608 80.8532 231.721 80.2634 231.635 79.6858C231.584 79.4002 231.44 79.1395 231.225 78.9448C231.01 78.7501 230.736 78.6326 230.447 78.6106L230.515 77.6863C230.531 77.58 230.531 77.4717 230.515 77.3654C230.484 77.2335 230.403 77.1189 230.288 77.047C230.174 76.9751 230.035 76.9516 229.903 76.9819C229.771 77.0121 229.657 77.0935 229.585 77.2081C229.513 77.3228 229.49 77.4613 229.52 77.5932C229.343 77.1364 229.062 76.7274 228.698 76.3994C228.336 76.1535 227.892 76.0601 227.462 76.1394C227.032 76.2187 226.65 76.4643 226.4 76.823C226.177 77.2003 226.1 77.6459 226.183 78.0762C226.266 78.5065 226.503 78.8917 226.85 79.1594C226.658 79.1037 226.454 79.1172 226.272 79.1977C226.09 79.2781 225.942 79.4203 225.855 79.5991C224.892 81.329 226.176 82.2276 227.639 82.4876C229.228 82.7411 230.434 83.1038 231.314 81.3579Z" fill="#FFE9B3"/>
<path d="M229.388 70.125C229.682 69.6203 229.795 69.0305 229.709 68.4529C229.659 68.1673 229.514 67.9066 229.299 67.7119C229.084 67.5172 228.811 67.3997 228.522 67.3777L228.589 66.4534C228.605 66.3471 228.605 66.2388 228.589 66.1325C228.559 66.0005 228.477 65.886 228.363 65.8141C228.248 65.7422 228.11 65.7187 227.978 65.7489C227.846 65.7792 227.731 65.8606 227.659 65.9752C227.587 66.0899 227.564 66.2284 227.594 66.3603C227.418 65.9034 227.136 65.4945 226.772 65.1664C226.411 64.9206 225.967 64.8272 225.537 64.9065C225.106 64.9858 224.725 65.2314 224.475 65.5901C224.252 65.9674 224.174 66.413 224.257 66.8433C224.34 67.2736 224.577 67.6588 224.924 67.9265C224.733 67.8707 224.528 67.8843 224.346 67.9647C224.164 68.0452 224.016 68.1874 223.929 68.3662C222.966 70.0961 224.25 70.9947 225.713 71.2547C227.302 71.5082 228.509 71.8709 229.388 70.125Z" fill="#FFE9B3"/>
<path d="M181.251 162.53C180.742 162.243 180.151 162.137 179.575 162.231C179.29 162.285 179.032 162.431 178.839 162.648C178.647 162.865 178.532 163.139 178.513 163.428L177.589 163.374C177.482 163.357 177.374 163.357 177.268 163.374C177.142 163.413 177.036 163.498 176.969 163.611C176.902 163.724 176.879 163.858 176.905 163.987C176.939 164.114 177.02 164.224 177.131 164.294C177.242 164.365 177.375 164.392 177.505 164.369C177.05 164.55 176.645 164.836 176.321 165.203C176.08 165.567 175.991 166.012 176.076 166.441C176.16 166.87 176.409 167.248 176.77 167.495C177.149 167.713 177.595 167.786 178.024 167.699C178.453 167.612 178.836 167.372 179.1 167.023C179.046 167.214 179.062 167.418 179.144 167.599C179.226 167.78 179.37 167.926 179.55 168.011C181.289 168.952 182.175 167.69 182.412 166.195C182.659 164.603 183.006 163.396 181.251 162.53Z" fill="#FFE9B3"/>
<path opacity="0.15" d="M181.251 162.53C180.742 162.243 180.151 162.137 179.575 162.231C179.29 162.285 179.032 162.431 178.839 162.648C178.647 162.865 178.532 163.139 178.513 163.428L177.589 163.374C177.482 163.357 177.374 163.357 177.268 163.374C177.142 163.413 177.036 163.498 176.969 163.611C176.902 163.724 176.879 163.858 176.905 163.987C176.939 164.114 177.02 164.224 177.131 164.294C177.242 164.365 177.375 164.392 177.505 164.369C177.05 164.55 176.645 164.836 176.321 165.203C176.08 165.567 175.991 166.012 176.076 166.441C176.16 166.87 176.409 167.248 176.77 167.495C177.149 167.713 177.595 167.786 178.024 167.699C178.453 167.612 178.836 167.372 179.1 167.023C179.046 167.214 179.062 167.418 179.144 167.599C179.226 167.78 179.37 167.926 179.55 168.011C181.289 168.952 182.175 167.69 182.412 166.195C182.659 164.603 183.006 163.396 181.251 162.53Z" fill="black"/>
<path d="M169.693 161.914C169.987 161.409 170.101 160.819 170.014 160.241C169.964 159.956 169.82 159.695 169.605 159.5C169.39 159.306 169.116 159.188 168.827 159.166L168.894 158.242C168.911 158.136 168.911 158.027 168.894 157.921C168.864 157.789 168.783 157.675 168.668 157.603C168.553 157.531 168.415 157.507 168.283 157.538C168.151 157.568 168.036 157.649 167.965 157.764C167.893 157.878 167.869 158.017 167.899 158.149C167.723 157.692 167.441 157.283 167.078 156.955C166.716 156.709 166.272 156.616 165.842 156.695C165.412 156.774 165.03 157.02 164.78 157.379C164.557 157.756 164.48 158.202 164.563 158.632C164.645 159.062 164.882 159.447 165.229 159.715C165.038 159.659 164.833 159.673 164.651 159.753C164.469 159.834 164.322 159.976 164.234 160.155C163.271 161.885 164.555 162.783 166.019 163.043C167.607 163.297 168.814 163.659 169.693 161.914Z" fill="#FFE9B3"/>
<path d="M185.099 144.262C185.393 143.757 185.506 143.167 185.42 142.59C185.369 142.304 185.225 142.044 185.01 141.849C184.795 141.654 184.521 141.537 184.232 141.515L184.299 140.59C184.316 140.484 184.316 140.376 184.299 140.269C184.269 140.138 184.188 140.023 184.073 139.951C183.959 139.879 183.82 139.856 183.688 139.886C183.556 139.916 183.442 139.998 183.37 140.112C183.298 140.227 183.274 140.365 183.305 140.497C183.128 140.04 182.847 139.631 182.483 139.303C182.121 139.058 181.677 138.964 181.247 139.043C180.817 139.123 180.435 139.368 180.185 139.727C179.962 140.104 179.885 140.55 179.968 140.98C180.05 141.411 180.287 141.796 180.634 142.063C180.443 142.008 180.239 142.021 180.057 142.102C179.875 142.182 179.727 142.324 179.639 142.503C178.677 144.233 179.96 145.132 181.424 145.392C183.012 145.645 184.219 146.008 185.099 144.262Z" fill="#FFE9B3"/>
<path d="M160.441 150.09C157.315 149.291 154.061 148.485 150.902 149.127C149.497 149.413 148.168 149.978 146.801 150.411C143.434 151.454 139.876 151.726 136.39 151.205C132.904 150.684 129.58 149.385 126.665 147.404C123.392 145.141 119.99 141.842 116.113 142.737C115.07 142.981 114.104 143.527 113.038 143.646C111.039 143.873 109.187 142.577 107.203 142.272C103.789 141.749 100.685 144.143 98.0598 146.39L84.2177 158.235C83.1682 159.134 82.0128 160.322 82.2921 161.67C82.7189 163.65 85.7518 163.916 86.5317 165.794C87.0965 167.138 86.1626 168.705 84.927 169.472C83.6914 170.239 82.1958 170.434 80.8093 170.9C78.7145 171.602 76.8368 172.833 75.3589 174.476C73.881 176.118 72.8531 178.114 72.375 180.271C72.1311 181.42 72.0541 182.614 71.6016 183.699C71.1137 184.88 70.2312 185.849 69.5797 186.947C66.7297 191.729 68.6008 198.074 66.4377 203.202C65.2919 205.924 62.9972 208.556 63.7225 211.415C64.3836 214.008 67.2304 215.334 69.8204 216.021C70.1253 217.786 69.4994 219.031 68.2157 220.299C78.9832 224.724 90.5402 229.243 101.962 226.981C105.881 226.207 109.697 224.638 113.69 224.702C116.523 224.747 119.325 225.62 122.153 225.421C128.119 225 133.597 219.901 139.378 221.432C137.635 221.55 136.99 224.099 138.017 225.514C139.044 226.929 140.934 227.382 142.674 227.549C144.413 227.716 146.255 227.728 147.764 228.614C146.621 230.992 142.529 231.824 142.924 234.439C143.068 235.383 143.832 236.099 144.59 236.686C152.372 242.646 163.092 242.074 172.832 243.105C180.015 243.856 187.056 245.611 194.216 246.548C205.655 248.041 217.25 247.431 228.766 246.815C230.855 246.702 233.198 246.471 234.542 244.867C236.327 242.729 235.335 239.562 235.111 236.789C234.238 225.938 246.106 218.469 249.431 208.103C250.715 204.056 250.66 199.707 250.429 195.461C249.912 185.884 248.413 175.781 242.309 168.387C237.283 162.289 229.77 158.855 222.289 156.339C217.526 154.734 212.536 153.415 207.526 153.887C199.117 154.679 190.622 160.421 182.858 157.096C180.804 156.217 179.055 154.763 177.104 153.678C171.975 150.78 166.157 151.55 160.441 150.09Z" fill="#E57C23"/>
<g opacity="0.1">
<path d="M203.864 238.191C196.704 237.254 189.675 235.508 182.48 234.748C172.73 233.727 162.01 234.298 154.237 228.329C153.48 227.748 152.716 227.045 152.571 226.082C152.177 223.473 156.269 222.635 157.411 220.257C155.903 219.371 154.064 219.362 152.321 219.192C150.578 219.022 148.691 218.572 147.664 217.157C146.637 215.742 147.282 213.193 149.025 213.075C143.248 211.544 137.766 216.643 131.8 217.064C128.973 217.263 126.171 216.39 123.337 216.345C119.344 216.281 115.528 217.85 111.61 218.624C100.188 220.87 88.6338 216.377 77.863 211.942C79.1308 210.658 79.763 209.429 79.4677 207.664C76.8842 206.977 74.0375 205.651 73.3699 203.058C72.6446 200.199 74.9393 197.567 76.0851 194.845C78.2482 189.71 76.3771 183.372 79.227 178.59C79.8689 177.492 80.7611 176.523 81.249 175.342C81.6951 174.257 81.7785 173.063 82.0224 171.914C82.1276 171.411 82.267 170.916 82.4396 170.431C81.9005 170.579 81.3549 170.714 80.835 170.887C78.7401 171.589 76.8625 172.821 75.3846 174.463C73.9066 176.105 72.8787 178.102 72.4007 180.259C72.1568 181.408 72.0797 182.601 71.6272 183.686C71.1394 184.867 70.2568 185.836 69.6053 186.934C66.7553 191.716 68.6264 198.061 66.4633 203.19C65.3175 205.911 63.0228 208.543 63.7481 211.403C64.4093 213.996 67.256 215.321 69.846 216.008C70.1509 217.773 69.5251 219.018 68.2413 220.286C79.012 224.712 90.5658 229.231 101.988 226.968C105.907 226.195 109.723 224.625 113.715 224.689C116.549 224.734 119.351 225.607 122.178 225.408C128.145 224.988 133.623 219.888 139.403 221.419C137.66 221.538 137.015 224.086 138.042 225.501C139.069 226.917 140.96 227.369 142.699 227.536C144.439 227.703 146.281 227.716 147.789 228.602C146.647 230.98 142.555 231.811 142.95 234.427C143.094 235.37 143.858 236.086 144.615 236.673C152.398 242.633 163.117 242.062 172.858 243.092C180.04 243.843 187.082 245.599 194.242 246.536C205.68 248.028 217.276 247.418 228.791 246.802C230.881 246.69 233.223 246.459 234.568 244.854C235.964 243.179 235.659 240.874 235.354 238.618C224.84 239.164 214.285 239.552 203.864 238.191Z" fill="black"/>
<path d="M86.0695 165.075C87.3394 163.945 88.8285 163.088 90.4439 162.559C91.8304 162.109 93.3324 161.894 94.5616 161.13C95.7908 160.367 96.7343 158.797 96.1662 157.453C95.3864 155.588 92.3535 155.309 91.9266 153.328C91.7309 152.417 92.1962 151.579 92.8445 150.854L84.2145 158.236C83.165 159.134 82.0096 160.322 82.2888 161.67C82.6643 163.364 84.9302 163.817 86.0695 165.075Z" fill="black"/>
</g>
<path d="M115.134 158.704C115.428 158.2 115.541 157.61 115.455 157.032C115.404 156.747 115.26 156.486 115.045 156.291C114.83 156.097 114.556 155.979 114.267 155.957L114.335 155.033C114.346 154.926 114.34 154.817 114.319 154.712C114.288 154.58 114.207 154.465 114.092 154.393C113.978 154.322 113.839 154.298 113.707 154.328C113.575 154.359 113.461 154.44 113.389 154.555C113.317 154.669 113.293 154.808 113.324 154.94C113.147 154.483 112.866 154.074 112.502 153.746C112.14 153.5 111.696 153.407 111.266 153.486C110.836 153.565 110.454 153.811 110.204 154.169C109.981 154.547 109.904 154.992 109.987 155.423C110.07 155.853 110.307 156.238 110.653 156.506C110.462 156.45 110.258 156.464 110.076 156.544C109.894 156.625 109.746 156.767 109.659 156.946C108.696 158.675 109.979 159.574 111.443 159.834C113.048 160.088 114.254 160.45 115.134 158.704Z" fill="#FFE9B3"/>
<path d="M161.991 220.967C162.285 220.462 162.398 219.872 162.312 219.294C162.261 219.009 162.117 218.748 161.902 218.553C161.687 218.359 161.414 218.241 161.124 218.219L161.192 217.295C161.208 217.189 161.208 217.08 161.192 216.974C161.162 216.842 161.08 216.728 160.966 216.656C160.851 216.584 160.712 216.56 160.58 216.591C160.448 216.621 160.334 216.702 160.262 216.817C160.19 216.931 160.167 217.07 160.197 217.202C160.02 216.745 159.739 216.336 159.375 216.008C159.014 215.762 158.569 215.669 158.139 215.748C157.709 215.827 157.328 216.073 157.077 216.432C156.855 216.809 156.777 217.255 156.86 217.685C156.943 218.115 157.18 218.5 157.527 218.768C157.336 218.712 157.131 218.726 156.949 218.806C156.767 218.887 156.619 219.029 156.532 219.208C155.569 220.938 156.853 221.836 158.316 222.096C159.905 222.35 161.112 222.712 161.991 220.967Z" fill="#FFE9B3"/>
<path d="M194.085 159.667C194.379 159.163 194.492 158.573 194.406 157.995C194.355 157.709 194.211 157.449 193.996 157.254C193.781 157.059 193.508 156.942 193.218 156.92L193.286 155.996C193.302 155.889 193.302 155.781 193.286 155.675C193.256 155.543 193.174 155.428 193.059 155.356C192.945 155.284 192.806 155.261 192.674 155.291C192.542 155.321 192.428 155.403 192.356 155.517C192.284 155.632 192.261 155.771 192.291 155.903C192.114 155.446 191.833 155.037 191.469 154.709C191.108 154.463 190.663 154.369 190.233 154.449C189.803 154.528 189.422 154.774 189.171 155.132C188.949 155.51 188.871 155.955 188.954 156.386C189.037 156.816 189.274 157.201 189.621 157.469C189.43 157.413 189.225 157.427 189.043 157.507C188.861 157.587 188.713 157.73 188.626 157.908C187.663 159.638 188.947 160.537 190.41 160.797C191.999 161.05 193.206 161.413 194.085 159.667Z" fill="#FFE9B3"/>
<path d="M200.122 158.961C200.655 158.725 201.092 158.314 201.361 157.796C201.489 157.536 201.527 157.241 201.469 156.958C201.41 156.674 201.26 156.418 201.04 156.23L201.633 155.517C201.71 155.436 201.773 155.343 201.82 155.241C201.873 155.117 201.874 154.976 201.824 154.85C201.773 154.724 201.675 154.624 201.55 154.571C201.425 154.517 201.285 154.516 201.159 154.566C201.033 154.617 200.932 154.715 200.879 154.84C201.004 154.367 201.017 153.871 200.914 153.393C200.766 152.981 200.46 152.644 200.065 152.456C199.67 152.268 199.216 152.244 198.803 152.388C198.401 152.563 198.078 152.878 197.893 153.275C197.708 153.671 197.674 154.122 197.798 154.542C197.676 154.385 197.503 154.276 197.309 154.233C197.115 154.191 196.912 154.218 196.736 154.311C194.945 155.148 195.452 156.618 196.492 157.69C197.615 158.862 198.379 159.86 200.122 158.961Z" fill="#FFE9B3"/>
<path d="M130.542 160.604C130.034 160.317 129.443 160.212 128.867 160.306C128.582 160.359 128.323 160.506 128.131 160.723C127.938 160.939 127.824 161.214 127.804 161.503L126.88 161.448C126.774 161.432 126.666 161.432 126.559 161.448C126.434 161.488 126.327 161.572 126.26 161.685C126.193 161.799 126.171 161.932 126.197 162.061C126.231 162.189 126.311 162.298 126.422 162.369C126.533 162.44 126.667 162.466 126.797 162.443C126.342 162.625 125.936 162.91 125.612 163.278C125.371 163.642 125.283 164.087 125.367 164.516C125.451 164.945 125.701 165.323 126.062 165.569C126.441 165.788 126.887 165.861 127.316 165.774C127.745 165.687 128.127 165.446 128.392 165.097C128.338 165.289 128.353 165.493 128.435 165.674C128.518 165.855 128.661 166.001 128.841 166.086C130.581 167.026 131.466 165.765 131.704 164.269C131.951 162.678 132.298 161.471 130.542 160.604Z" fill="#FFE9B3"/>
<path opacity="0.15" d="M130.542 160.604C130.034 160.317 129.443 160.212 128.867 160.306C128.582 160.359 128.323 160.506 128.131 160.723C127.938 160.939 127.824 161.214 127.804 161.503L126.88 161.448C126.774 161.432 126.666 161.432 126.559 161.448C126.434 161.488 126.327 161.572 126.26 161.685C126.193 161.799 126.171 161.932 126.197 162.061C126.231 162.189 126.311 162.298 126.422 162.369C126.533 162.44 126.667 162.466 126.797 162.443C126.342 162.625 125.936 162.91 125.612 163.278C125.371 163.642 125.283 164.087 125.367 164.516C125.451 164.945 125.701 165.323 126.062 165.569C126.441 165.788 126.887 165.861 127.316 165.774C127.745 165.687 128.127 165.446 128.392 165.097C128.338 165.289 128.353 165.493 128.435 165.674C128.518 165.855 128.661 166.001 128.841 166.086C130.581 167.026 131.466 165.765 131.704 164.269C131.951 162.678 132.298 161.471 130.542 160.604Z" fill="black"/>
<path d="M159.119 184.479C159.217 183.904 159.12 183.313 158.843 182.8C158.697 182.549 158.472 182.354 158.203 182.245C157.933 182.136 157.636 182.121 157.357 182.2L157.1 181.308C157.074 181.195 157.031 181.087 156.971 180.987C156.897 180.874 156.781 180.794 156.649 180.766C156.516 180.738 156.377 180.764 156.264 180.838C156.15 180.912 156.071 181.028 156.043 181.161C156.015 181.294 156.04 181.432 156.115 181.546C155.793 181.176 155.388 180.888 154.933 180.705C154.509 180.599 154.06 180.665 153.683 180.888C153.307 181.11 153.033 181.472 152.921 181.895C152.842 182.326 152.923 182.771 153.149 183.146C153.375 183.521 153.73 183.801 154.147 183.933C153.949 183.947 153.761 184.03 153.618 184.168C153.475 184.306 153.385 184.49 153.364 184.688C153.043 186.642 154.558 187.05 156.031 186.78C157.636 186.488 158.887 186.405 159.119 184.479Z" fill="#FFE9B3"/>
<path opacity="0.15" d="M159.119 184.479C159.217 183.904 159.12 183.313 158.843 182.8C158.697 182.549 158.472 182.354 158.203 182.245C157.933 182.136 157.636 182.121 157.357 182.2L157.1 181.308C157.074 181.195 157.031 181.087 156.971 180.987C156.897 180.874 156.781 180.794 156.649 180.766C156.516 180.738 156.377 180.764 156.264 180.838C156.15 180.912 156.071 181.028 156.043 181.161C156.015 181.294 156.04 181.432 156.115 181.546C155.793 181.176 155.388 180.888 154.933 180.705C154.509 180.599 154.06 180.665 153.683 180.888C153.307 181.11 153.033 181.472 152.921 181.895C152.842 182.326 152.923 182.771 153.149 183.146C153.375 183.521 153.73 183.801 154.147 183.933C153.949 183.947 153.761 184.03 153.618 184.168C153.475 184.306 153.385 184.49 153.364 184.688C153.043 186.642 154.558 187.05 156.031 186.78C157.636 186.488 158.887 186.405 159.119 184.479Z" fill="black"/>
<path d="M197.631 155.273C197.73 154.699 197.633 154.108 197.355 153.595C197.21 153.344 196.985 153.148 196.715 153.039C196.446 152.931 196.148 152.915 195.869 152.995L195.612 152.103C195.587 151.989 195.544 151.881 195.484 151.782C195.447 151.725 195.4 151.677 195.345 151.639C195.289 151.601 195.227 151.574 195.161 151.56C195.095 151.547 195.028 151.546 194.962 151.558C194.896 151.57 194.833 151.596 194.776 151.632C194.72 151.669 194.672 151.716 194.634 151.772C194.596 151.827 194.569 151.89 194.555 151.955C194.541 152.021 194.541 152.089 194.553 152.155C194.565 152.221 194.591 152.284 194.627 152.34C194.306 151.97 193.901 151.682 193.446 151.499C193.022 151.394 192.573 151.459 192.196 151.682C191.819 151.905 191.546 152.267 191.434 152.69C191.355 153.121 191.436 153.565 191.662 153.941C191.887 154.316 192.242 154.596 192.66 154.728C192.461 154.741 192.274 154.824 192.131 154.962C191.987 155.1 191.897 155.284 191.877 155.482C191.556 157.437 193.071 157.844 194.544 157.575C196.148 157.283 197.4 157.199 197.631 155.273Z" fill="#FFE9B3"/>
<path opacity="0.15" d="M197.631 155.273C197.73 154.699 197.633 154.108 197.355 153.595C197.21 153.344 196.985 153.148 196.715 153.039C196.446 152.931 196.148 152.915 195.869 152.995L195.612 152.103C195.587 151.989 195.544 151.881 195.484 151.782C195.447 151.725 195.4 151.677 195.345 151.639C195.289 151.601 195.227 151.574 195.161 151.56C195.095 151.547 195.028 151.546 194.962 151.558C194.896 151.57 194.833 151.596 194.776 151.632C194.72 151.669 194.672 151.716 194.634 151.772C194.596 151.827 194.569 151.89 194.555 151.955C194.541 152.021 194.541 152.089 194.553 152.155C194.565 152.221 194.591 152.284 194.627 152.34C194.306 151.97 193.901 151.682 193.446 151.499C193.022 151.394 192.573 151.459 192.196 151.682C191.819 151.905 191.546 152.267 191.434 152.69C191.355 153.121 191.436 153.565 191.662 153.941C191.887 154.316 192.242 154.596 192.66 154.728C192.461 154.741 192.274 154.824 192.131 154.962C191.987 155.1 191.897 155.284 191.877 155.482C191.556 157.437 193.071 157.844 194.544 157.575C196.148 157.283 197.4 157.199 197.631 155.273Z" fill="black"/>
</g>
<defs>
<clipPath id="clip0_2_874">
<rect width="328" height="255.147" fill="white" transform="translate(0 0.741211)"/>
</clipPath>
</defs>
</svg>
