<svg width="328" height="308" viewBox="0 0 328 308" fill="none" xmlns="http://www.w3.org/2000/svg">
<g clip-path="url(#clip0_2_679)">
<path d="M63.4175 62.9498C80.3505 62.9498 94.0775 48.858 94.0775 31.4749C94.0775 14.0918 80.3505 0 63.4175 0C46.4845 0 32.7576 14.0918 32.7576 31.4749C32.7576 48.858 46.4845 62.9498 63.4175 62.9498Z" fill="#FF6884"/>
<path d="M158.9 65.2996C157.889 63.548 153.511 65.4234 152.706 63.8339C151.904 62.25 155.972 59.8368 158.295 54.3239C158.714 53.3297 161.355 47.0647 159.4 45.1315C155.695 41.4672 138.739 56.5888 132.806 51.6403C131.503 50.5543 130.594 48.3864 126.652 44.8665C125.085 43.4662 124.136 42.834 123.219 43.0692C121.917 43.403 121.814 45.1918 120.418 48.7089C118.324 53.9836 117.086 53.6651 115.866 57.8734C114.96 60.9974 115.167 62.8137 114.102 63.1675C112.594 63.6683 111.206 60.3547 109.295 60.6514C107.344 60.9542 106.165 64.8123 105.793 67.701C105.094 73.1218 107.033 76.6987 108.108 80.46C109.276 84.5475 109.97 90.7637 107.272 99.5636L80.5742 176.785C86.4683 160.939 103.534 117.502 110.706 101.361C112.776 96.7012 115.062 91.9748 119.755 90.1094C124.274 88.3135 130.48 89.3857 138.391 87.4291C139.315 87.2006 141.879 86.5309 142.202 84.9826C142.469 83.7026 140.961 82.9882 141.192 81.7894C141.503 80.1814 144.469 80.1616 148.114 78.3065C150.684 76.9982 152.285 75.4425 153.662 74.1046C154.077 73.7012 160.247 67.6312 158.9 65.2996Z" fill="#F2F2F2"/>
<path d="M53.8626 105.952C52.7333 105.957 52.3669 108.703 51.3747 108.65C50.3861 108.597 50.4058 105.852 48.4406 103.09C48.0862 102.592 45.8528 99.4543 44.3645 99.8815C41.5435 100.691 43.8809 113.597 39.803 115.159C38.9081 115.502 37.609 115.335 34.7891 116.305C33.6672 116.691 33.0914 116.986 32.9391 117.516C32.723 118.269 33.5484 118.837 34.8272 120.555C36.7449 123.132 36.2353 123.664 37.8953 125.493C39.1276 126.85 40.0557 127.27 39.9173 127.909C39.7217 128.813 37.737 128.557 37.3274 129.605C36.9095 130.675 38.4139 132.382 39.6875 133.403C42.0776 135.32 44.3472 135.375 46.4556 135.918C48.7468 136.509 51.9188 137.954 55.3477 141.852L84.5638 177.584C78.6887 170.043 62.8457 148.911 57.1977 140.64C55.5672 138.253 53.9671 135.737 54.4295 132.834C54.8746 130.039 57.1778 127.222 58.5251 122.671C58.6825 122.139 59.1021 120.654 58.455 120.045C57.9201 119.541 57.1433 120.095 56.6371 119.632C55.958 119.012 56.8043 117.512 56.9689 115.14C57.085 113.468 56.8031 112.212 56.5608 111.132C56.4877 110.807 55.366 105.946 53.8626 105.952Z" fill="#F2F2F2"/>
<path d="M76.3929 111.144L75.7125 104.909L76.0234 104.436C77.462 102.25 78.1952 100.116 78.204 98.0895C78.2054 97.7674 78.1908 97.4452 78.1761 97.117C78.1174 95.8164 78.0441 94.1996 78.8653 92.3148C79.3258 91.2641 80.6192 88.8313 82.5636 89.1324C83.0872 89.2077 83.4831 89.4545 83.7837 89.7436C83.8277 89.6713 83.8732 89.599 83.9215 89.5208C84.5272 88.5724 85.0067 88.1659 85.4686 87.7745C85.8235 87.4734 86.1901 87.1633 86.7649 86.4287C87.0171 86.1065 87.2136 85.8235 87.3794 85.5857C87.8824 84.8661 88.5393 84.008 89.6978 84.023C90.9354 84.0832 91.5836 85.134 92.0132 85.8295C92.7802 87.0699 93.1277 87.9642 93.3579 88.5573C93.4415 88.7741 93.5369 89.0179 93.5852 89.0932C93.9841 89.6954 97.2264 89.1323 98.4479 88.9276C101.192 88.4579 103.566 88.0515 104.544 89.8278C105.245 91.0984 104.724 92.7784 102.95 94.9552C102.397 95.6327 101.809 96.1475 101.287 96.551C101.719 96.8159 102.107 97.2224 102.264 97.8607C102.633 99.3721 101.368 100.887 98.5036 102.368C97.7924 102.738 96.8348 103.232 95.4931 103.47C94.861 103.581 94.2921 103.608 93.8052 103.623C93.795 103.912 93.729 104.226 93.5574 104.548C93.0544 105.496 92.0074 105.948 90.4295 105.839C88.6933 105.746 87.2635 105.406 86.0024 105.108C84.9011 104.849 83.9523 104.629 83.2074 104.68C81.8261 104.795 80.7614 105.93 79.512 107.402L76.3929 111.144Z" fill="#F2F2F2"/>
<path d="M79.5493 74.0187L73.8466 76.2759L73.3223 76.0871C70.8978 75.213 68.7005 75.0264 66.789 75.5317C66.4851 75.6119 66.1852 75.7082 65.8797 75.806C64.6691 76.1942 63.1642 76.6771 61.18 76.3397C60.0731 76.149 57.4529 75.4817 57.2433 73.4745C57.1815 72.9355 57.3137 72.4797 57.5098 72.1079C57.4305 72.0826 57.3509 72.0558 57.2649 72.0276C56.2176 71.6667 55.713 71.2936 55.227 70.9342C54.8533 70.6582 54.4681 70.3728 53.6301 69.9883C53.2626 69.8196 52.9461 69.6963 52.6799 69.592C51.8743 69.2751 50.8991 68.8404 50.6195 67.6862C50.3623 66.4419 51.188 65.5317 51.7343 64.9286C52.7086 63.8524 53.463 63.2805 53.9635 62.9014C54.1466 62.7634 54.3522 62.6069 54.4108 62.5398C54.877 61.991 53.5241 58.9142 53.0214 57.7531C51.8829 55.1478 50.8977 52.8934 52.3234 51.4715C53.3428 50.4532 55.0579 50.544 57.5591 51.7538C58.3376 52.131 58.9719 52.5843 59.4844 53.0004C59.6244 52.5036 59.9091 52.0161 60.4708 51.6984C61.8012 50.948 63.5492 51.8206 65.6714 54.2887C66.2007 54.901 66.9089 55.7266 67.4733 56.9987C67.7386 57.598 67.9084 58.1562 68.0461 58.6358C68.3211 58.5727 68.6329 58.5588 68.9799 58.6475C70.0011 58.9064 70.6923 59.8315 70.9904 61.4259C71.3428 63.1736 71.3849 64.6797 71.4239 66.0076C71.4593 67.1669 71.4928 68.1648 71.7301 68.8915C72.1882 70.2342 73.5278 71.0035 75.232 71.8706L79.5493 74.0187Z" fill="#F2F2F2"/>
<path d="M76.3929 55.649L75.7125 49.4136L76.0234 48.9409C77.462 46.7551 78.1952 44.6204 78.204 42.5941C78.2054 42.272 78.1908 41.9498 78.1761 41.6217C78.1174 40.321 78.0441 38.7042 78.8653 36.8194C79.3258 35.7687 80.6192 33.3359 82.5636 33.637C83.0872 33.7123 83.4831 33.9592 83.7837 34.2482C83.8277 34.1759 83.8732 34.1037 83.9215 34.0254C84.5272 33.077 85.0067 32.6705 85.4686 32.2791C85.8235 31.9781 86.1901 31.668 86.7649 30.9333C87.0171 30.6112 87.2136 30.3281 87.3794 30.0903C87.8824 29.3707 88.5393 28.5126 89.6978 28.5277C90.9354 28.5879 91.5836 29.6386 92.0132 30.3341C92.7802 31.5746 93.1277 32.4688 93.3579 33.0619C93.4415 33.2787 93.5369 33.5226 93.5852 33.5979C93.9841 34.2 97.2264 33.637 98.4479 33.4322C101.192 32.9625 103.566 32.5561 104.544 34.3325C105.245 35.603 104.724 37.283 102.95 39.4599C102.397 40.1373 101.809 40.6521 101.287 41.0556C101.719 41.3206 102.107 41.727 102.264 42.3653C102.633 43.8767 101.368 45.3912 98.5036 46.8725C97.7924 47.2428 96.8348 47.7366 95.4931 47.9745C94.861 48.0859 94.2921 48.113 93.8052 48.1281C93.795 48.4171 93.729 48.7302 93.5574 49.0524C93.0544 50.0008 92.0074 50.4524 90.4295 50.344C88.6933 50.2506 87.2635 49.9104 86.0024 49.6124C84.9011 49.3534 83.9523 49.1336 83.2074 49.1848C81.8261 49.2992 80.7614 50.4343 79.512 51.9066L76.3929 55.649Z" fill="#F2F2F2"/>
<path d="M82.6076 176.683L81.3348 175.864L79.8507 176.039C79.8273 175.897 79.7466 175.572 79.6249 175.063C78.9606 172.275 76.9355 163.791 75.2462 150.429C74.0672 141.102 73.4 131.512 73.2621 121.923C73.1243 112.318 73.5671 105.047 73.922 99.2033C74.1904 94.7954 74.5159 90.5984 74.8356 86.5097C75.6861 75.5865 76.4882 65.2685 75.8914 53.8455C75.7594 51.2953 75.4822 45.9873 72.4615 40.339C70.7091 37.0633 68.2953 34.1548 65.2863 31.698L67.1574 29.2834C70.4788 31.9991 73.1492 35.2207 75.0952 38.8578C78.4445 45.1202 78.7466 50.904 78.8917 53.683C79.4988 65.3077 78.6879 75.7251 77.8286 86.7536C77.5118 90.8272 77.1863 95.0062 76.9194 99.396C76.5674 105.186 76.129 112.394 76.2654 121.875C76.4003 131.35 77.0602 140.822 78.223 150.032C79.8918 163.225 81.8877 171.583 82.5431 174.329C82.8921 175.795 82.9654 176.102 82.6076 176.683Z" fill="#F2F2F2"/>
<path d="M59.7784 36.5968C59.6552 36.5968 59.5305 36.5938 59.4044 36.5848C56.847 36.4433 54.4787 34.8716 52.3642 31.915C51.3729 30.524 50.8655 28.9373 49.8536 25.773C49.6967 25.2852 48.9342 22.8103 48.4708 19.4051C48.1672 17.1801 48.2054 16.2498 48.635 15.4278C49.1116 14.5125 49.883 13.8743 50.7511 13.4437C50.713 13.1487 50.7437 12.8446 50.8684 12.5344C51.3802 11.2488 52.741 11.4175 53.4772 11.4987C53.8496 11.5469 54.3145 11.6101 54.816 11.583C55.605 11.5439 56.0288 11.303 56.671 10.9417C57.2855 10.5955 58.0495 10.1649 59.183 9.92707C61.4179 9.44837 63.2905 10.0987 63.9078 10.3124C67.1559 11.4234 68.7573 14.0157 70.6108 17.0175C70.9804 17.6197 72.2488 19.8115 73.0861 22.8163C73.6903 24.9841 73.6053 25.9475 73.4234 26.6641C73.0539 28.1364 72.1814 28.9794 69.9656 30.8401C67.6516 32.7881 66.4902 33.7636 65.493 34.3567C63.1717 35.7327 61.714 36.5968 59.7784 36.5968Z" fill="#F2F2F2"/>
<path d="M97.9653 69.0913L97.9357 69.5935L96.9907 85.623L119.017 87.999L112.86 67.2313L97.9653 69.0913Z" fill="#A0616A"/>
<path d="M164.744 67.9833C164.765 67.9871 164.798 67.9927 164.837 67.9993C165.601 68.1292 170.223 68.8612 174.882 67.0391C176.856 66.2672 176.182 66.0748 180.579 63.3912C185.732 60.245 187.055 60.267 187.439 58.8C188.205 55.8706 184.113 51.2655 181.404 51.5687C180.691 51.6485 179.928 52.085 178.74 51.789C178.479 51.724 177.336 51.4394 176.78 50.4686C176.283 49.6026 176.703 48.9779 176.504 48.2676C175.979 46.4033 171.607 45.4729 167.774 46.1303C165.57 46.5084 163.855 47.5406 160.516 49.5897C154.703 53.156 151.797 54.9392 151.144 57.6713C150.525 60.2608 152.011 61.3765 150.93 64.1485C149.924 66.7295 148.326 66.5571 147.776 68.6451C146.891 72.005 150.176 75.6925 151.544 77.2286C153.044 78.9127 154.479 79.8371 156.383 81.0642C158.774 82.6044 159.97 83.3745 161.407 83.2962C164.012 83.1541 171.755 83.6377 171.856 81.4241C171.894 80.5945 181.285 81.2738 176.661 72.3425C176.093 71.247 164.983 72.4171 164.836 71.7878" fill="#025464"/>
<path d="M155.595 72.1362L155.566 72.6384L154.621 88.6679L176.647 91.0439L170.49 70.2762L155.595 72.1362Z" fill="#FFB6B6"/>
<path d="M328 177.205C328 177.407 327.841 177.571 327.644 177.571H0V176.84H327.644C327.841 176.84 328 177.003 328 177.205Z" fill="#E6E6E6"/>
<path d="M218.729 154.051C222.262 157.957 227.089 159.252 229.51 156.943C231.932 154.634 231.03 149.597 227.494 145.69C226.103 144.109 224.363 142.894 222.421 142.145L207.246 125.788L199.921 133.262L215.658 148.593C216.242 150.638 217.295 152.509 218.729 154.051Z" fill="#FFB6B6"/>
<path d="M186.893 142.839C191.807 144.561 196.656 143.354 197.723 140.144C198.79 136.933 195.671 132.935 190.755 131.213C188.801 130.497 186.708 130.273 184.651 130.558L163.741 123.531L160.737 133.675L181.671 139.525C183.129 141.042 184.919 142.178 186.893 142.839Z" fill="#A0616A"/>
<path d="M117.504 81.3822C117.504 81.3822 104.542 97.391 112.041 104.015C119.54 110.638 153.028 135.158 153.028 135.158L166.083 137.245L169.422 124.29L139.943 101.865L117.504 81.3822Z" fill="#E57C23"/>
<path d="M166.858 77.8179C174.965 77.8179 181.538 71.0709 181.538 62.748C181.538 54.4251 174.965 47.678 166.858 47.678C158.75 47.678 152.178 54.4251 152.178 62.748C152.178 71.0709 158.75 77.8179 166.858 77.8179Z" fill="#FFB6B6"/>
<path d="M162.13 63.7233C162.151 63.7271 162.183 63.7327 162.222 63.7393C162.987 63.8692 167.608 64.6012 172.267 62.7791C174.241 62.0072 173.568 61.8149 177.964 59.1313C183.118 55.9851 184.441 56.0071 184.824 54.54C185.591 51.6106 181.499 47.0055 178.79 47.3087C178.077 47.3886 177.313 47.825 176.125 47.5291C175.864 47.4641 174.722 47.1794 174.165 46.2087C173.668 45.3427 174.089 44.7179 173.889 44.0077C173.365 42.1434 168.993 41.213 165.16 41.8704C162.955 42.2485 161.241 43.2807 157.901 45.3297C152.089 48.8961 149.183 50.6793 148.53 53.4113C147.91 56.0008 149.396 57.1166 148.316 59.8885C147.309 62.4696 145.711 62.2972 145.161 64.3851C144.276 67.745 147.561 71.4325 148.929 72.9686C150.43 74.6528 151.864 75.5771 153.769 76.8042C156.16 78.3445 157.355 79.1146 158.792 79.0362C161.398 78.8942 163.99 76.47 164.091 74.2565C164.128 73.4269 163.791 73.1781 162.957 70.3262C162.609 69.1381 162.368 68.1572 162.222 67.5279" fill="#025464"/>
<path d="M255.669 199.166L270.924 218.742L278.975 206.561L267.11 195.251L255.669 199.166Z" fill="#FFB6B6"/>
<path d="M192.953 151.75C192.953 151.75 239.853 157.405 243.735 161.32C247.617 165.235 270.924 198.296 270.924 198.296L261.177 206.126L236.048 178.7L182.478 178.271L192.953 151.75Z" fill="#025464"/>
<path d="M218.379 151.75L233.634 171.325L241.685 159.145L229.82 147.834L218.379 151.75Z" fill="#FFB6B6"/>
<path d="M231.515 165.67C231.515 165.67 228.125 164.8 228.125 167.845C228.125 170.89 228.972 180.025 228.972 180.025C228.972 180.025 267.957 173.065 267.957 168.715C267.957 164.365 257.364 165.235 257.364 165.235L242.109 157.84L231.515 165.67Z" fill="#025464"/>
<path d="M151.85 251.803L159.053 279.209L170.495 277.034L167.952 248.758L151.85 251.803Z" fill="#A0616A"/>
<path d="M160.748 277.469L156.511 278.339L153.121 290.084C153.121 290.084 158.63 292.259 158.63 296.609C158.63 300.96 160.748 304.005 169.223 303.57C177.698 303.135 178.546 303.57 178.546 300.09C178.546 296.609 172.19 278.339 172.19 278.339C172.19 278.339 172.613 270.944 167.528 271.379C162.443 271.814 160.748 277.469 160.748 277.469Z" fill="#025464"/>
<path d="M113.112 251.377L113.604 279.758L125.217 280.506L129.452 252.445L113.112 251.377Z" fill="#A0616A"/>
<path d="M115.66 278.494L111.344 278.279L105.272 288.825C105.272 288.825 110.099 292.311 109.068 296.53C108.037 300.75 109.371 304.232 117.694 305.927C126.017 307.622 126.736 308.256 127.561 304.881C128.386 301.505 126.551 282.196 126.551 282.196C126.551 282.196 128.715 275.129 123.68 274.28C118.645 273.432 115.66 278.494 115.66 278.494Z" fill="#025464"/>
<path d="M117.95 81.7122L95.067 79.9722L89.982 86.4974C89.982 86.4974 87.4395 130.434 89.1345 134.784C90.8295 139.134 89.5583 163.93 89.5583 163.93L147.243 159.797L134.476 128.259L134.9 109.988L123.458 87.8024L117.95 81.7122Z" fill="#E57C23"/>
<path d="M92.1008 154.795C92.1008 154.795 82.7783 168.715 86.1683 176.111C89.5583 183.506 112.553 226.445 112.553 226.445L109.587 266.467L129.927 264.726L133.317 221.66L119.221 186.551L121.763 182.636L142.951 209.172L150.578 255.283L170.918 252.673L159.901 185.246L147.025 159.257L92.1008 154.795Z" fill="#025464"/>
<path d="M172.613 80.4072L155.663 78.6671L141.68 92.5876C141.68 92.5876 134.9 112.598 136.171 123.474C137.442 134.349 148.46 161.32 148.46 161.32L165.833 148.269L185.75 149.14V108.414L175.58 85.6273L172.613 80.4072Z" fill="#E6E6E6"/>
<path d="M169.324 85.6229C169.324 85.6229 179.071 86.9215 183.288 94.3674C187.505 101.813 217.903 136.848 217.903 136.848L212.144 142.258L182.192 122.419L170.691 102.113L169.324 85.6229Z" fill="#E6E6E6"/>
<path d="M146.977 156.752C146.977 156.752 145.493 174.805 154.816 177.416C164.138 180.026 188.292 177.851 188.292 177.851L203.547 137.394L218.379 155.665L232.786 148.705C232.786 148.705 217.531 104.768 209.056 104.768C200.581 104.768 187.021 116.948 187.021 116.948L164.986 147.4L146.977 156.752Z" fill="#025464"/>
<path d="M268.805 213.087C268.805 213.087 265.415 212.217 265.415 215.262C265.415 218.307 266.262 227.442 266.262 227.442C266.262 227.442 305.247 220.482 305.247 216.132C305.247 211.782 294.654 212.652 294.654 212.652L279.399 205.257L268.805 213.087Z" fill="#025464"/>
<path d="M90.109 55.072C94.4479 55.072 97.9652 51.4612 97.9652 47.007C97.9652 42.5528 94.4479 38.942 90.109 38.942C85.7702 38.942 82.2529 42.5528 82.2529 47.007C82.2529 51.4612 85.7702 55.072 90.109 55.072Z" fill="#025464"/>
<path d="M108.252 76.906C117.701 76.906 125.361 69.0424 125.361 59.3423C125.361 49.6421 117.701 41.7786 108.252 41.7786C98.8029 41.7786 91.143 49.6421 91.143 59.3423C91.143 69.0424 98.8029 76.906 108.252 76.906Z" fill="#A0616A"/>
<path d="M102.827 78.5978C101.009 79.5867 95.8923 75.9562 94.0615 71.0915C92.8838 67.962 90.0205 68.4826 88.1933 64.5797C87.1287 62.3056 90.3079 60.0809 89.7835 58.1146C88.8334 54.552 90.0246 51.3645 90.1763 50.974C91.4864 47.6032 93.4175 47.6816 94.9748 43.7581C95.9123 41.396 95.3108 41.1194 96.0989 39.911C98.3732 36.4235 104.972 36.2908 109.626 37.9401C111.237 38.5108 115.116 35.4527 118.266 37.6681C121.976 40.2783 124.444 47.8021 123.876 49.1807C123.531 50.0184 121.61 49.165 117.615 49.8096C113.917 50.4064 118.798 53.2434 114.636 54.2104C109.713 55.354 108.231 54.3104 106.867 55.909C105.425 57.5989 105.158 61.0194 106.474 63.0497C107.127 64.0572 107.969 64.4128 107.863 65.114C107.671 66.3941 106.563 65.6982 106.2 67.0563C105.777 68.636 109.283 70.7071 108.978 71.1849C108.917 71.2811 108.654 71.3854 105.231 70.0308C103.864 69.49 103.337 69.023 103.183 69.1958C102.935 69.4755 101.706 72.2803 103.103 73.4733C105.276 75.3299 103.77 76.0672 104.761 77.521C105.783 79.0207 103.983 77.9694 102.827 78.5978Z" fill="#025464"/>
<path d="M106.833 180.078C109.564 184.612 114.056 186.841 116.866 185.057C119.677 183.272 119.741 178.151 117.009 173.616C115.942 171.789 114.464 170.251 112.699 169.13L100.894 150.069L92.299 155.947L104.849 174.114C105.037 176.236 105.718 178.281 106.833 180.078Z" fill="#A0616A"/>
<path d="M91.2533 87.3674C91.2533 87.3674 71.337 91.2826 73.0321 101.288C74.7271 111.293 85.4261 152.066 85.4261 152.066L94.2196 162.19L104.813 154.36L95.9146 117.818L91.2533 87.3674Z" fill="#E57C23"/>
<path d="M186.363 181.697C189.082 186.238 193.569 188.479 196.383 186.702C199.198 184.925 199.275 179.804 196.555 175.261C195.492 173.431 194.018 171.889 192.256 170.764L180.498 151.672L171.889 157.527L184.394 175.727C184.576 177.85 185.251 179.897 186.363 181.697Z" fill="#FFB6B6"/>
<path d="M159.905 89.9784L143.134 94.296C143.134 94.296 149.006 115.779 150.382 123.48C151.758 131.182 180.721 173.614 180.721 173.614L189.481 162.857L163.829 114.325L159.905 89.9784Z" fill="#E6E6E6"/>
</g>
<defs>
<clipPath id="clip0_2_679">
<rect width="328" height="307.309" fill="white"/>
</clipPath>
</defs>
</svg>
