<svg width="328" height="290" viewBox="0 0 328 290" fill="none" xmlns="http://www.w3.org/2000/svg">
<g clip-path="url(#clip0_2_721)">
<path d="M327.918 288.328C326.396 285.414 322.184 284.059 319.456 283.026C313.391 280.728 307.044 279.229 300.742 277.865C291.735 275.916 282.646 274.397 273.54 273.067C262.425 271.444 251.27 270.126 240.098 269.019C227.466 267.768 214.812 266.782 202.139 266.061C188.724 265.286 175.297 264.795 161.859 264.588C148.346 264.387 134.827 264.488 121.321 264.976C108.389 265.442 95.4647 266.259 82.587 267.599C70.955 268.81 59.3463 270.435 47.8696 272.794C38.0478 274.812 28.2721 277.347 18.8654 280.985C16.8998 281.745 14.9544 282.56 13.0291 283.428L13.9364 284.166C17.4222 275.124 21.2602 264.078 15.8143 254.944C13.7131 251.419 9.92599 248.361 5.78176 248.922C2.42323 249.376 -0.88151 252.996 0.213828 256.76C1.16167 260.017 5.45523 261.515 7.8227 259.07C7.90608 258.977 7.96226 258.861 7.98441 258.735C8.00656 258.61 7.99373 258.48 7.94747 258.362C7.90122 258.244 7.82353 258.142 7.72385 258.07C7.62417 257.998 7.50679 257.958 7.38596 257.955C2.92531 258.331 1.52404 263.987 2.99736 267.824C5.28091 273.769 12.878 273.794 17.8875 273.157C18.6669 273.057 18.6763 271.75 17.8875 271.85C13.6266 272.392 7.40098 272.722 4.66282 268.391C2.84645 265.518 3.38729 259.598 7.38596 259.261L6.94921 258.146C5.59436 259.545 3.40038 259.085 2.16402 257.717C0.497478 255.873 1.38931 253.097 3.02503 251.59C7.08038 247.854 12.6163 251.898 14.8773 255.82C19.9468 264.615 16.0691 275.196 12.7452 283.819C12.5144 284.417 13.2275 284.748 13.6526 284.556C22.3863 280.621 31.5873 277.882 40.8359 275.682C51.859 273.124 63.0014 271.18 74.2172 269.857C86.7241 268.312 99.2903 267.322 111.867 266.689C125.09 266.024 138.331 265.762 151.569 265.802C164.958 265.842 178.342 266.183 191.721 266.822C204.536 267.423 217.338 268.281 230.127 269.396C241.648 270.405 253.154 271.627 264.626 273.137C274.334 274.415 284.024 275.89 293.649 277.745C300.739 279.111 307.836 280.637 314.756 282.792C318.429 283.936 322.93 285.148 325.906 287.839C326.287 288.155 326.608 288.544 326.851 288.987C327.235 289.723 328.303 289.065 327.918 288.328Z" fill="#F2F2F2"/>
<path d="M185.645 66.0129L211.113 81.4265C212.194 82.0762 213.473 82.2504 214.674 81.9116C215.875 81.5728 216.902 80.7482 217.534 79.6156C217.86 79.0297 218.071 78.3796 218.152 77.705C218.233 77.0303 218.184 76.3452 218.006 75.6914C217.829 75.0377 217.528 74.4289 217.121 73.9024C216.714 73.3758 216.21 72.9424 215.639 72.6285L188.72 57.4752L172.73 47.5383C172.842 46.6485 172.691 45.7441 172.3 44.9479C171.908 44.1517 171.294 43.5023 170.541 43.0879C169.788 42.6735 168.933 42.5142 168.092 42.6317C167.25 42.7492 166.464 43.1378 165.838 43.7446C165.213 44.3515 164.78 45.1471 164.597 46.0236C164.414 46.9 164.491 47.8147 164.817 48.6434C165.143 49.4721 165.702 50.1746 166.419 50.6554C167.135 51.1363 167.974 51.3722 168.822 51.3311L185.645 66.0129Z" fill="#FFB6B6"/>
<path d="M204.584 80.7601C204.658 81.0738 204.828 81.3532 205.067 81.5553C205.305 81.7573 205.6 81.8709 205.906 81.8785C206.283 81.8955 206.646 82.0366 206.943 82.2821C207 82.3302 207.054 82.3823 207.105 82.438C207.402 82.7811 207.773 83.0433 208.186 83.2023C208.6 83.3613 209.043 83.4125 209.479 83.3514C210.912 83.1287 212.582 83.6536 213.965 84.3065C215.477 85.021 216.976 85.8329 218.606 86.1437C220.958 86.592 223.729 85.8231 224.387 82.7559C224.648 81.4467 224.474 80.0826 223.894 78.8933C222.714 76.3897 220.41 74.8824 218.192 73.4627L219.33 73.5712C216.882 72.0652 214.747 70.052 213.052 67.6522C212.829 68.2863 211.877 68.2222 211.465 67.7044C211.053 67.1865 211.005 66.4604 210.896 65.7936C210.758 64.9532 210.381 64.0013 209.391 64.0664C209.155 64.089 208.925 64.1631 208.717 64.284C208.509 64.4049 208.327 64.57 208.182 64.7689C205.369 68.4661 203.309 72.7385 202.132 77.3178C201.871 78.335 201.667 79.4742 202.144 80.3995C202.621 81.3248 204.076 81.6671 204.584 80.7601Z" fill="#025464"/>
<path d="M144.088 140.747C142.645 140.666 141.252 140.163 140.064 139.293C138.876 138.423 137.94 137.221 137.36 135.821C136.034 132.692 136.508 128.987 138.14 126.097C139.842 123.082 142.504 121.298 145.381 119.72C148.018 118.274 150.857 116.579 152.059 113.532C152.598 112.207 152.669 110.722 152.258 109.348C152.064 108.701 151.755 108.099 151.348 107.574C150.872 107.041 150.293 106.623 149.651 106.347C149.024 106.003 148.731 105.359 148.419 104.72C148.074 104.01 147.696 103.325 147.317 102.635C146.417 100.994 145.553 99.3332 144.724 97.6507C141.4 90.9427 138.707 83.9055 136.684 76.6406C132.905 62.9402 131.726 48.2061 134.89 34.2307C136.402 27.5511 138.872 21.0072 142.512 15.2956C145.866 10.0315 150.468 5.37949 156.23 3.27611C161.768 1.25443 168.538 1.45128 173.281 5.45204C177.177 8.73806 179.467 14.4843 178.41 19.7159C178.155 20.9846 177.698 22.1983 177.059 23.3057L178.188 23.809C180.942 15.9743 190.178 13.0307 197.298 15.1736C206.001 17.7932 210.619 27.6776 211.018 36.6428C211.508 47.6427 206.031 57.7831 199.586 65.9823C192.949 74.364 185.188 81.673 176.549 87.6768C167.956 93.6933 158.597 98.3847 148.752 101.61C147.534 102.007 146.309 102.381 145.078 102.732C144.925 102.783 144.796 102.894 144.72 103.043C144.643 103.192 144.624 103.366 144.667 103.53C144.709 103.693 144.81 103.833 144.948 103.919C145.086 104.005 145.25 104.031 145.406 103.992C155.765 101.02 165.655 96.4559 174.759 90.4445C183.883 84.4443 192.114 77.0459 199.184 68.4907C206.056 60.1358 212.164 49.8495 212.284 38.4233C212.383 29.0246 208.214 18.493 199.574 14.6423C192.403 11.446 182.699 13.5021 178.311 20.6521C177.777 21.5348 177.336 22.477 176.997 23.4617C176.747 24.1729 177.773 24.5788 178.126 23.965C180.921 19.1017 180.172 12.8138 177.28 8.19364C173.991 2.93737 168.177 0.469558 162.334 0.725135C148.767 1.31848 140.07 14.2774 135.783 26.5842C130.946 40.4736 130.872 55.8119 133.843 70.1558C135.45 77.7692 137.809 85.183 140.88 92.2754C142.427 95.8834 144.135 99.407 146.006 102.846C146.401 103.574 146.824 104.286 147.186 105.033C147.467 105.727 147.848 106.37 148.316 106.94C148.825 107.476 149.549 107.597 150.091 108.067C150.643 108.601 151.021 109.307 151.171 110.082C151.967 113.541 148.915 116.165 146.408 117.66C144.848 118.591 143.2 119.361 141.702 120.407C140.391 121.311 139.218 122.424 138.227 123.706C136.215 126.341 135.069 129.684 135.424 133.091C135.565 134.677 136.058 136.206 136.862 137.552C137.667 138.899 138.76 140.026 140.054 140.841C141.283 141.594 142.669 142.011 144.088 142.054C144.884 142.078 144.883 140.772 144.088 140.747Z" fill="#E57C23"/>
<path d="M88.7634 131.679L94.5282 99.0207L112.646 97.2789L124.54 132.817L88.7634 131.679Z" fill="#A0616A"/>
<path d="M216.824 101.633L202 136.034L236.383 139.836L245.648 98.1497L216.824 101.633Z" fill="#FFB6B6"/>
<path d="M269.383 237.153L266.356 240.727L251.592 229.806L256.059 224.532L269.383 237.153Z" fill="#FFB6B6"/>
<path d="M265.193 253.726C265.594 254.105 266.121 254.301 266.658 254.27C267.195 254.238 267.698 253.983 268.057 253.56L274.075 246.455L272.717 242.965L275.514 244.754L277.786 242.074L268.608 234.737L267.767 235.622L264.325 239.222L263.217 240.385L265.635 242.676L264.534 251.86C264.493 252.204 264.532 252.554 264.646 252.879C264.761 253.204 264.949 253.495 265.193 253.726Z" fill="#025464"/>
<path d="M210.596 269.717L206.062 269.894L203.244 251.076L209.934 250.814L210.596 269.717Z" fill="#FFB6B6"/>
<path d="M196.408 278.035C196.428 278.603 196.661 279.14 197.055 279.527C197.449 279.914 197.972 280.12 198.51 280.1L207.523 279.746L208.955 276.289L209.68 279.66L213.081 279.529L211.702 267.45L210.516 267.423L205.676 267.304L204.115 267.268L204.235 270.699L197.22 276.238C196.958 276.446 196.746 276.718 196.605 277.031C196.463 277.344 196.396 277.688 196.408 278.035Z" fill="#025464"/>
<path d="M237.422 133.18H203.336L192.529 158.241C192.529 158.241 184.214 200.729 188.824 211.365C193.353 221.816 202 258.829 202 258.829L211.059 256.652L213.118 250.12C213.118 250.12 209.642 244.01 210.647 241.846C211.653 239.683 208.177 239.669 208.177 239.669C208.177 239.669 208.231 238.235 208.589 234.008C208.946 229.782 205.294 203.527 205.294 203.527L217.647 162.595L237.422 133.18Z" fill="#025464"/>
<path d="M210.576 141.505L217.647 162.595L213.552 198.035C213.419 199.185 213.561 200.352 213.966 201.428C214.371 202.505 215.026 203.457 215.87 204.196L253.883 237.492L262.53 227.041L259.743 224.532C259.743 224.532 255.212 222.971 256.401 221.523C257.589 220.074 253.457 218.873 253.457 218.873C253.457 218.873 252.783 221.903 250.245 215.981C247.707 210.059 232.436 199.948 232.436 199.948C232.436 199.948 253.472 153.015 237.422 133.18L210.576 141.505Z" fill="#025464"/>
<path d="M57.6161 231.493L60.6431 235.066L75.4071 224.145L70.9394 218.871L57.6161 231.493Z" fill="#A0616A"/>
<path d="M62.465 246.2L61.3643 237.015L63.7823 234.725L62.6743 233.561L59.2326 229.961L58.3909 229.077L49.2129 236.414L51.4853 239.093L54.2826 237.305L52.9244 240.795L58.942 247.9C59.2305 248.24 59.6144 248.474 60.0376 248.568C60.4609 248.661 60.9013 248.609 61.2946 248.42C61.688 248.23 62.0136 247.912 62.2242 247.513C62.4347 247.113 62.5191 246.653 62.465 246.2Z" fill="#025464"/>
<path d="M97.0992 251.51L101.222 253.512L110.648 237.274L104.563 234.319L97.0992 251.51Z" fill="#A0616A"/>
<path d="M107.088 262.955L102.618 254.996L103.973 251.876L102.518 251.276L98.0047 249.424L96.8994 248.968L91.2463 259.564L94.3401 261.064L96.2319 258.245L96.3013 262.019L104.498 265.999C104.891 266.19 105.331 266.243 105.754 266.15C106.178 266.058 106.562 265.825 106.851 265.485C107.141 265.145 107.32 264.716 107.362 264.261C107.405 263.806 107.309 263.349 107.088 262.955Z" fill="#025464"/>
<path d="M89.5771 127.52H123.663L134.47 152.58C134.47 152.58 145.999 197.431 138.176 205.705C130.352 213.978 108.94 242.282 108.94 242.282L101.528 239.234L121.705 197.867L109.352 156.935L89.5771 127.52Z" fill="#025464"/>
<path d="M116.423 135.844L109.352 156.935L113.448 192.374C113.581 193.524 113.438 194.691 113.033 195.768C112.628 196.844 111.973 197.796 111.129 198.535L74.7631 225.3L69.4101 218.768L94.5638 194.287C94.5638 194.287 73.5278 147.355 89.5771 127.52L116.423 135.844Z" fill="#025464"/>
<path d="M239.883 124.276L209.824 116.003C209.824 116.003 210.937 105.562 209.145 105.992C207.353 106.423 208.938 102.939 208.938 102.939C208.938 102.939 210.236 101.633 208.721 99.7351C203.541 93.2437 207.716 84.903 207.716 84.903C207.845 80.7981 209.331 76.8711 211.916 73.8051C214.5 70.7392 218.019 68.7284 221.86 68.1225L233.025 66.3617C235.346 66.3617 237.64 66.8938 239.748 67.9213C241.857 68.9489 243.729 70.4474 245.237 72.3138C246.746 74.1802 247.853 76.3701 248.484 78.7326C249.115 81.0952 249.254 83.5743 248.892 85.9993L239.883 124.276Z" fill="#025464"/>
<path d="M234.942 70.281L218.059 70.7165L219.706 62.443H232.06L234.942 70.281Z" fill="#025464"/>
<path d="M259.934 109.64L240.65 86.2519C239.836 85.2585 239.423 83.9663 239.502 82.6543C239.581 81.3422 240.144 80.1155 241.071 79.2389C241.55 78.7854 242.112 78.4398 242.721 78.2233C243.331 78.0068 243.976 77.9239 244.617 77.9796C245.258 78.0353 245.881 78.2285 246.449 78.5473C247.017 78.8662 247.518 79.304 247.921 79.8342L267.249 104.779L279.597 119.412C280.4 119.122 281.268 119.101 282.083 119.351C282.898 119.601 283.621 120.111 284.153 120.81C284.685 121.51 285 122.365 285.056 123.261C285.112 124.156 284.906 125.048 284.465 125.816C284.025 126.583 283.372 127.188 282.596 127.55C281.819 127.911 280.955 128.011 280.123 127.835C279.291 127.66 278.53 127.217 277.943 126.569C277.357 125.92 276.974 125.096 276.846 124.208L259.934 109.64Z" fill="#FFB6B6"/>
<path d="M242.547 92.8919C242.242 92.8765 241.949 92.7555 241.715 92.5475C241.481 92.3394 241.318 92.0558 241.251 91.7403C241.161 91.3526 240.959 91.0041 240.673 90.7437C240.618 90.694 240.559 90.6482 240.497 90.6067C240.121 90.3659 239.805 90.0326 239.576 89.6352C239.348 89.2377 239.214 88.7877 239.185 88.3236C239.111 86.7946 238.296 85.1651 237.42 83.8596C236.461 82.4311 235.414 81.036 234.807 79.4062C233.93 77.0552 234.1 74.0311 236.815 72.7477C237.978 72.2208 239.277 72.1339 240.493 72.5016C243.046 73.2346 244.896 75.3291 246.647 77.3506L246.323 76.1921C248.199 78.4353 250.485 80.2548 253.042 81.5412C252.498 81.8972 252.744 82.8717 253.305 83.1974C253.866 83.5232 254.549 83.4305 255.188 83.4134C255.995 83.3919 256.951 83.5954 257.085 84.6351C257.11 84.8848 257.086 85.1373 257.015 85.3768C256.944 85.6163 256.826 85.8376 256.67 86.0268C253.793 89.6687 250.235 92.642 246.22 94.7599C245.328 95.2298 244.311 95.6649 243.36 95.3515C242.408 95.038 241.806 93.5961 242.547 92.8919Z" fill="#025464"/>
<path d="M213.436 46.2547C217.195 53.1017 210.118 64.6385 217.25 67.0342L216.663 66.4128C212.357 60.8125 221.356 48.9591 217.051 43.3588C216.382 42.5373 215.808 41.6346 215.34 40.6698L213.436 46.2547Z" fill="#025464"/>
<path d="M242.762 45.2166C242.763 47.4356 242.249 49.6209 241.264 51.5806C240.28 53.5403 238.856 55.2146 237.117 56.4564C235.378 57.6982 233.377 58.4696 231.29 58.7028C229.204 58.936 227.095 58.624 225.149 57.7941C223.203 56.9643 221.479 55.6419 220.129 53.9431C218.779 52.2443 217.844 50.221 217.406 48.0509C216.968 45.8807 217.041 43.6301 217.617 41.4965C218.194 39.3629 219.257 37.4117 220.713 35.814L220.775 35.749C220.877 35.6351 220.98 35.5212 221.087 35.4127L221.089 35.4123L221.091 35.4112L221.092 35.4094L221.093 35.4073C221.226 35.2772 221.359 35.147 221.498 35.0223C223.35 33.305 225.631 32.1885 228.068 31.8067C230.505 31.425 232.994 31.794 235.238 32.8696C237.482 33.9452 239.385 35.6819 240.719 37.8717C242.053 40.0614 242.763 42.6115 242.762 45.2166Z" fill="#025464"/>
<path d="M226.785 59.7206C232.721 59.7206 237.534 54.6312 237.534 48.3531C237.534 42.075 232.721 36.9856 226.785 36.9856C220.848 36.9856 216.035 42.075 216.035 48.3531C216.035 54.6312 220.848 59.7206 226.785 59.7206Z" fill="#FFB8B8"/>
<path d="M234.464 37.4237C232.799 35.7756 230.729 34.6575 228.49 34.1978C226.251 33.7381 223.935 33.9556 221.808 34.8251C221.753 34.8508 221.693 34.8764 221.638 34.9021C221.426 34.9919 221.213 35.0946 221.001 35.2037L220.879 35.2614V35.2807L220.807 35.3384C220.756 35.3868 220.696 35.422 220.631 35.4411C219.697 35.4147 218.768 35.5972 217.906 35.9764C217.043 36.3557 216.266 36.9232 215.625 37.6418C213.963 39.5539 213.174 42.6465 213.417 46.3423L213.423 46.4578L213.52 46.522C213.55 46.5412 213.574 46.5605 213.605 46.5797C214.454 47.1379 215.261 47.632 216.044 48.0683C216.517 48.3378 216.978 48.5816 217.439 48.8062L217.603 48.8832C217.779 48.973 217.961 49.0564 218.137 49.1399C222.578 51.193 226.674 51.5139 230.606 50.1344L230.678 50.1087L232.001 47.7668L232.42 47.0289C232.511 47.555 232.565 48.3827 232.626 49.3323C232.694 50.8148 232.85 52.2913 233.093 53.7532V53.766C233.336 55.0621 233.712 56.1079 234.331 56.4544C234.423 56.5164 234.526 56.5579 234.634 56.5763L235.617 55.2032L238.202 51.5973L238.244 51.3856C239.294 46.3744 237.777 40.7666 234.464 37.4237Z" fill="#025464"/>
<path d="M265.001 15.8499C262.823 12.7958 260.825 4.17241 257.628 2.38871C257.306 2.20903 256.985 2.0422 256.657 1.88822C256.977 2.69641 257.039 3.59314 256.833 4.44188C256.548 5.48136 255.82 6.30905 255.11 7.09181C253.138 9.27979 251.164 11.4656 249.188 13.6493C250.516 11.7891 251.46 9.6551 251.96 7.38502C252.459 5.11495 252.503 2.75931 252.088 0.470242C250.44 0.210044 248.762 0.262187 247.131 0.624229C243.6 1.43268 240.36 3.96066 238.958 7.48323C237.763 10.4604 237.933 13.8418 238.315 17.0499C238.698 20.258 239.286 23.5047 238.861 26.7064C238.443 29.9145 236.774 33.1676 233.929 34.361C234.56 33.9568 234.517 32.8725 233.989 32.3335C233.559 31.943 233.002 31.7451 232.436 31.7817C232.259 31.7802 232.082 31.7952 231.908 31.8266C229.645 32.2052 227.989 34.207 226.545 36.0934C226.179 36.1476 225.835 36.3067 225.55 36.5533C225.264 36.7999 225.048 37.1247 224.925 37.4922C224.788 37.8791 224.788 38.3051 224.925 38.692C225.404 39.9625 227.333 40.2063 228.08 39.0898C227.867 40.0037 227.843 40.9552 228.009 41.8797C228.176 42.8042 228.529 43.6799 229.044 44.4471C229.559 45.2144 230.225 45.8551 230.996 46.3258C231.766 46.7964 232.624 47.0858 233.51 47.1744C236.125 47.4374 240.281 47.8545 242.01 45.7564C244.71 42.4712 248.854 39.1797 249.291 34.8487C249.722 30.5241 251.985 31.3839 252.932 27.1491C253.878 22.908 257.768 21.445 261.426 19.4496C265.516 17.2167 261.245 13.0268 265.001 15.8499Z" fill="#025464"/>
<path d="M231.92 47.6182C235.678 54.4652 228.601 66.002 235.733 68.3977L235.146 67.7763C230.84 62.176 239.839 50.3226 235.534 44.7223C234.865 43.9008 234.291 42.9981 233.823 42.0333L231.92 47.6182Z" fill="#025464"/>
<path d="M237.742 51.2788C237.742 51.2788 234.558 38.7094 220.908 35.8084C220.893 35.803 220.841 35.7813 220.775 35.7488C220.734 35.7217 220.682 35.6945 220.631 35.6674C220.785 35.5752 220.934 35.4939 221.087 35.4125L221.089 35.4121L221.091 35.411L221.092 35.4092L221.092 35.4071C221.226 35.277 221.359 35.1468 221.498 35.0221L221.887 35.0384C221.887 35.0384 235.583 32.7447 237.742 51.2788Z" fill="#FD6584"/>
<path d="M118.454 108.12L106.273 76.7379C105.761 75.4068 105.764 73.9159 106.282 72.5872C106.8 71.2585 107.791 70.1983 109.042 69.6356C109.689 69.3444 110.385 69.1957 111.088 69.1984C111.791 69.2011 112.486 69.3552 113.131 69.6513C113.776 69.9474 114.357 70.3793 114.839 70.9206C115.321 71.462 115.694 72.1014 115.934 72.8L127.642 105.809L135.555 125.549C136.483 125.547 137.389 125.848 138.149 126.41C138.91 126.972 139.488 127.768 139.806 128.69C140.124 129.612 140.166 130.615 139.926 131.563C139.686 132.51 139.176 133.357 138.465 133.987C137.754 134.618 136.877 135.002 135.952 135.087C135.028 135.172 134.102 134.954 133.298 134.463C132.495 133.971 131.855 133.23 131.464 132.341C131.073 131.451 130.95 130.455 131.113 129.489L118.454 108.12Z" fill="#A0616A"/>
<path d="M106.029 84.3161C105.718 84.1865 105.455 83.9525 105.282 83.6501C105.109 83.3476 105.034 82.9934 105.07 82.6419C105.106 82.2072 105.013 81.7715 104.804 81.3955C104.763 81.3233 104.717 81.254 104.667 81.1882C104.357 80.799 104.141 80.3365 104.037 79.8401C103.933 79.3437 103.943 78.828 104.068 78.3368C104.5 76.7266 104.199 74.7372 103.726 73.0599C103.209 71.2246 102.59 69.3913 102.503 67.4783C102.377 64.7187 103.559 61.6518 106.796 61.3335C108.175 61.2207 109.549 61.614 110.686 62.4471C113.084 64.1554 114.302 67.0112 115.442 69.755L115.492 68.4355C116.688 71.4553 118.448 74.1886 120.667 76.4715C119.985 76.6375 119.916 77.7377 120.388 78.2835C120.86 78.8293 121.598 78.9874 122.266 79.2077C123.108 79.4853 124.03 80.0518 123.822 81.1777C123.766 81.4455 123.657 81.6981 123.504 81.9194C123.35 82.1408 123.155 82.3262 122.931 82.464C118.741 85.1633 114.069 86.9173 109.209 87.6158C108.129 87.7702 106.932 87.8425 106.052 87.1641C105.171 86.4857 105.027 84.7691 106.029 84.3161Z" fill="#E6E6E6"/>
<path d="M118.823 115.567L91.5673 115.929C91.5673 115.929 88.5108 115.787 88.5108 113.834C88.5108 111.881 90.2193 111.473 87.9801 109.968C85.741 108.464 84.8177 109.44 85.2793 106.999C85.741 104.559 86.2026 103.751 86.2026 103.179C86.2026 102.606 85.741 100.165 85.741 97.7239C85.741 96.5405 89.336 94.3918 88.4417 87.457C87.352 79.008 87.7343 66.078 95.4355 63.5505L100.975 53.2985H111.535L114.825 63.5505L118.724 68.9544C118.724 68.9544 126.416 79.2403 124.108 84.6104C121.799 89.9805 118.823 115.567 118.823 115.567Z" fill="#E6E6E6"/>
<path d="M143.263 66.9315L112.444 76.3418C111.137 76.7364 109.736 76.5718 108.543 75.8836C107.35 75.1954 106.461 74.0386 106.067 72.6631C105.863 71.9515 105.799 71.2035 105.877 70.4646C105.956 69.7258 106.176 69.0116 106.524 68.3657C106.872 67.7197 107.341 67.1555 107.902 66.7074C108.463 66.2593 109.105 65.9368 109.787 65.7594L142.084 57.0222L161.498 50.8384C161.597 49.8629 161.978 48.9433 162.588 48.2046C163.199 47.466 164.01 46.944 164.911 46.7096C165.812 46.4752 166.759 46.5399 167.624 46.8947C168.489 47.2495 169.23 47.8773 169.746 48.6928C170.262 49.5083 170.528 50.472 170.507 51.4529C170.487 52.4338 170.182 53.3844 169.633 54.1755C169.085 54.9666 168.319 55.5599 167.44 55.8748C166.562 56.1897 165.612 56.2108 164.722 55.9354L143.263 66.9315Z" fill="#A0616A"/>
<path d="M119.542 77.4192C119.386 77.7323 119.138 77.9827 118.835 78.132C118.532 78.2813 118.191 78.3213 117.864 78.2459C117.46 78.1608 117.04 78.2115 116.664 78.3909C116.591 78.4265 116.521 78.4671 116.454 78.5123C116.055 78.7956 115.597 78.9727 115.119 79.0287C114.641 79.0846 114.157 79.0177 113.709 78.8336C112.242 78.2055 110.339 78.3063 108.711 78.622C106.93 78.9674 105.139 79.4201 103.332 79.3046C100.724 79.1378 97.9685 77.5636 98.0195 74.1258C98.0626 72.6639 98.5809 71.2625 99.4871 70.1576C101.353 67.8209 104.169 66.8499 106.872 65.9482L105.637 65.7524C108.605 64.822 111.365 63.2671 113.751 61.1812C113.833 61.9159 114.86 62.1079 115.424 61.6705C115.988 61.2331 116.217 60.4749 116.496 59.7966C116.848 58.9418 117.481 58.0334 118.517 58.3733C118.762 58.462 118.988 58.6034 119.179 58.7887C119.371 58.974 119.524 59.1992 119.629 59.4501C121.714 64.1462 122.857 69.2474 122.988 74.4332C123.016 75.585 122.955 76.8508 122.222 77.7032C121.489 78.5557 119.859 78.5214 119.542 77.4192Z" fill="#E6E6E6"/>
<path d="M104.414 55.1375C111.213 55.1375 116.725 49.3088 116.725 42.1187C116.725 34.9286 111.213 29.0999 104.414 29.0999C97.615 29.0999 92.1031 34.9286 92.1031 42.1187C92.1031 49.3088 97.615 55.1375 104.414 55.1375Z" fill="#A0616A"/>
<path d="M94.9012 32.4939C95.0279 31.3222 95.7873 29.8741 96.3155 28.8355C96.8437 27.7969 97.8637 26.9488 98.9767 27.0212C99.4316 27.0769 99.8669 27.2481 100.246 27.5203C100.624 27.7924 100.935 28.1574 101.151 28.584C101.576 29.4431 101.808 30.3942 101.828 31.3634C101.944 33.5259 101.603 35.6885 100.829 37.6936C100.054 39.6988 98.8665 41.496 97.352 42.9541C96.4892 43.7724 95.4508 44.5007 94.292 44.5284C93.7658 44.5151 93.2474 44.3906 92.7674 44.1623C92.2873 43.934 91.8553 43.6064 91.4968 43.1989C89.6212 41.2126 89.3377 37.9471 90.3393 35.3476C91.3409 32.7481 91.788 31.7366 94.0777 30.3166" fill="#025464"/>
<path d="M112.196 51.2181C111.99 52.3764 113.884 57.8848 113.279 58.8776C113.279 58.8776 107.011 61.1798 104.614 61.3453C101.687 61.5456 99.3319 60.2754 96.5936 58.3638C96.544 57.3268 96.2602 56.3174 95.7659 55.4202C95.8074 56.1152 95.6738 56.8093 95.3789 57.4319C91.3682 54.0529 89.8628 44.7608 93.8281 40.4456L97.9458 30.4303C96.7105 30.8657 100.44 24.1377 104.372 29.0104C109.293 23.711 118.825 31.34 120.019 38.1548C118.87 36.6166 118.272 36.7979 117.977 37.8587C117.638 36.9665 117.101 36.1734 116.412 35.5464C116.755 36.2628 116.93 37.0558 116.923 37.8586C109.161 38.3681 110.606 43.9056 116.967 52.2009C114.615 50.6522 116.202 57.326 114.946 58.9212C114.884 57.8064 112.418 52.3024 112.196 51.2181Z" fill="#025464"/>
<path d="M100.994 40.5527C100.895 40.5526 100.799 40.5145 100.724 40.4456C100.65 40.3766 100.601 40.2813 100.587 40.1773C100.573 40.0732 100.596 39.9675 100.65 39.8795C100.704 39.7915 100.787 39.7272 100.882 39.6984C100.99 39.51 100.946 38.7172 100.91 38.0765C100.776 35.6712 100.552 31.6454 104.248 28.9279C104.292 28.8951 104.342 28.8718 104.395 28.8595C104.448 28.8471 104.503 28.8459 104.556 28.856C104.61 28.866 104.661 28.8871 104.706 28.918C104.752 28.9489 104.791 28.989 104.822 29.036C104.853 29.0831 104.875 29.1361 104.886 29.192C104.898 29.248 104.899 29.3058 104.889 29.3622C104.88 29.4186 104.859 29.4724 104.83 29.5205C104.801 29.5686 104.763 29.6102 104.718 29.6428C101.401 32.0817 101.6 35.6586 101.732 38.0253C101.808 39.3784 101.862 40.3558 101.086 40.5419C101.056 40.5491 101.025 40.5528 100.994 40.5527Z" fill="#E57C23"/>
<path d="M101.186 36.8064C98.6731 37.9094 95.9962 38.5368 93.2777 38.6599C91.1213 38.7565 88.5487 38.2481 87.6721 36.1624C87.1403 34.8972 87.4236 33.4141 87.9101 32.1286C88.3965 30.8431 89.0792 29.6286 89.3608 28.2764C89.9676 25.3634 88.5354 22.2764 86.3374 20.4071C84.1393 18.5378 81.3026 17.713 78.5043 17.3379C80.6067 16.513 82.7413 15.6803 84.9759 15.4825C87.2105 15.2846 89.5969 15.7983 91.2654 17.3827C93.0709 19.0973 93.7646 21.7603 94.0717 24.3058C94.3788 26.8513 94.3947 29.4729 95.2107 31.8897C96.0266 34.3064 97.9009 36.5571 100.319 36.7714" fill="#025464"/>
<path d="M291.922 228.683C292.013 227.863 291.95 227.031 291.737 226.236C291.524 225.441 291.166 224.699 290.681 224.05C290.197 223.402 289.597 222.861 288.915 222.458C288.233 222.055 287.483 221.798 286.707 221.702C286.692 221.7 286.678 221.699 286.663 221.698L286.663 221.696L286.662 221.697L286.667 221.651L286.623 221.646C286.713 220.794 286.637 219.933 286.401 219.113C286.164 218.294 285.772 217.534 285.248 216.881C284.724 216.227 284.08 215.694 283.354 215.313C282.628 214.933 281.837 214.713 281.028 214.667C280.219 214.622 279.41 214.751 278.65 215.048C277.89 215.345 277.195 215.803 276.609 216.393C276.022 216.984 275.556 217.696 275.238 218.484C274.921 219.272 274.759 220.12 274.763 220.977L273.464 232.681L273.507 232.686L273.508 232.685L284.619 234.064C285.437 234.274 286.287 234.298 287.114 234.134C287.942 233.971 288.726 233.623 289.417 233.114C290.107 232.605 290.688 231.947 291.119 231.183C291.551 230.419 291.825 229.567 291.922 228.683Z" fill="#F2F2F2"/>
<path d="M45.8389 206.846C45.0579 206.828 44.2812 206.973 43.5531 207.272C42.8251 207.572 42.1599 208.02 41.5957 208.592C41.0315 209.163 40.5792 209.846 40.2647 210.602C39.9501 211.359 39.7796 212.173 39.7626 212.999C39.7623 213.014 39.763 213.03 39.7628 213.045L39.7617 213.045L39.7626 213.046L39.7189 213.045L39.7179 213.093C38.9079 213.079 38.1038 213.241 37.355 213.567C36.6061 213.894 35.9282 214.379 35.3629 214.992C34.7975 215.606 34.3567 216.335 34.0673 217.135C33.778 217.936 33.6463 218.79 33.6802 219.646C33.7142 220.502 33.9131 221.341 34.2648 222.113C34.6165 222.885 35.1135 223.572 35.7254 224.134C36.3374 224.695 37.0513 225.118 37.8234 225.378C38.5955 225.637 39.4096 225.727 40.2156 225.641L51.3562 225.896L51.3572 225.85L51.3563 225.849L51.5985 214.022C51.7185 213.141 51.6601 212.243 51.4273 211.388C51.1944 210.533 50.7924 209.74 50.2479 209.061C49.7033 208.383 49.0286 207.834 48.2685 207.452C47.5084 207.07 46.6803 206.864 45.8389 206.846Z" fill="#F2F2F2"/>
</g>
<defs>
<clipPath id="clip0_2_721">
<rect width="328" height="289" fill="white" transform="translate(0 0.308716)"/>
</clipPath>
</defs>
</svg>
