<svg width="328" height="279" viewBox="0 0 328 279" fill="none" xmlns="http://www.w3.org/2000/svg">
<g clip-path="url(#clip0_2_810)">
<path d="M54.4031 97.5572C53.6357 97.6323 52.8635 97.6498 52.0934 97.6095C51.9621 97.5956 51.8304 97.6323 51.7267 97.7118C51.623 97.7912 51.5555 97.9071 51.5389 98.0344L50.0656 108.773C49.9522 109.552 49.6238 110.287 49.115 110.9C48.6956 111.388 48.3839 111.954 48.1991 112.564C48.0143 113.173 47.9605 113.813 48.0409 114.444V132.685C48.0409 132.685 47.9459 135.117 49.8691 135.117C52.1709 135.398 54.4998 135.398 56.8016 135.117C56.8016 135.117 58.3415 134.834 58.3415 132.59V114.628C58.4589 114.002 58.4348 113.358 58.2706 112.741C58.1065 112.125 57.8063 111.55 57.3909 111.057C56.8993 110.442 56.5814 109.713 56.4689 108.942L54.9386 97.979C54.9212 97.8557 54.8562 97.7435 54.7567 97.6652C54.6573 97.5868 54.5308 97.5482 54.4031 97.5572Z" fill="white"/>
<path d="M53.3286 135.635C52.1653 135.635 51.003 135.565 49.8487 135.425C49.5907 135.431 49.3343 135.385 49.0956 135.29C48.8568 135.195 48.6408 135.053 48.4612 134.873C47.6785 134.083 47.722 132.73 47.7243 132.673L47.7241 114.463C47.6424 113.793 47.7021 113.114 47.8994 112.468C48.0968 111.821 48.4276 111.221 48.8719 110.703C49.3428 110.134 49.6468 109.453 49.7518 108.73L51.2248 97.9937C51.2535 97.7872 51.3638 97.5996 51.5324 97.4708C51.7009 97.342 51.9145 97.282 52.1278 97.3035C52.8759 97.3418 53.626 97.3243 54.3714 97.2509L54.3802 97.2501C54.5882 97.2355 54.7942 97.2983 54.9562 97.4259C55.1183 97.5536 55.2242 97.7363 55.2525 97.9371L56.7829 108.901C56.8881 109.618 57.1839 110.296 57.6411 110.868C58.0815 111.391 58.4003 112 58.5759 112.654C58.7515 113.308 58.7796 113.991 58.6583 114.656V132.589C58.6583 135.06 56.8785 135.416 56.8605 135.42C55.689 135.563 54.5094 135.635 53.3286 135.635ZM52.0503 97.9156C52.0031 97.9134 51.9569 97.9283 51.9204 97.9574C51.884 97.9866 51.86 98.0278 51.8532 98.0732L50.3796 108.814C50.2584 109.649 49.9066 110.437 49.3616 111.094C48.9698 111.55 48.6784 112.079 48.5054 112.648C48.3323 113.218 48.2812 113.816 48.3554 114.406L48.3578 114.444V132.685C48.3571 132.708 48.3235 133.848 48.9191 134.447C49.0424 134.569 49.1907 134.665 49.3544 134.727C49.5181 134.789 49.6935 134.817 49.8691 134.809L49.9087 134.812C52.1842 135.089 54.4865 135.089 56.7621 134.812C56.7922 134.805 58.0246 134.531 58.0246 132.589L58.0297 114.573C58.1394 113.991 58.1172 113.392 57.9645 112.818C57.8119 112.245 57.5325 111.71 57.1458 111.252C56.618 110.593 56.2765 109.812 56.1553 108.985L54.6246 98.0203C54.6179 97.9753 54.5942 97.9344 54.558 97.9055C54.5219 97.8766 54.476 97.8618 54.4293 97.8641C53.6475 97.9401 52.8609 97.9578 52.0764 97.917C52.0677 97.9161 52.059 97.9156 52.0503 97.9156Z" fill="#3F3D56"/>
<path d="M52.0775 114.77H54.4126C55.3412 114.77 56.2317 115.129 56.8883 115.767C57.5449 116.405 57.9137 117.27 57.9137 118.172V126.709C57.9137 127.612 57.5449 128.477 56.8883 129.115C56.2317 129.753 55.3412 130.111 54.4126 130.111H52.0775C51.149 130.111 50.2584 129.753 49.6019 129.115C48.9453 128.477 48.5764 127.612 48.5764 126.709V118.172C48.5764 117.725 48.667 117.283 48.8429 116.87C49.0189 116.458 49.2768 116.083 49.6019 115.767C49.927 115.451 50.3129 115.2 50.7377 115.029C51.1625 114.858 51.6177 114.77 52.0775 114.77Z" fill="#E57C23"/>
<path d="M9.14728 271.571H16.7603L20.3822 243.037L9.14594 243.038L9.14728 271.571Z" fill="#9F616A"/>
<path d="M7.20544 269.156L22.1983 269.155H22.1989C24.7329 269.155 27.163 270.133 28.9548 271.874C30.7466 273.615 31.7533 275.977 31.7535 278.439V278.741L7.2059 278.741L7.20544 269.156Z" fill="#025464"/>
<path d="M4.36125 169.658C4.36125 169.658 1.06181 173.282 6.52517 187.408L5.56285 264.869L23.2679 264.533L27.1597 226.749L34.2454 171.61L4.36125 169.658Z" fill="#025464"/>
<path d="M40.3176 180.367L40.1238 180.338C17.4741 176.982 0.382265 173.764 0.212262 173.732L-6.10352e-05 173.692L5.93737 159.659C5.89047 158.193 4.60522 117.018 7.0656 105.188C9.4474 93.7356 20.6744 91.8588 21.9538 91.6822L23.2384 87.5464L39.468 95.7523L42.2985 105.218L42.8735 131.162L40.3176 180.367Z" fill="#3F3D56"/>
<path d="M50.0925 126.969C49.3617 126.969 48.6387 127.116 47.9691 127.4C47.2995 127.685 46.6977 128.101 46.2017 128.622H18.9224L8.93018 130.689L10.5707 142.984L46.116 135.556C46.7045 136.202 47.4501 136.694 48.2847 136.988C49.1194 137.282 50.0165 137.368 50.8941 137.238C51.7717 137.109 52.6019 136.767 53.3089 136.246C54.0159 135.724 54.5771 135.039 54.9413 134.252C55.3056 133.465 55.4613 132.603 55.3941 131.742C55.327 130.882 55.0392 130.052 54.557 129.328C54.0748 128.604 53.4136 128.008 52.6338 127.596C51.8539 127.184 50.9802 126.969 50.0925 126.969Z" fill="#9F616A"/>
<path d="M50.3292 82.8985C53.812 76.7077 51.4705 68.9458 45.0993 65.5616C38.7282 62.1775 30.74 64.4527 27.2572 70.6434C23.7744 76.8341 26.1159 84.5961 32.487 87.9802C38.8582 91.3643 46.8464 89.0892 50.3292 82.8985Z" fill="#9F616A"/>
<path d="M26.4281 66.5583L25.7907 65.3118L28.9978 63.7636C28.9978 63.7636 32.5357 58.17 38.9376 59.7419C45.3396 61.3138 48.2199 62.2546 48.2199 62.2546L51.4189 63.8186L49.8134 65.3708L52.6936 66.3116L50.7694 67.2406L53.0083 68.491L51.8031 74.9011C51.8031 74.9011 49.8012 70.0393 45.9528 71.8972C42.1043 73.7551 35.065 70.9368 35.065 70.9368L28.9493 82.4373C28.9493 82.4373 27.6876 78.4058 25.4381 79.4808C25.4381 79.4808 19.6913 70.5878 26.4281 66.5583Z" fill="#025464"/>
<path d="M10.7454 145.289L7.62576 136.272L6.87115 106.216L8.20036 101.951C8.67879 100.416 9.4712 98.991 10.5301 97.7608C11.589 96.5306 12.8926 95.5208 14.3627 94.7919C15.8329 94.063 17.4394 93.63 19.0859 93.5189C20.7324 93.4077 22.3851 93.6207 23.9448 94.1451C25.5046 94.6694 26.9394 95.4944 28.1631 96.5704C29.3869 97.6465 30.3746 98.9516 31.0668 100.407C31.7591 101.863 32.1418 103.44 32.1919 105.043C32.242 106.646 31.9586 108.242 31.3586 109.736L24.2341 127.476L24.5963 128.159L40.0314 128.037L45.5141 137.627L10.7454 145.289Z" fill="#3F3D56"/>
<path d="M165.176 141.584C165.752 141.207 166.236 140.712 166.594 140.134C166.952 139.555 167.175 138.908 167.247 138.237C167.319 137.565 167.239 136.887 167.013 136.249C166.786 135.611 166.418 135.029 165.935 134.545L173.543 119.901L164.829 120.883L158.94 134.638C158.156 135.481 157.717 136.574 157.706 137.71C157.696 138.846 158.114 139.947 158.883 140.803C159.652 141.659 160.717 142.211 161.877 142.355C163.037 142.499 164.211 142.225 165.176 141.584Z" fill="#FFB7B7"/>
<path d="M226.193 245.312L219.336 245.312L216.074 219.613L226.194 219.614L226.193 245.312Z" fill="#FFB7B7"/>
<path d="M227.942 251.77L205.833 251.769V251.498C205.833 249.28 206.74 247.153 208.353 245.585C209.967 244.017 212.156 243.136 214.438 243.136H214.439L227.942 243.137L227.942 251.77Z" fill="#025464"/>
<path d="M188.721 245.312L181.864 245.312L178.602 219.613L188.722 219.614L188.721 245.312Z" fill="#FFB7B7"/>
<path d="M188.792 251.77L166.683 251.769V251.498C166.683 249.28 167.59 247.153 169.204 245.585C170.817 244.017 173.006 243.136 175.288 243.136H175.289L188.792 243.137L188.792 251.77Z" fill="#025464"/>
<path d="M188.159 136.775L181.448 151.798L175.912 238.152L189.894 237.608L193.712 196.443L205.493 159.779L212.265 200.654L215.062 236.521L226.631 237.008L231.241 136.775H188.159Z" fill="#025464"/>
<path d="M221.707 62.6406L202.256 63.1134L190.835 68.81L190.209 110.839L183.086 139.856C183.086 139.856 227.589 142.832 233.741 138.484L226.47 105.334L236.222 69.5086L221.707 62.6406Z" fill="#E57C23"/>
<path d="M193.839 69.5066L192.028 68.3184C192.028 68.3184 184.526 70.5032 182.309 80.2231C182.309 80.2231 180.612 85.0997 179.868 88.4525C179.014 92.2981 160.157 127.622 160.157 127.622L171.447 130.769L192.145 98.2446L193.839 69.5066Z" fill="#E57C23"/>
<path d="M235.917 146.974C235.47 146.457 235.146 145.851 234.966 145.199C234.786 144.548 234.755 143.865 234.876 143.201C234.997 142.536 235.267 141.906 235.666 141.353C236.065 140.801 236.583 140.34 237.185 140.004L234.028 123.889L242.126 127.168L243.882 141.968C244.397 142.988 244.509 144.156 244.197 145.251C243.884 146.346 243.17 147.292 242.188 147.909C241.206 148.526 240.025 148.771 238.87 148.599C237.714 148.427 236.663 147.848 235.917 146.974Z" fill="#FFB7B7"/>
<path d="M233.295 70.0103L235.373 69.3533C235.373 69.3533 241.964 73.4635 241.337 83.4007C241.337 83.4007 241.584 88.5429 241.348 91.9652C241.077 95.8905 244.703 134.897 244.703 134.897H232.958L227.925 99.5734L233.295 70.0103Z" fill="#E57C23"/>
<path d="M226.482 45.0077C226.482 47.5991 225.692 50.1323 224.21 52.287C222.728 54.4417 220.622 56.1211 218.158 57.1127C215.694 58.1044 212.983 58.3639 210.367 57.8583C207.752 57.3528 205.349 56.1049 203.463 54.2725C201.577 52.4401 200.293 50.1055 199.773 47.5639C199.253 45.0223 199.52 42.3878 200.54 39.9936C201.561 37.5995 203.289 35.5532 205.507 34.1135C207.724 32.6738 210.331 31.9053 212.998 31.9053C216.565 31.8967 219.99 33.2653 222.519 35.7103C225.048 38.1552 226.473 41.4761 226.482 44.9424C226.482 44.9642 226.482 44.9859 226.482 45.0077Z" fill="#FFB7B7"/>
<path d="M199.559 27.4088C201.138 24.1083 204.195 24.7609 206.868 25.8797C210.254 25.15 213.474 22.9654 217.121 24.2573C220.715 29.3353 232.778 27.8413 230.212 36.1083C230.208 38.0892 234.048 36.9362 233.378 40.1805C235.412 46.4242 226.036 58.2488 220.654 55.7588C221.985 53.3883 225.026 48.0041 220.414 47.4701C210.492 56.4399 219.39 30.3895 206.924 37.9653C202.797 41.6357 197.146 31.0801 199.559 27.4088Z" fill="#025464"/>
<path d="M238.277 148.28C238.92 148.406 239.582 148.393 240.219 148.242C240.856 148.092 241.45 147.808 241.962 147.41C242.473 147.012 242.888 146.51 243.179 145.939C243.469 145.369 243.626 144.743 243.641 144.107L277.499 113.141L269.88 107.236L238.937 139.609C237.835 139.657 236.79 140.095 235.998 140.842C235.207 141.588 234.725 142.591 234.644 143.66C234.562 144.729 234.887 145.789 235.557 146.641C236.227 147.492 237.195 148.076 238.277 148.28Z" fill="#9F616A"/>
<path d="M272.701 118.147L266.114 110.646C265.926 110.432 265.789 110.182 265.71 109.912C265.631 109.642 265.613 109.359 265.656 109.082C265.7 108.805 265.805 108.54 265.964 108.305C266.123 108.071 266.331 107.873 266.576 107.724L275.151 102.507C276.281 101.582 277.742 101.129 279.214 101.248C280.686 101.368 282.05 102.049 283.005 103.144C283.961 104.239 284.431 105.657 284.312 107.088C284.193 108.519 283.495 109.846 282.371 110.777L275.743 118.163C275.554 118.374 275.319 118.543 275.056 118.659C274.793 118.774 274.507 118.833 274.218 118.832C273.93 118.83 273.645 118.768 273.383 118.65C273.121 118.532 272.888 118.36 272.701 118.147Z" fill="#CBCBCB"/>
<path d="M254.988 270.944L246.71 270.944L242.771 239.918L254.989 239.918L254.988 270.944Z" fill="#9F616A"/>
<path d="M257.099 278.741L230.406 278.74V278.412C230.407 275.735 231.501 273.167 233.45 271.274C235.398 269.381 238.041 268.318 240.796 268.317H240.797L257.099 268.318L257.099 278.741Z" fill="#025464"/>
<path d="M321.16 270.944L312.882 270.944L308.944 239.918L321.162 239.918L321.16 270.944Z" fill="#9F616A"/>
<path d="M323.272 278.741L296.579 278.74V278.412C296.579 275.735 297.674 273.167 299.622 271.274C301.571 269.381 304.213 268.318 306.969 268.317H306.969L323.272 268.318L323.272 278.741Z" fill="#025464"/>
<path d="M298.893 134.593L307.238 104.636L296.412 98.724H281.302L275.425 104.834C275.425 104.834 265.607 111.472 267.983 118.826L271.817 135.578L265.953 162.184L236.41 201.995L229.416 241.099L256.946 248.112L286.715 191.155L301.148 254.222L328 252.909L318.747 176.442C318.747 176.442 316.11 153.147 302.284 138.602L298.893 134.593Z" fill="#025464"/>
<path d="M316.126 161.098C316.591 160.65 316.95 160.108 317.177 159.511C317.403 158.914 317.492 158.275 317.437 157.641C317.383 157.007 317.186 156.392 316.86 155.84C316.534 155.287 316.088 154.811 315.552 154.445L309.077 112.003L299.785 114.854L309.087 155.73C308.513 156.645 308.305 157.733 308.501 158.788C308.697 159.842 309.285 160.79 310.153 161.452C311.02 162.114 312.108 162.443 313.209 162.378C314.31 162.313 315.348 161.857 316.126 161.098Z" fill="#9F616A"/>
<path d="M310.678 118.664L300.596 119.793C300.31 119.825 300.019 119.797 299.744 119.71C299.47 119.623 299.218 119.48 299.005 119.29C298.793 119.1 298.625 118.868 298.514 118.609C298.402 118.35 298.349 118.071 298.358 117.791L298.685 107.965C298.524 106.539 298.952 105.108 299.875 103.987C300.798 102.867 302.141 102.147 303.609 101.987C305.077 101.827 306.55 102.239 307.706 103.132C308.862 104.026 309.606 105.329 309.775 106.755L312.388 116.219C312.463 116.49 312.477 116.773 312.428 117.05C312.38 117.327 312.271 117.59 312.109 117.822C311.947 118.054 311.735 118.249 311.488 118.395C311.241 118.54 310.964 118.632 310.678 118.664Z" fill="#CBCBCB"/>
<path d="M271.96 90.205V77.5831C271.96 73.0974 273.794 68.7955 277.058 65.6236C280.322 62.4517 284.75 60.6698 289.366 60.6698C293.983 60.6698 298.41 62.4517 301.674 65.6236C304.939 68.7955 306.772 73.0974 306.772 77.5831V90.205C306.772 90.8074 306.525 91.3848 306.087 91.8108C305.648 92.2367 305.054 92.4763 304.434 92.4769H274.298C273.678 92.4763 273.084 92.2367 272.645 91.8108C272.207 91.3848 271.961 90.8074 271.96 90.205Z" fill="#025464"/>
<path d="M291.911 90.6634C298.095 87.3784 300.368 79.844 296.987 73.8348C293.606 67.8256 285.852 65.6171 279.668 68.9021C273.484 72.187 271.211 79.7214 274.591 85.7306C277.972 91.7399 285.726 93.9483 291.911 90.6634Z" fill="#9F616A"/>
<path d="M267.842 78.5928C267.846 75.0456 269.298 71.6449 271.879 69.1367C274.461 66.6285 277.961 65.2176 281.611 65.2136H284.209C287.86 65.2176 291.36 66.6285 293.941 69.1367C296.522 71.645 297.974 75.0457 297.978 78.5928V78.8453H292.488L290.615 73.7502L290.241 78.8453H287.403L286.459 76.2745L286.27 78.8453H267.842V78.5928Z" fill="#025464"/>
<path d="M284.533 93.8963C284.276 93.5572 284.122 93.1542 284.089 92.7338C284.057 92.3133 284.147 91.8925 284.35 91.5199C287.103 86.4317 290.958 77.0299 285.842 71.2317L285.474 70.8151H300.328V92.4843L286.834 94.7976C286.697 94.8211 286.559 94.833 286.42 94.8331C286.052 94.8331 285.689 94.7482 285.361 94.5853C285.033 94.4225 284.749 94.1864 284.533 93.8963Z" fill="#025464"/>
<path d="M148.007 105.435C147.819 105.623 147.646 105.825 147.491 106.04L123.289 105.464L120.465 100.451L112.122 103.603L116.233 112.95C116.565 113.705 117.14 114.335 117.872 114.745C118.604 115.156 119.453 115.324 120.292 115.226L147.636 112.016C148.281 112.81 149.159 113.393 150.154 113.69C151.149 113.986 152.213 113.982 153.205 113.676C154.197 113.371 155.07 112.779 155.707 111.98C156.345 111.181 156.717 110.212 156.774 109.202C156.831 108.193 156.57 107.19 156.026 106.328C155.483 105.466 154.682 104.785 153.73 104.376C152.778 103.967 151.721 103.849 150.699 104.039C149.677 104.228 148.738 104.715 148.007 105.435Z" fill="#FFB7B7"/>
<path d="M69.1124 248.253H77.0701L80.8558 218.428L69.111 218.429L69.1124 248.253Z" fill="#FFB7B7"/>
<path d="M67.0826 245.729L82.7544 245.728H82.755C85.4037 245.729 87.9439 246.751 89.8169 248.571C91.6898 250.391 92.7421 252.859 92.7423 255.433V255.748L67.0831 255.749L67.0826 245.729Z" fill="#025464"/>
<path d="M141.372 248.081L148.69 245.044L140.114 216.171L129.313 220.655L141.372 248.081Z" fill="#FFB7B7"/>
<path d="M138.485 246.535L152.896 240.552L152.897 240.552C155.333 239.541 158.082 239.512 160.54 240.47C162.998 241.429 164.964 243.297 166.005 245.664L166.132 245.954L142.536 255.749L138.485 246.535Z" fill="#025464"/>
<path d="M107.793 111.896L108.368 120.957L91.5477 122.706L73.947 124.536L79.1273 110.777L107.793 111.896Z" fill="#FFB7B7"/>
<path d="M108.384 115.147C108.193 115.074 89.1941 107.893 77.5242 113.765L77.2373 113.909L74.9092 102.775L73.5826 78.8362L82.2146 74.8729L84.5913 69.7L100.78 68.7692L104.106 73.2021L115.432 76.8089L108.663 115.254L108.384 115.147Z" fill="#E4E4E4"/>
<path d="M108.979 93.5391L110.981 78.2516L115.54 76.9032L115.617 76.9308C115.722 76.9683 118.2 77.8898 118.878 81.2231C119.529 84.4226 124.433 104.332 124.482 104.533L124.531 104.732L113.011 109.211L108.979 93.5391Z" fill="#E4E4E4"/>
<path d="M135.445 242.84L150.781 239.783L126.27 174.065L117.881 151.649C117.881 151.649 112.561 133.676 110.157 126.721L108.706 117.389L74.3646 121.082C74.3646 121.082 64.7731 134.769 67.687 157.078L66.3691 240.929L81.7047 241.694L94.55 157.126L117.095 203.485C117.095 203.485 124.201 223.268 129.285 227.556L135.445 242.84Z" fill="#025464"/>
<path d="M88.1362 124.194C87.8661 124.188 87.596 124.203 87.3283 124.238L71.3073 106.602L73.171 101.181L65.12 97.3794L60.8611 106.663C60.5171 107.413 60.4327 108.252 60.6206 109.052C60.8086 109.853 61.2587 110.573 61.9035 111.103L82.917 128.404C82.7567 129.403 82.9133 130.426 83.3659 131.337C83.8185 132.247 84.5456 133.002 85.4506 133.501C86.3555 134 87.3954 134.22 88.4319 134.131C89.4685 134.042 90.4525 133.648 91.2531 133.002C92.0538 132.356 92.6331 131.489 92.914 130.515C93.195 129.542 93.1642 128.508 92.8258 127.552C92.4875 126.596 91.8575 125.762 91.0198 125.163C90.1821 124.563 89.1763 124.225 88.1362 124.194Z" fill="#FFB7B7"/>
<path d="M63.6697 99.992L69.9329 82.6571C70.6368 80.6136 71.5188 79.3722 72.5546 78.9671C72.7586 78.8779 72.9795 78.8308 73.2032 78.8288C73.4269 78.8268 73.6487 78.8699 73.8544 78.9553L76.6628 82.403L79.2694 93.0428L72.5863 108.318L63.6697 99.992Z" fill="#E4E4E4"/>
<path d="M105.126 65.1818H77.6308C77.0652 65.1812 76.5229 64.9626 76.123 64.574C75.7231 64.1854 75.4981 63.6585 75.4975 63.1089V51.593C75.4975 47.5004 77.1707 43.5754 80.149 40.6815C83.1272 37.7875 87.1666 36.1617 91.3786 36.1617C95.5905 36.1617 99.6299 37.7875 102.608 40.6815C105.586 43.5754 107.26 47.5004 107.26 51.593V63.1089C107.259 63.6585 107.034 64.1854 106.634 64.574C106.234 64.9626 105.692 65.1812 105.126 65.1818Z" fill="#025464"/>
<path d="M94.6419 64.9137C101.072 64.9137 106.285 59.8484 106.285 53.6001C106.285 47.3517 101.072 42.2864 94.6419 42.2864C88.2114 42.2864 82.9985 47.3517 82.9985 53.6001C82.9985 59.8484 88.2114 64.9137 94.6419 64.9137Z" fill="#FFB7B7"/>
<path d="M111.017 52.7449H94.2038L94.0314 50.3994L93.1694 52.7449H90.5805L90.2389 48.0963L88.5304 52.7449H83.5211V52.5146C83.5249 49.2783 84.8496 46.1755 87.2047 43.8871C89.5598 41.5986 92.753 40.3114 96.0836 40.3077H98.4541C101.785 40.3114 104.978 41.5986 107.333 43.8871C109.688 46.1755 111.013 49.2782 111.017 52.5146L111.017 52.7449Z" fill="#025464"/>
<path d="M94.0662 67.3316C93.9396 67.3315 93.8133 67.3206 93.6886 67.2992L81.3775 65.1885V45.4181H94.9297L94.5942 45.7982C89.926 51.0883 93.4429 59.6663 95.9548 64.3087C96.1399 64.6487 96.2225 65.0326 96.1929 65.4162C96.1634 65.7998 96.023 66.1674 95.7878 66.4769C95.5909 66.7415 95.3321 66.9569 95.0328 67.1055C94.7336 67.2541 94.4023 67.3316 94.0662 67.3316Z" fill="#025464"/>
<path d="M241.539 114.854C240.772 114.929 240 114.946 239.23 114.906C239.098 114.892 238.967 114.929 238.863 115.008C238.759 115.088 238.692 115.204 238.675 115.331L237.202 126.069C237.088 126.849 236.76 127.584 236.251 128.197C235.832 128.684 235.52 129.25 235.335 129.86C235.151 130.47 235.097 131.11 235.177 131.74V149.981C235.177 149.981 235.082 152.414 237.005 152.414C239.307 152.695 241.636 152.695 243.938 152.414C243.938 152.414 245.478 152.13 245.478 149.886V131.925C245.595 131.298 245.571 130.654 245.407 130.038C245.243 129.421 244.943 128.846 244.527 128.354C244.035 127.739 243.718 127.01 243.605 126.239L242.075 115.275C242.057 115.152 241.992 115.04 241.893 114.962C241.793 114.883 241.667 114.845 241.539 114.854Z" fill="white"/>
<path d="M240.465 152.932C239.302 152.932 238.139 152.862 236.985 152.721C236.727 152.727 236.471 152.681 236.232 152.586C235.993 152.491 235.777 152.35 235.597 152.17C234.815 151.38 234.858 150.027 234.861 149.97L234.86 131.759C234.779 131.089 234.838 130.411 235.036 129.764C235.233 129.118 235.564 128.517 236.008 127.999C236.479 127.431 236.783 126.749 236.888 126.026L238.361 115.29C238.39 115.084 238.5 114.896 238.669 114.767C238.837 114.638 239.051 114.578 239.264 114.6C240.012 114.638 240.762 114.621 241.508 114.547L241.516 114.547C241.725 114.532 241.93 114.595 242.092 114.722C242.254 114.85 242.36 115.033 242.389 115.234L243.919 126.197C244.024 126.915 244.32 127.593 244.777 128.165C245.218 128.688 245.537 129.297 245.712 129.95C245.888 130.604 245.916 131.287 245.795 131.952V149.886C245.795 152.357 244.015 152.713 243.997 152.716C242.825 152.86 241.646 152.932 240.465 152.932ZM239.186 115.212C239.139 115.21 239.093 115.225 239.057 115.254C239.02 115.283 238.996 115.324 238.989 115.37L237.516 126.11C237.395 126.945 237.043 127.733 236.498 128.39C236.106 128.846 235.815 129.375 235.642 129.945C235.469 130.515 235.417 131.113 235.492 131.702L235.494 131.74V149.981C235.493 150.004 235.46 151.145 236.055 151.744C236.179 151.866 236.327 151.961 236.491 152.023C236.654 152.086 236.83 152.114 237.005 152.106L237.045 152.108C239.32 152.386 241.623 152.386 243.898 152.108C243.928 152.101 245.161 151.828 245.161 149.886L245.166 131.87C245.276 131.287 245.253 130.688 245.101 130.115C244.948 129.541 244.669 129.007 244.282 128.549C243.754 127.89 243.413 127.108 243.292 126.282L241.761 115.317C241.754 115.272 241.73 115.231 241.694 115.202C241.658 115.173 241.612 115.158 241.566 115.161C240.784 115.237 239.997 115.254 239.213 115.214C239.204 115.213 239.195 115.212 239.186 115.212Z" fill="#3F3D56"/>
<path d="M239.214 132.067H241.549C242.477 132.067 243.368 132.425 244.025 133.063C244.681 133.701 245.05 134.566 245.05 135.469V144.006C245.05 144.908 244.681 145.773 244.025 146.411C243.368 147.049 242.477 147.408 241.549 147.408H239.214C238.285 147.408 237.395 147.049 236.738 146.411C236.082 145.773 235.713 144.908 235.713 144.006V135.469C235.713 134.566 236.082 133.701 236.738 133.063C237.395 132.425 238.285 132.067 239.214 132.067Z" fill="#E57C23"/>
<path d="M162.297 100.063C161.53 100.138 160.758 100.156 159.988 100.115C159.856 100.101 159.725 100.138 159.621 100.218C159.517 100.297 159.45 100.413 159.433 100.54L157.96 111.279C157.846 112.058 157.518 112.793 157.009 113.406C156.59 113.894 156.278 114.46 156.093 115.069C155.909 115.679 155.855 116.319 155.935 116.95V135.191C155.935 135.191 155.84 137.623 157.763 137.623C160.065 137.904 162.394 137.904 164.696 137.623C164.696 137.623 166.236 137.34 166.236 135.095V117.134C166.353 116.508 166.329 115.864 166.165 115.247C166.001 114.63 165.701 114.056 165.285 113.563C164.794 112.948 164.476 112.219 164.363 111.448L162.833 100.485C162.815 100.362 162.75 100.249 162.651 100.171C162.552 100.093 162.425 100.054 162.297 100.063Z" fill="white"/>
<path d="M161.223 138.141C160.06 138.141 158.897 138.071 157.743 137.931C157.485 137.937 157.229 137.891 156.99 137.796C156.751 137.701 156.535 137.559 156.356 137.379C155.573 136.589 155.616 135.236 155.619 135.179L155.618 116.968C155.537 116.299 155.596 115.62 155.794 114.974C155.991 114.327 156.322 113.727 156.766 113.209C157.237 112.64 157.541 111.958 157.646 111.236L159.119 100.5C159.148 100.293 159.258 100.105 159.427 99.9767C159.595 99.8478 159.809 99.7878 160.022 99.8094C160.77 99.8477 161.52 99.8301 162.266 99.7567L162.275 99.756C162.483 99.7413 162.689 99.8042 162.851 99.9318C163.013 100.059 163.119 100.242 163.147 100.443L164.677 111.407C164.782 112.124 165.078 112.802 165.535 113.374C165.976 113.897 166.295 114.506 166.47 115.16C166.646 115.814 166.674 116.496 166.553 117.162V135.095C166.553 137.566 164.773 137.922 164.755 137.926C163.583 138.069 162.404 138.141 161.223 138.141ZM159.945 100.421C159.897 100.419 159.851 100.434 159.815 100.463C159.778 100.492 159.754 100.534 159.748 100.579L158.274 111.319C158.153 112.155 157.801 112.943 157.256 113.599C156.864 114.055 156.573 114.585 156.4 115.154C156.227 115.724 156.176 116.322 156.25 116.912L156.252 116.95V135.191C156.252 135.213 156.218 136.354 156.813 136.953C156.937 137.075 157.085 137.17 157.249 137.233C157.412 137.295 157.588 137.323 157.763 137.315L157.803 137.318C160.079 137.595 162.381 137.595 164.656 137.318C164.686 137.31 165.919 137.037 165.919 135.095L165.924 117.079C166.034 116.496 166.012 115.897 165.859 115.324C165.706 114.75 165.427 114.216 165.04 113.758C164.512 113.099 164.171 112.318 164.05 111.491L162.519 100.526C162.512 100.481 162.488 100.44 162.452 100.411C162.416 100.382 162.37 100.368 162.324 100.37C161.542 100.446 160.755 100.464 159.971 100.423C159.962 100.422 159.953 100.422 159.945 100.421Z" fill="#3F3D56"/>
<path d="M159.972 117.276H162.307C163.235 117.276 164.126 117.635 164.783 118.273C165.439 118.911 165.808 119.776 165.808 120.678V129.215C165.808 130.118 165.439 130.983 164.783 131.621C164.126 132.259 163.235 132.617 162.307 132.617H159.972C159.043 132.617 158.153 132.259 157.496 131.621C156.84 130.983 156.471 130.118 156.471 129.215V120.678C156.471 119.776 156.84 118.911 157.496 118.273C158.153 117.635 159.043 117.276 159.972 117.276Z" fill="#E57C23"/>
<path d="M148.867 84.4025C148.099 84.4776 147.327 84.4951 146.557 84.4549C146.426 84.4409 146.294 84.4776 146.19 84.5571C146.086 84.6366 146.019 84.7524 146.002 84.8797L144.529 95.6182C144.416 96.3977 144.087 97.1328 143.579 97.7455C143.159 98.2332 142.847 98.7993 142.663 99.4089C142.478 100.018 142.424 100.658 142.504 101.289V119.53C142.504 119.53 142.409 121.962 144.333 121.962C146.634 122.244 148.963 122.244 151.265 121.962C151.265 121.962 152.805 121.679 152.805 119.435V101.474C152.922 100.847 152.898 100.203 152.734 99.5866C152.57 98.9699 152.27 98.3953 151.854 97.9026C151.363 97.2876 151.045 96.5585 150.932 95.7875L149.402 84.8243C149.385 84.7011 149.32 84.5889 149.22 84.5105C149.121 84.4322 148.994 84.3935 148.867 84.4025Z" fill="white"/>
<path d="M147.792 122.48C146.629 122.481 145.467 122.41 144.312 122.27C144.054 122.276 143.798 122.23 143.559 122.135C143.32 122.04 143.104 121.898 142.925 121.718C142.142 120.928 142.186 119.576 142.188 119.518L142.188 101.308C142.106 100.638 142.166 99.9594 142.363 99.313C142.56 98.6666 142.891 98.0661 143.335 97.5481C143.806 96.9795 144.11 96.2977 144.215 95.575L145.688 84.8389C145.717 84.6324 145.827 84.4448 145.996 84.316C146.164 84.1872 146.378 84.1272 146.591 84.1487C147.339 84.1871 148.09 84.1695 148.835 84.0961L148.844 84.0954C149.052 84.0807 149.258 84.1435 149.42 84.2712C149.582 84.3988 149.688 84.5816 149.716 84.7823L151.246 95.7461C151.352 96.4632 151.647 97.1413 152.105 97.7134C152.545 98.2363 152.864 98.8454 153.039 99.4992C153.215 100.153 153.243 100.836 153.122 101.501V119.435C153.122 121.905 151.342 122.262 151.324 122.265C150.153 122.408 148.973 122.48 147.792 122.48ZM146.514 84.7608C146.467 84.7586 146.42 84.7736 146.384 84.8027C146.348 84.8318 146.324 84.873 146.317 84.9184L144.843 95.6587C144.722 96.4941 144.37 97.282 143.825 97.9388C143.433 98.3947 143.142 98.9239 142.969 99.4936C142.796 100.063 142.745 100.661 142.819 101.251L142.821 101.289V119.53C142.821 119.553 142.787 120.694 143.383 121.293C143.506 121.415 143.654 121.51 143.818 121.572C143.982 121.634 144.157 121.663 144.333 121.655L144.372 121.657C146.648 121.934 148.95 121.934 151.226 121.657C151.256 121.65 152.488 121.377 152.488 119.435L152.493 101.419C152.603 100.836 152.581 100.237 152.428 99.6633C152.275 99.0898 151.996 98.5555 151.609 98.0975C151.081 97.4386 150.74 96.6572 150.619 95.8306L149.088 84.8655C149.081 84.8205 149.058 84.7796 149.022 84.7507C148.985 84.7218 148.94 84.7071 148.893 84.7093C148.111 84.7853 147.324 84.803 146.54 84.7622C146.531 84.7613 146.522 84.7609 146.514 84.7608Z" fill="#3F3D56"/>
<path d="M146.541 101.616H148.876C149.805 101.616 150.695 101.974 151.352 102.612C152.008 103.25 152.377 104.115 152.377 105.018V113.555C152.377 114.457 152.008 115.322 151.352 115.96C150.695 116.598 149.805 116.957 148.876 116.957H146.541C145.612 116.957 144.722 116.598 144.065 115.96C143.409 115.322 143.04 114.457 143.04 113.555V105.018C143.04 104.115 143.409 103.25 144.065 102.612C144.722 101.974 145.612 101.616 146.541 101.616Z" fill="#E57C23"/>
<path d="M25.1548 31.6871C31.3361 31.6871 36.3471 26.8181 36.3471 20.8118C36.3471 14.8055 31.3361 9.9364 25.1548 9.9364C18.9734 9.9364 13.9624 14.8055 13.9624 20.8118C13.9624 26.8181 18.9734 31.6871 25.1548 31.6871Z" fill="#F0F0F0"/>
<path d="M283.027 22.5519C289.208 22.5519 294.219 17.6828 294.219 11.6765C294.219 5.67022 289.208 0.801147 283.027 0.801147C276.845 0.801147 271.834 5.67022 271.834 11.6765C271.834 17.6828 276.845 22.5519 283.027 22.5519Z" fill="#F0F0F0"/>
<path d="M154.986 49.9579C159.437 49.9579 163.045 46.4522 163.045 42.1276C163.045 37.8031 159.437 34.2974 154.986 34.2974C150.536 34.2974 146.928 37.8031 146.928 42.1276C146.928 46.4522 150.536 49.9579 154.986 49.9579Z" fill="#F0F0F0"/>
</g>
<defs>
<clipPath id="clip0_2_810">
<rect width="328" height="277.94" fill="white" transform="translate(0 0.801147)"/>
</clipPath>
</defs>
</svg>
