<svg width="328" height="298" viewBox="0 0 328 298" fill="none" xmlns="http://www.w3.org/2000/svg">
<g clip-path="url(#clip0_2_623)">
<path d="M283.901 252.5H43.2938V211.711H47.0055V181.351C47.0136 174.198 49.8628 167.34 54.928 162.282C59.9933 157.224 66.8609 154.379 74.0243 154.371H253.607C260.771 154.379 267.638 157.224 272.704 162.282C277.769 167.34 280.618 174.198 280.626 181.351V211.711H283.901V252.5Z" fill="#E4E4E4"/>
<path d="M290.421 297.394H278.443V297.176C278.431 286.598 274.218 276.457 266.727 268.977C259.236 261.498 249.08 257.29 238.487 257.278H88.7078C78.1146 257.29 67.9586 261.498 60.4681 268.977C52.9775 276.457 48.7641 286.598 48.7521 297.176V297.394H36.7745C34.0456 297.391 31.4294 296.308 29.4998 294.381C27.5702 292.454 26.4848 289.841 26.4817 287.117V220.44C23.0036 218.478 20.1747 207.821 22.0122 199.31C23.1653 193.968 26.4943 187.518 35.8049 187.119C44.8683 186.729 51.5957 195.226 52.1966 203.405C52.5222 207.709 51.2564 211.983 48.6385 215.418H48.7521V224.93C68.4062 218.64 88.0881 215.44 107.255 215.418C126.869 215.437 146.346 218.674 164.909 224.999C203.504 212.534 241.7 212.291 278.443 224.281V215.418H278.556C275.939 211.983 274.673 207.709 274.998 203.405C275.658 194.434 283.006 187.128 291.381 187.118H291.408C301.283 187.118 304.776 193.055 305.967 198.037C308.075 206.855 304.205 218.461 300.713 220.44V287.117C300.71 289.841 299.625 292.454 297.695 294.381C295.766 296.308 293.149 297.391 290.421 297.394Z" fill="#CACACA"/>
<path d="M223.503 279.553L229.284 283.677L247.966 263.371L239.433 257.285L223.503 279.553Z" fill="#FFB6B6"/>
<path d="M223.377 276.616L225.004 277.776L233.203 279.729L234.762 284.737L234.763 284.738C236.687 286.111 237.986 288.19 238.375 290.52C238.764 292.849 238.21 295.237 236.835 297.159L236.667 297.394L218.025 284.097L223.377 276.616Z" fill="#025464"/>
<path d="M262.681 225.189H220.229C216.27 225.187 212.474 223.615 209.676 220.82C206.878 218.024 205.306 214.232 205.306 210.28C205.306 206.327 206.878 202.535 209.676 199.739C212.474 196.944 216.27 195.372 220.229 195.37H262.681C266.641 195.37 270.439 196.94 273.239 199.737C276.039 202.533 277.612 206.325 277.612 210.28C277.612 214.234 276.039 218.026 273.239 220.822C270.439 223.619 266.641 225.189 262.681 225.189Z" fill="#025464"/>
<path d="M241.853 121.076L248.7 126.283L256.958 128.817C256.958 128.817 260.372 176.77 263.448 179.841C266.524 182.913 263.75 182.996 264.368 186.986C264.986 190.976 266.489 199.156 266.489 199.156C245.725 210.131 227.824 210.426 213.445 197.583C213.261 196.788 213.355 195.955 213.71 195.221C214.066 194.487 214.661 193.896 215.399 193.546C218.075 192.128 212.932 185.51 215.119 184.404C217.306 183.297 214.23 173.698 214.23 173.698L216.248 153.67L214.654 150.469L218.544 130.879L225.295 128.417L227.992 121.929L241.853 121.076Z" fill="#E57C23"/>
<path d="M246.142 76.3066C246.112 77.1726 246.272 78.0348 246.611 78.8324C246.95 79.6301 247.46 80.3438 248.105 80.9233C248.75 81.5027 249.515 81.9339 250.345 82.1864C251.175 82.4389 252.051 82.5065 252.91 82.3846L262.56 101.115L267.936 91.5761L257.948 75.2519C257.647 73.8243 256.833 72.5564 255.658 71.6886C254.484 70.8207 253.031 70.4132 251.576 70.5432C250.121 70.6732 248.764 71.3317 247.763 72.3939C246.761 73.4562 246.185 74.8483 246.142 76.3066Z" fill="#FFB6B6"/>
<path d="M262.394 80.8884L283.092 112.922L283.024 113.07C282.946 113.238 278.259 123.347 273.717 132.605C273.018 134.031 272.322 135.437 271.647 136.783C271.355 137.364 271.068 137.933 270.786 138.489C268.878 142.245 267.212 145.348 266.217 146.823C264.016 150.156 260.74 152.638 256.933 153.855L256.837 153.88L256.746 153.842C254.883 153.057 253.344 151.662 252.382 149.887C251.42 148.111 251.093 146.061 251.454 144.075C253.25 134.496 257.25 125.464 263.14 117.693L266.496 113.276L254.835 87.9608L262.394 80.8884Z" fill="#E57C23"/>
<path d="M226.634 72.3821C226.664 73.248 226.504 74.1102 226.165 74.9079C225.826 75.7055 225.316 76.4192 224.671 76.9987C224.026 77.5782 223.261 78.0093 222.431 78.2618C221.601 78.5143 220.725 78.582 219.866 78.4601L210.216 97.1903L204.84 87.6515L214.828 71.3274C215.129 69.8997 215.943 68.6319 217.118 67.764C218.292 66.8962 219.745 66.4886 221.2 66.6186C222.655 66.7486 224.012 67.4071 225.013 68.4694C226.015 69.5316 226.591 70.9238 226.634 72.3821Z" fill="#FFB6B6"/>
<path d="M210.382 76.9641L189.683 108.998L189.752 109.145C189.83 109.314 194.517 119.423 199.059 128.681C199.758 130.107 200.454 131.513 201.129 132.859C201.42 133.44 201.707 134.009 201.99 134.565C203.898 138.32 205.564 141.424 206.559 142.898C208.759 146.232 212.035 148.713 215.843 149.931L215.939 149.956L216.03 149.918C217.893 149.133 219.432 147.738 220.394 145.962C221.356 144.187 221.683 142.137 221.322 140.151C219.526 130.572 215.526 121.54 209.636 113.769L206.28 109.352L217.941 84.0365L210.382 76.9641Z" fill="#E57C23"/>
<path d="M234.843 118.179C242.323 118.179 248.387 112.124 248.387 104.654C248.387 97.1843 242.323 91.129 234.843 91.129C227.363 91.129 221.299 97.1843 221.299 104.654C221.299 112.124 227.363 118.179 234.843 118.179Z" fill="#FFB6B6"/>
<path d="M223.811 93.0347C224.925 89.7988 230.47 87.5544 239.459 87.2424C248.448 86.9303 250.728 97.5083 250.728 97.5083C256.728 102.369 244.32 115.383 243.72 114.914L243.989 112.469C244.436 108.419 246.336 105.259 243.92 101.039L241.601 101.065L237.202 101.91C236.928 101.963 236.644 101.924 236.394 101.799C236.144 101.675 235.942 101.472 235.819 101.222C235.696 100.971 235.659 100.687 235.714 100.414C235.768 100.141 235.911 99.8926 236.121 99.7083L236.161 99.6729L236.061 99.5184C234.511 100.228 232.915 100.887 231.22 100.986C229.314 101.098 227.231 100.34 226.318 98.666C226.074 98.2057 225.925 97.7013 225.88 97.1826C223.309 98.2081 222.134 101.372 222.134 101.372C222.134 101.372 222.697 96.2705 223.811 93.0347Z" fill="#025464"/>
<path d="M260.391 273.799L254.969 278.384L234.679 259.681L242.682 252.914L260.391 273.799Z" fill="#FFB6B6"/>
<path d="M266.225 277.878L248.741 292.661L248.554 292.441C247.026 290.638 246.277 288.304 246.472 285.95C246.668 283.597 247.791 281.417 249.596 279.891L249.597 279.891L250.738 274.771L258.749 272.152L260.275 270.862L266.225 277.878Z" fill="#025464"/>
<path d="M226.88 222.084L231.362 212.378C231.312 203.526 223.891 196.336 215.043 196.891C210.115 197.2 205.501 199.952 203.595 208.131C198.693 229.164 246.792 272.934 246.792 272.934L255.63 267.48L256.037 261.718L251.088 258.671L251.083 253.757L246.363 251.522L226.88 222.084Z" fill="#025464"/>
<path d="M256.325 219.411L250.785 211.277C250.106 202.45 256.91 194.676 265.774 194.502C270.71 194.405 275.535 196.769 278.109 204.765C284.726 225.324 240.394 272.894 240.394 272.894L231.137 268.184L230.256 262.475L234.938 259.033L234.538 254.135L239.058 251.52L256.325 219.411Z" fill="#025464"/>
<path d="M236.826 152.801V155.4H228.197V152.801H230.87V146.539L228.372 147.969V145.161L232.215 142.981H234.136V152.801L236.826 152.801Z" fill="white"/>
<path d="M238.773 153.917C237.952 152.824 237.542 151.243 237.542 149.173C237.542 147.138 237.952 145.577 238.773 144.49C239.21 143.979 239.752 143.568 240.362 143.286C240.973 143.005 241.638 142.859 242.31 142.859C242.983 142.859 243.648 143.005 244.258 143.286C244.869 143.568 245.411 143.979 245.847 144.49C246.668 145.577 247.079 147.138 247.079 149.173C247.079 151.243 246.668 152.824 245.847 153.917C245.413 154.431 244.871 154.844 244.26 155.127C243.649 155.41 242.984 155.557 242.31 155.557C241.637 155.557 240.971 155.41 240.361 155.127C239.75 154.844 239.208 154.431 238.773 153.917ZM243.516 152.182C243.81 151.207 243.935 150.19 243.882 149.173C243.933 148.177 243.809 147.179 243.516 146.225C243.441 145.964 243.282 145.734 243.065 145.57C242.847 145.407 242.583 145.318 242.31 145.318C242.038 145.318 241.773 145.407 241.556 145.57C241.338 145.734 241.18 145.964 241.105 146.225C240.811 147.179 240.687 148.177 240.738 149.173C240.686 150.19 240.81 151.207 241.105 152.182C241.178 152.445 241.336 152.677 241.553 152.843C241.771 153.008 242.037 153.098 242.31 153.098C242.584 153.098 242.85 153.008 243.068 152.843C243.285 152.677 243.443 152.445 243.516 152.182Z" fill="white"/>
<path d="M144.807 290.492L138.181 290.492L135.029 264.972L144.808 264.973L144.807 290.492Z" fill="#A0616A"/>
<path d="M145.04 297.394L124.665 297.394V297.136C124.665 295.036 125.501 293.022 126.988 291.537C128.475 290.052 130.492 289.218 132.596 289.217H132.596L136.318 286.398L143.262 289.218L145.04 289.218L145.04 297.394Z" fill="#025464"/>
<path d="M191.688 290.492L198.313 290.492L201.465 264.972L191.686 264.973L191.688 290.492Z" fill="#A0616A"/>
<path d="M191.454 297.394L211.829 297.394V297.136C211.829 295.036 210.993 293.022 209.506 291.537C208.019 290.052 206.002 289.218 203.899 289.217H203.898L200.176 286.398L193.232 289.218L191.454 289.218L191.454 297.394Z" fill="#025464"/>
<path d="M134.737 246.219C134.835 244.763 135.613 236.71 135.613 236.71L137.477 219.631L140.761 174.36L140.976 171.396L158.181 168.098L169.941 162.469L183.918 166.93L194.801 171.006C194.801 171.006 194.82 172.75 194.903 174.858C195.015 177.617 195.211 180.999 195.677 181.878C196.455 183.432 196.259 191.774 196.259 191.774C196.259 191.774 197.032 208.745 198.006 210.606C198.98 212.467 199.176 216.342 198.882 217.119C198.589 217.896 199.856 238.278 199.856 238.278C199.856 238.278 203.108 274.346 201.068 279.784C199.027 285.223 191.316 281.66 191.316 281.66C191.316 281.66 191.689 280.209 189.452 279.525C187.216 278.841 180.405 227.698 180.405 227.698C180.405 227.698 179.137 217.212 177.973 214.207C176.808 211.201 175.736 202.758 175.736 202.758C175.736 202.758 168.543 188.782 168.45 185.674C168.45 185.674 167.509 182.767 166.619 185.967C165.729 189.168 163.106 196.835 163.106 196.835L160.548 206.251L157.538 220.32L155.591 232.164C155.591 232.164 152.674 247.885 152.209 248.564C151.743 249.243 152.209 263.605 152.209 263.605C152.209 263.605 149.954 275.835 146.767 277.971C143.58 280.106 135.137 278.005 135.137 278.005C135.137 278.005 134.64 247.675 134.737 246.219Z" fill="#025464"/>
<path d="M142.078 124.171L145.903 134.173L141.183 139.05L143.261 140.906L141.728 143.531L137.731 171.04L159.646 178.254L167.026 170.222L172.845 178.254L198.204 172.876L191.738 137.796V135.503L189.911 131.075V121.7L198.297 93.7956L180.342 89.4194L173.461 84.6918L171.234 91.3406L161.753 89.8764L161.505 84.8819L154.251 90.8309L144.579 92.3435L137.265 93.7956L136.333 95.8175L138.197 95.4129L141.458 121.72L142.078 124.171Z" fill="#025464"/>
<path d="M156.825 97.1683L161.506 84.9104L173.461 84.6918L177.427 97.1683L191.686 176.707C191.686 176.707 148.003 188.855 148.446 174.253C148.912 158.9 151.014 138.507 151.014 138.507L156.825 97.1683Z" fill="#3F3D56"/>
<path d="M167.216 81.4818C174.994 81.4818 181.299 75.1857 181.299 67.4191C181.299 59.6524 174.994 53.3563 167.216 53.3563C159.438 53.3563 153.133 59.6524 153.133 67.4191C153.133 75.1857 159.438 81.4818 167.216 81.4818Z" fill="#A0616A"/>
<path d="M152.302 57.2173C154.595 54.7254 157.463 50.164 166.149 48.2485C176.882 45.8817 181.954 55.5638 179.247 55.7225C187.162 58.1158 182.078 74.4712 179.809 73.0995C179.789 73.086 179.771 73.0714 179.753 73.0558C178.532 72.1585 177.508 71.0221 176.742 69.7161C175.977 68.4101 175.486 66.9619 175.299 65.4601L174.869 61.5897C174.807 64.7387 171.584 65.1553 168.291 63.9956C168.486 63.3051 168.857 62.6774 169.369 62.1741C169.881 61.6709 170.516 61.3096 171.21 61.1259C169.196 62.9813 166.574 64.3086 162.911 64.7316C163.361 62.994 164.256 61.715 165.658 60.9569L165.528 60.8293C164.187 61.8491 162.788 62.8292 161.175 63.291C159.359 63.8105 157.185 63.5295 155.941 62.1106C155.606 61.7191 155.353 61.2645 155.197 60.7737C155.466 63.2676 153.791 66.1143 152.489 65.6256C151.407 65.4155 150.776 58.8762 152.302 57.2173Z" fill="#025464"/>
<path d="M184.58 66.6436L197.388 88.1606L206.854 83.696C206.854 83.696 190.542 63.3517 190.023 62.7664C190.245 61.7776 190.162 60.7446 189.784 59.804C189.405 58.8635 188.75 58.0598 187.905 57.4992C187.059 56.9386 186.063 56.6476 185.048 56.6646C184.033 56.6816 183.048 57.0058 182.221 57.5944C181.395 58.183 180.767 59.0082 180.421 59.9609C180.074 60.9136 180.026 61.9488 180.281 62.9296C180.537 63.9104 181.085 64.7907 181.852 65.4539C182.62 66.117 183.571 66.5319 184.58 66.6436Z" fill="#A0616A"/>
<path d="M190.781 120.114L210.658 105.815C211.955 104.882 213.043 103.689 213.852 102.313C214.66 100.936 215.173 99.4065 215.356 97.821C215.539 96.2356 215.388 94.6294 214.914 93.1053C214.44 91.5811 213.653 90.1725 212.603 88.9694L198.298 72.5831L192.066 81.0157L196.869 91.0448L187.568 93.4938L190.781 120.114Z" fill="#025464"/>
<path d="M156.664 68.6662L143.856 90.1831L134.39 85.7185C134.39 85.7185 150.702 65.3743 151.221 64.789C150.999 63.8001 151.082 62.7671 151.46 61.8266C151.839 60.8861 152.494 60.0824 153.339 59.5218C154.185 58.9612 155.181 58.6702 156.196 58.6872C157.211 58.7042 158.196 59.0284 159.023 59.617C159.849 60.2056 160.477 61.0308 160.823 61.9835C161.17 62.9361 161.218 63.9714 160.962 64.9522C160.707 65.933 160.159 66.8133 159.392 67.4764C158.624 68.1396 157.673 68.5545 156.664 68.6662Z" fill="#A0616A"/>
<path d="M150.463 122.137L130.586 107.838C129.289 106.905 128.201 105.712 127.393 104.335C126.584 102.959 126.071 101.429 125.888 99.8435C125.705 98.2581 125.856 96.6519 126.33 95.1277C126.804 93.6036 127.591 92.195 128.641 90.9919L142.947 74.6056L149.179 83.0382L144.375 93.0673L153.676 95.5163L150.463 122.137Z" fill="#025464"/>
<path d="M170.574 118.133C171.023 118.664 171.259 119.341 171.237 120.035C171.253 120.722 171.03 121.393 170.608 121.936C170.153 122.497 169.552 122.922 168.87 123.165C167.224 123.735 165.434 123.735 163.788 123.165C163.106 122.922 162.505 122.497 162.05 121.936C161.628 121.393 161.406 120.722 161.421 120.035C161.398 119.333 161.634 118.647 162.085 118.108C162.577 117.561 163.232 117.185 163.954 117.035C163.321 116.839 162.757 116.467 162.329 115.962C161.935 115.484 161.724 114.881 161.735 114.261C161.723 113.611 161.936 112.977 162.338 112.465C162.769 111.932 163.336 111.525 163.98 111.288C165.498 110.741 167.16 110.741 168.678 111.288C169.322 111.525 169.889 111.932 170.32 112.465C170.722 112.977 170.935 113.611 170.923 114.261C170.934 114.893 170.72 115.508 170.32 115.997C169.905 116.5 169.348 116.868 168.722 117.052C169.435 117.215 170.082 117.593 170.574 118.133ZM167.692 120.785C167.86 120.677 167.997 120.526 168.089 120.349C168.181 120.171 168.225 119.973 168.215 119.773C168.22 119.571 168.177 119.371 168.089 119.189C168.001 119.007 167.871 118.848 167.709 118.727C167.339 118.369 166.844 118.168 166.329 118.168C165.814 118.168 165.319 118.369 164.949 118.727C164.788 118.848 164.657 119.007 164.569 119.189C164.481 119.371 164.438 119.571 164.443 119.773C164.434 119.973 164.477 120.171 164.569 120.349C164.661 120.526 164.798 120.677 164.967 120.785C165.384 121.014 165.853 121.134 166.329 121.134C166.805 121.134 167.274 121.014 167.692 120.785ZM165.22 113.66C165.074 113.777 164.959 113.928 164.884 114.1C164.81 114.271 164.778 114.459 164.792 114.645C164.792 115.413 165.304 115.924 166.329 116.18C167.354 115.925 167.866 115.413 167.866 114.645C167.88 114.459 167.848 114.271 167.774 114.1C167.699 113.928 167.584 113.777 167.438 113.66C167.107 113.449 166.722 113.337 166.329 113.337C165.936 113.337 165.551 113.449 165.22 113.66Z" fill="white"/>
<path d="M13.1354 76.7656C13.4408 77.2165 13.8414 77.595 14.3092 77.8746C14.7769 78.1541 15.3003 78.3278 15.8426 78.3834C16.3848 78.4391 16.9327 78.3754 17.4476 78.1967C17.9625 78.0181 18.4319 77.7289 18.8228 77.3495L30.6628 83.2894L29.8561 76.4611L18.7364 71.8673C18.0546 71.2539 17.1711 70.9116 16.2534 70.9051C15.3357 70.8987 14.4475 71.2286 13.7572 71.8324C13.0668 72.4361 12.6222 73.2718 12.5076 74.181C12.393 75.0903 12.6163 76.0099 13.1354 76.7656Z" fill="#9E616A"/>
<path d="M62.1172 104.327L56.222 100.267C56.222 100.267 49.4711 99.8099 48.4558 97.6668C47.4405 95.5237 47.2693 96.2443 46.187 95.9879C45.1046 95.7316 44.5461 92.5059 42.7317 92.8865C38.6496 93.7426 19.4518 81.0754 21.5238 79.4923L23.0639 73.0074C24.6913 73.6141 26.3881 74.0159 28.115 74.2036C30.726 74.4415 36.8779 77.4205 37.7892 78.3974C38.7004 79.3742 40.3147 78.9954 42.4794 79.5081C44.6441 80.0207 45.4018 83.4978 48.9921 82.5726C54.0438 81.2707 80.2156 93.6663 83.0472 94.8234C86.1547 96.0933 88.3249 99.8786 88.3249 99.8786L87.4692 103.481L62.1172 104.327Z" fill="#E57C23"/>
<path d="M104.663 288.505H109.8L112.245 268.716H104.662L104.663 288.505Z" fill="#9E616A"/>
<path d="M102.986 284.991L111.194 284.502V288.014L118.998 293.396C119.384 293.662 119.674 294.043 119.827 294.486C119.979 294.928 119.987 295.407 119.847 295.854C119.708 296.3 119.429 296.691 119.052 296.968C118.675 297.245 118.218 297.395 117.75 297.395H107.977L106.293 293.921L105.635 297.395H101.951L102.986 284.991Z" fill="#025464"/>
<path d="M40.2662 284.146L45.0399 286.044L54.6411 268.56L47.5958 265.76L40.2662 284.146Z" fill="#9E616A"/>
<path d="M40.0098 280.262L47.8175 282.839L46.5168 286.102L51.7742 293.985C52.0339 294.374 52.1622 294.836 52.1403 295.303C52.1184 295.77 51.9476 296.218 51.6527 296.582C51.3577 296.945 50.9542 297.205 50.501 297.323C50.0477 297.441 49.5685 297.412 49.1333 297.239L40.0537 293.63L39.7753 289.78L37.8776 292.765L34.4542 291.404L40.0098 280.262Z" fill="#025464"/>
<path d="M94.3058 229.619L85.738 189.694L72.3592 234.054L51.1746 276.119L51.0624 276.342L44.3518 272.735C43.4047 255.654 45.654 239.649 53.8807 225.653L57.7762 187.238C57.8956 185.925 60.8015 155.109 70.0027 149.645L72.6974 143.509L99.4985 136.899L99.596 137.009C102.173 139.902 103.876 143.465 104.505 147.285L112.514 195.731L112.518 195.758L110.371 229.554L113.308 279.414H102.68C96.1055 267.061 93.314 250.462 94.3058 229.619Z" fill="#025464"/>
<path d="M117.377 62.1734C117.786 62.5338 118.11 62.9792 118.328 63.4784C118.545 63.9775 118.65 64.5182 118.636 65.0623C118.621 65.6064 118.488 66.1407 118.244 66.6277C118 67.1146 117.653 67.5423 117.226 67.8805L121.602 80.3692L114.925 78.6923L111.792 67.0899C111.271 66.3358 111.045 65.417 111.156 64.5074C111.268 63.5978 111.71 62.7607 112.398 62.1546C113.086 61.5486 113.974 61.2158 114.891 61.2193C115.809 61.2227 116.694 61.5622 117.377 62.1734Z" fill="#9E616A"/>
<path d="M64.7976 156.508C64.0758 156.508 63.6659 156.366 63.5071 156.063C63.2742 155.618 63.6784 155.037 64.1464 154.364C64.4728 153.895 65.4263 152.962 64.9574 152.905C57.8478 152.038 61.2606 108.267 64.3417 102.482C64.9678 101.306 64.3054 99.5024 65.0104 97.5075C66.9362 92.0591 69.5648 90.3847 74.8014 87.0493C75.2264 86.7785 75.6691 86.4957 76.1293 86.2008C76.7246 85.8188 76.6915 84.5522 76.6564 83.2109C76.6175 81.7202 76.5771 80.1786 77.3084 79.2151L77.356 79.1523L77.4328 79.1344C79.2017 78.7261 85.1511 77.968 88.6745 79.14L88.7232 79.1565L88.7595 79.1926C89.5965 80.0284 89.6728 81.6472 89.7465 83.2126C89.8069 84.4979 89.8641 85.7114 90.3376 86.2386C93.9577 90.268 98.0634 90.1894 98.105 90.1886L98.3084 90.1826L98.3286 90.3847C100.867 95.2086 98.8795 113.124 100.644 124.252C102.436 135.558 117.743 145.182 104.636 146.891C104.664 146.934 104.68 146.985 104.681 147.036C104.683 147.088 104.67 147.139 104.645 147.184C103.853 148.662 67.518 156.508 64.7976 156.508Z" fill="#E57C23"/>
<path d="M124.048 101.377L116.774 104.981C102.756 110.358 95.4294 109.048 91.7487 107.004C87.8214 104.823 87.1404 101.479 87.1138 101.338L87.1114 101.269L88.0087 94.1714C88.1227 93.2698 88.4274 92.4027 88.9024 91.6276C89.3775 90.8525 90.0121 90.1871 90.7642 89.6755C91.5164 89.1639 92.3688 88.8177 93.265 88.6601C94.1613 88.5024 95.0809 88.5367 95.9628 88.7608L112.699 93.0139L112.394 84.9013L113.056 81.9802L111.835 78.4295L112.335 71.2984L118.339 69.8312L124.636 81.0943L123.505 84.2027L124.571 85.7502L124.568 85.8219L124.048 101.377Z" fill="#E57C23"/>
<path d="M87.5531 107.069V109.511L82.1384 119.487H78.645L84.0422 109.668H78.313V107.069L87.5531 107.069Z" fill="white"/>
<path d="M327.48 297.866L0.519964 298C0.382328 298 0.250468 297.945 0.153285 297.847C0.0561025 297.75 0.00152588 297.618 0.00152588 297.481C0.00152588 297.343 0.0561025 297.212 0.153285 297.114C0.250468 297.017 0.382328 296.962 0.519964 296.962L327.48 296.828C327.618 296.828 327.75 296.883 327.847 296.98C327.944 297.078 327.999 297.209 327.999 297.347C327.999 297.484 327.944 297.616 327.847 297.713C327.75 297.811 327.618 297.866 327.48 297.866Z" fill="#CACACA"/>
<path d="M225.972 46.2103C229.994 37.6707 226.739 27.6879 220.927 24.9583C215.115 22.2287 205.339 26.0914 201.317 34.6309C197.594 42.5354 200.367 51.7936 205.14 55.1664C205.06 55.19 204.985 55.2287 204.919 55.2805L203.773 56.2238C203.685 56.2957 203.618 56.3888 203.576 56.4941C203.535 56.5994 203.521 56.7135 203.537 56.8256C203.552 56.9377 203.596 57.044 203.664 57.1345C203.732 57.2249 203.822 57.2965 203.925 57.3424L206.818 58.6262C206.922 58.6721 207.035 58.6909 207.148 58.6806C207.261 58.6704 207.369 58.6316 207.463 58.5678C207.556 58.504 207.632 58.4174 207.682 58.3163C207.733 58.2151 207.757 58.1026 207.752 57.9896L207.684 56.5073C207.681 56.4558 207.671 56.4048 207.656 56.3554C213.307 57.9062 222.241 54.1319 225.972 46.2103Z" fill="#CCCCCC"/>
<path d="M222.677 33.9626C223.59 36.6078 223.451 39.5021 222.289 42.048C221.127 44.5939 219.03 46.5971 216.432 47.644C215.84 47.8901 216.313 48.767 216.901 48.5226C219.685 47.3642 221.928 45.1974 223.18 42.4567C224.432 39.716 224.6 36.6041 223.65 33.745C223.449 33.1419 222.475 33.3551 222.677 33.9626Z" fill="white"/>
<path d="M296.541 74.824C304.68 70.0273 307.618 59.947 304.353 54.4238C301.089 48.9005 290.831 46.5973 282.692 51.394C275.159 55.8339 272.232 65.0446 274.275 70.5157C274.196 70.4901 274.112 70.4799 274.028 70.4858L272.549 70.6207C272.436 70.6309 272.327 70.6698 272.234 70.7337C272.14 70.7975 272.065 70.8842 272.014 70.9854C271.964 71.0866 271.94 71.1991 271.945 71.312C271.95 71.425 271.984 71.5348 272.044 71.631L273.711 74.3182C273.771 74.4144 273.854 74.4937 273.953 74.5487C274.052 74.6037 274.164 74.6325 274.277 74.6324C274.39 74.6322 274.502 74.6032 274.6 74.548C274.699 74.4928 274.782 74.4133 274.842 74.3171L275.622 73.054C275.648 73.0094 275.669 72.9619 275.684 72.9124C279.481 77.3712 288.991 79.2736 296.541 74.824Z" fill="#E57C23"/>
<path d="M300.723 62.8498C299.986 65.5492 298.24 67.8632 295.844 69.314C293.448 70.7649 290.586 71.2418 287.848 70.6465C287.22 70.5171 287.116 71.5074 287.74 71.636C290.695 72.244 293.77 71.7142 296.35 70.1527C298.93 68.5913 300.823 66.1137 301.65 63.2168C301.824 62.6055 300.898 62.2339 300.723 62.8498Z" fill="white"/>
<path d="M244.737 35.6012C243.712 33.3482 243.236 30.8847 243.348 28.4126C243.46 25.9404 244.158 23.5301 245.383 21.3791C245.733 20.7731 246.08 20.0396 246.846 19.9231C247.136 19.8705 247.434 19.9175 247.694 20.0564C247.953 20.1953 248.157 20.4179 248.273 20.6878C248.376 21.0468 248.357 21.4295 248.22 21.7768C248.083 22.1241 247.835 22.4168 247.515 22.6097C247.195 22.8026 246.82 22.8849 246.449 22.8441C246.077 22.8032 245.729 22.6414 245.459 22.3836C244.007 21.2153 244.191 19.1591 244.331 17.5039C244.649 13.7325 244.644 9.77304 243.037 6.26285C241.55 3.01514 238.516 0.298638 234.85 0.00196037C234.209 -0.0499292 234.173 0.945068 234.811 0.996709C238.446 1.29095 241.291 4.28157 242.499 7.55466C243.181 9.52524 243.521 11.5979 243.503 13.6829C243.514 14.7531 243.465 15.8231 243.382 16.8899C243.257 17.9298 243.224 18.9788 243.284 20.0245C243.455 21.7311 244.489 23.5607 246.337 23.8334C248.061 24.0878 249.745 22.2871 249.278 20.5759C249.166 20.206 248.963 19.8697 248.688 19.5972C248.414 19.3247 248.076 19.1245 247.704 19.0146C247.333 18.9047 246.941 18.8885 246.562 18.9675C246.183 19.0464 245.829 19.218 245.533 19.467C244.885 20.0068 244.465 20.9338 244.095 21.6746C242.98 23.9034 242.38 26.3537 242.338 28.8449C242.297 31.3361 242.816 33.8048 243.857 36.0692C244.131 36.6492 245.01 36.1797 244.737 35.6012Z" fill="#CCCCCC"/>
<path d="M94.2503 82.0032C93.8748 81.3186 93.2285 79.3607 92.5036 79.3869C91.7621 79.4193 91.0194 79.3563 90.294 79.1994C90.2154 79.1863 90.1368 79.1689 90.0626 79.1514C87.0003 78.3883 83.8605 77.9786 80.7047 77.9304C78.1588 77.8956 75.3641 78.2008 73.5869 80.0191C71.8096 81.8374 72.0716 85.5874 74.5213 86.2807C66.3346 87.6962 57.919 85.8335 51.0981 81.0962C46.7619 78.0525 43.286 73.9755 39.6092 70.1645C35.9324 66.349 31.8801 62.6819 26.9238 60.8156C21.9632 58.945 15.8978 59.2066 11.9022 62.6906C7.02891 66.9377 6.65337 74.2459 6.64901 80.7037C6.64464 83.1194 7.40009 82.6092 9.53542 83.7473C11.5179 84.8025 13.6009 86.9741 14.8105 85.086C16.0201 83.1979 16.234 80.865 16.4829 78.6368C16.7275 76.4086 17.0899 74.0627 18.5047 72.3229C20.937 69.3316 25.7273 69.3011 29.0854 71.1979C32.4434 73.0947 34.701 76.413 36.8363 79.6223C38.9716 82.8273 41.2249 86.1543 44.5786 88.0642C48.9846 90.5714 54.5173 90.2008 59.1155 92.3374C62.0368 93.6979 64.3992 95.9784 66.8228 98.0933C69.2507 100.208 71.91 102.244 75.0585 102.929C78.2025 103.618 81.9361 102.58 83.4819 99.759C84.8749 97.2081 84.1937 93.9421 85.4338 91.3084C86.3902 89.2764 88.3421 87.929 90.1019 86.5249C90.8268 85.945 91.0145 87.9421 91.6302 87.2357C93.4075 86.8825 95.0756 83.5075 94.2503 82.0032Z" fill="#3F3D56"/>
<path d="M82.0063 78.3954C89.6267 78.3954 95.8043 72.2267 95.8043 64.6172C95.8043 57.0077 89.6267 50.8389 82.0063 50.8389C74.3858 50.8389 68.2082 57.0077 68.2082 64.6172C68.2082 72.2267 74.3858 78.3954 82.0063 78.3954Z" fill="#025464"/>
<path d="M83.1171 79.5326C88.5913 79.3777 92.9034 74.8207 92.7482 69.3544C92.5931 63.888 88.0296 59.5821 82.5554 59.737C77.0811 59.8919 72.7691 64.4488 72.9242 69.9152C73.0793 75.3816 77.6428 79.6874 83.1171 79.5326Z" fill="#9E616A"/>
<path d="M82.9321 54.5341L78.9124 54.6479C76.3792 54.7216 73.9788 55.7959 72.238 57.6349C70.4971 59.474 69.5581 61.9276 69.6269 64.4573L69.6294 64.5462L69.7026 64.592C71.8875 66.0355 74.4664 66.7682 77.085 66.6894L77.311 66.683L79.532 66.5825C79.9056 65.6219 80.0305 64.5827 79.8952 63.5611C80.2306 64.5295 80.4925 65.5218 80.6785 66.5296L90.6441 66.0765C91.2239 66.0478 91.7696 65.794 92.1647 65.3692C92.5598 64.9445 92.773 64.3823 92.7589 63.8028C92.6842 61.2733 91.6075 58.8767 89.7652 57.139C87.9228 55.4013 85.4654 54.4645 82.9321 54.5341Z" fill="#025464"/>
<path d="M74.9219 52.0495C74.0147 53.1667 72.5579 53.6322 71.2489 54.2373C68.9394 55.3279 66.9312 56.9646 65.3984 59.0055C63.8655 61.0463 62.8544 63.4297 62.4526 65.9491C62.1441 68.0006 62.252 70.1121 61.7298 72.1184C61.2111 74.1245 59.8421 76.1171 57.8078 76.5202C56.4313 76.7953 55.0295 76.3012 53.7134 75.8114C52.9897 75.5445 52.2659 75.2764 51.5421 75.0072C52.2354 73.1159 52.9276 71.2246 53.6187 69.3333C52.4728 71.1321 51.1281 72.7966 49.6098 74.2954C47.016 73.3354 44.4199 72.3755 41.8215 71.4156C48.1427 71.2607 46.8903 65.1644 48.13 58.977C48.8114 55.5771 55.3649 53.1025 56.5714 49.8519C57.2231 48.0888 58.367 46.5492 59.8677 45.4151C61.3684 44.281 63.163 43.5999 65.0393 43.4525C66.9155 43.3051 68.7947 43.6975 70.4546 44.5833C72.1144 45.4691 73.4853 46.8112 74.4052 48.4508C75.7175 48.9303 75.8124 50.9465 74.9219 52.0495Z" fill="#025464"/>
<path d="M75.554 56.1472C78.3916 56.1472 80.6919 53.8502 80.6919 51.0166C80.6919 48.1831 78.3916 45.886 75.554 45.886C72.7164 45.886 70.416 48.1831 70.416 51.0166C70.416 53.8502 72.7164 56.1472 75.554 56.1472Z" fill="#025464"/>
</g>
<defs>
<clipPath id="clip0_2_623">
<rect width="328" height="298" fill="white"/>
</clipPath>
</defs>
</svg>
