<svg width="416" height="320" viewBox="0 0 416 320" fill="none" xmlns="http://www.w3.org/2000/svg">
<path d="M278.78 90.1033C287.705 66.1089 308.79 45.3761 334.27 42.91C318.951 66.1555 312.348 94.0705 315.629 121.716C316.933 132.373 319.493 144.091 313.748 153.161C310.173 158.805 303.874 162.279 297.38 163.847C290.886 165.415 284.119 165.294 277.44 165.163L275.945 165.902C271.247 140.736 269.856 114.098 278.78 90.1033Z" fill="#F0F0F0"/>
<path d="M334.394 43.4328C317.023 55.5682 303.918 72.8683 296.94 92.876C295.471 97.1715 294.354 101.657 294.29 106.218C294.261 110.665 295.424 115.038 297.657 118.883C299.667 122.51 302.143 125.988 303.237 130.04C304.389 134.312 303.45 138.633 301.096 142.324C298.215 146.84 293.884 150.051 289.539 153.044C284.715 156.367 279.652 159.743 276.7 164.964C276.342 165.596 275.382 165.004 275.739 164.373C280.874 155.289 291.652 151.99 298.245 144.275C301.322 140.674 303.332 136.125 302.381 131.331C301.549 127.139 298.999 123.551 296.932 119.896C294.761 116.058 293.343 112.076 293.178 107.635C293.009 103.093 293.952 98.5547 295.305 94.2405C298.445 84.4803 303.1 75.2746 309.1 66.9607C315.895 57.434 324.27 49.14 333.862 42.4374C334.456 42.0228 334.984 43.0209 334.394 43.4328Z" fill="white"/>
<path d="M298.807 86.3014C295.61 84.6748 293.094 81.9645 291.71 78.6544C290.326 75.3443 290.164 71.6501 291.252 68.2313C291.474 67.5403 292.559 67.8538 292.336 68.5457C291.316 71.7273 291.468 75.1685 292.763 78.2482C294.058 81.3279 296.412 83.8433 299.398 85.3402C300.047 85.6663 299.452 86.6256 298.807 86.3014Z" fill="white"/>
<path d="M296.396 117.178C303.389 114.969 309.293 110.206 312.931 103.837C313.29 103.206 314.251 103.798 313.892 104.428C310.094 111.048 303.94 115.993 296.657 118.276C295.963 118.493 295.705 117.394 296.396 117.178Z" fill="white"/>
<path d="M316.668 58.7152C317.774 59.6024 319.083 60.201 320.478 60.4571C321.873 60.7133 323.309 60.619 324.658 60.1828C325.35 59.957 325.607 61.056 324.92 61.2803C323.427 61.7553 321.841 61.8575 320.299 61.5779C318.758 61.2983 317.308 60.6455 316.077 59.6764C315.953 59.5948 315.865 59.4691 315.831 59.325C315.797 59.1808 315.818 59.029 315.892 58.9004C315.971 58.7735 316.097 58.6829 316.242 58.6482C316.387 58.6136 316.54 58.6376 316.668 58.7152Z" fill="white"/>
<path d="M395.688 104.072C395.26 104.225 394.833 104.378 394.403 104.541C388.665 106.631 383.106 109.184 377.781 112.174C377.366 112.399 376.948 112.633 376.54 112.869C363.789 120.21 352.512 129.855 343.281 141.313C339.613 145.876 336.296 150.712 333.361 155.778C329.308 162.774 325.47 170.683 319.517 175.782C318.902 176.321 318.254 176.821 317.577 177.28L276.961 167.669C276.88 167.601 276.796 167.542 276.714 167.473L275.075 167.164C275.208 166.892 275.352 166.613 275.485 166.341C275.562 166.183 275.647 166.027 275.724 165.869C275.778 165.764 275.832 165.66 275.875 165.562C275.893 165.527 275.911 165.493 275.927 165.467C275.969 165.369 276.019 165.283 276.06 165.195C276.86 163.633 277.673 162.073 278.497 160.517C278.5 160.508 278.5 160.508 278.511 160.501C284.827 148.657 292.187 137.237 301.046 127.297C301.313 126.998 301.581 126.69 301.866 126.395C305.884 121.937 310.26 117.815 314.95 114.069C317.525 112.027 320.201 110.116 322.969 108.344C330.129 103.779 337.963 100.369 346.183 98.2389C362.571 93.9946 380.133 95.0386 394.59 103.421C394.959 103.635 395.321 103.848 395.688 104.072Z" fill="#F0F0F0"/>
<path d="M395.475 104.566C374.299 103.797 353.419 109.72 335.802 121.493C332.043 124.039 328.451 126.948 325.653 130.551C322.953 134.084 321.249 138.276 320.717 142.691C320.138 146.797 320.021 151.064 318.454 154.958C316.803 159.063 313.451 161.948 309.349 163.477C304.33 165.348 298.939 165.305 293.668 165.079C287.815 164.828 281.74 164.474 276.24 166.866C275.574 167.155 275.163 166.104 275.828 165.815C285.397 161.655 295.989 165.509 305.899 163.318C310.523 162.296 314.867 159.874 316.993 155.474C318.853 151.626 318.977 147.225 319.527 143.063C320.105 138.692 321.371 134.658 323.912 131.013C326.512 127.284 329.997 124.229 333.675 121.599C342.058 115.696 351.318 111.149 361.114 108.123C372.275 104.608 383.955 103.028 395.649 103.451C396.373 103.478 396.194 104.592 395.475 104.566Z" fill="white"/>
<path d="M341.251 117.368C339.677 114.144 339.301 110.466 340.188 106.99C341.076 103.513 343.171 100.466 346.098 98.3915C346.692 97.9738 347.369 98.8768 346.774 99.2951C344.045 101.222 342.094 104.061 341.274 107.299C340.454 110.538 340.818 113.963 342.302 116.957C342.624 117.608 341.571 118.016 341.251 117.368Z" fill="white"/>
<path d="M320.736 140.57C327.65 143.017 335.232 142.768 341.97 139.873C342.638 139.586 343.049 140.636 342.382 140.923C335.364 143.923 327.473 144.166 320.284 141.604C319.599 141.359 320.055 140.326 320.736 140.57Z" fill="white"/>
<path d="M372.121 106.096C372.47 107.47 373.155 108.736 374.114 109.781C375.074 110.825 376.277 111.614 377.617 112.078C378.305 112.314 377.849 113.347 377.165 113.112C375.687 112.593 374.359 111.719 373.297 110.568C372.234 109.416 371.47 108.022 371.07 106.508C371.021 106.368 371.026 106.215 371.085 106.079C371.145 105.943 371.253 105.835 371.39 105.776C371.529 105.723 371.684 105.726 371.821 105.786C371.958 105.846 372.066 105.957 372.121 106.096Z" fill="white"/>
<path d="M43.4481 310.041C20.1963 299.33 1.11507 276.74 0.580177 251.145C22.6023 268.176 49.9388 276.869 77.7529 275.685C88.478 275.189 100.355 273.521 108.966 279.935C114.324 283.925 117.313 290.469 118.386 297.063C119.459 303.657 118.827 310.395 118.192 317.046L118.815 318.593C93.3672 321.376 66.6999 320.752 43.4481 310.041Z" fill="#F0F0F0"/>
<path d="M1.11083 251.062C11.8997 269.299 28.1607 283.673 47.5841 292.143C51.7564 293.932 56.1446 295.384 60.688 295.792C65.1197 296.157 69.5681 295.328 73.571 293.391C77.3396 291.661 80.994 289.454 85.1176 288.67C89.4641 287.843 93.7022 289.107 97.2045 291.733C101.49 294.946 104.365 299.508 107.021 304.066C109.971 309.127 112.954 314.431 117.937 317.768C118.541 318.173 117.878 319.086 117.275 318.682C108.606 312.876 106.13 301.879 98.9342 294.722C95.5767 291.383 91.1923 289.035 86.3403 289.621C82.0974 290.134 78.327 292.406 74.5263 294.191C70.5356 296.066 66.4571 297.179 62.017 297.008C57.4751 296.834 53.0209 295.551 48.8212 293.876C39.3262 290.008 30.4984 284.67 22.6613 278.06C13.6751 270.564 6.03718 261.587 0.0780906 251.517C-0.290505 250.893 0.744668 250.442 1.11083 251.062Z" fill="white"/>
<path d="M41.1694 289.784C39.306 292.85 36.4134 295.153 33.0083 296.284C29.6032 297.414 25.9072 297.297 22.5805 295.953C21.9083 295.679 22.3027 294.622 22.9758 294.896C26.0713 296.153 29.5142 296.262 32.6829 295.203C35.8515 294.144 38.5374 291.987 40.2556 289.122C40.6297 288.5 41.5413 289.165 41.1694 289.784Z" fill="white"/>
<path d="M71.7757 294.52C70.1013 287.38 65.7971 281.133 59.7213 277.025C59.1191 276.618 59.7816 275.705 60.3832 276.111C66.6978 280.398 71.1637 286.908 72.8898 294.342C73.0539 295.051 71.9388 295.225 71.7757 294.52Z" fill="white"/>
<path d="M15.011 269.891C15.9791 268.855 16.6748 267.595 17.0355 266.223C17.3963 264.852 17.4108 263.412 17.0777 262.034C16.9048 261.328 18.02 261.154 18.1918 261.856C18.5527 263.38 18.5348 264.97 18.1396 266.486C17.7444 268.002 16.984 269.398 15.9247 270.553C15.834 270.67 15.7021 270.748 15.5557 270.772C15.4094 270.795 15.2597 270.762 15.1369 270.679C15.0164 270.59 14.9355 270.458 14.9119 270.311C14.8884 270.163 14.9239 270.012 15.011 269.891Z" fill="white"/>
<path d="M66.2051 194.521C66.3256 194.959 66.4462 195.397 66.5756 195.838C68.2265 201.718 70.3523 207.453 72.9321 212.989C73.1247 213.42 73.3264 213.854 73.5311 214.278C79.8884 227.548 88.6541 239.521 99.3824 249.591C103.655 253.594 108.226 257.266 113.056 260.575C119.727 265.145 127.323 269.57 131.957 275.89C132.448 276.544 132.898 277.228 133.305 277.938L120.654 317.712C120.58 317.788 120.515 317.867 120.441 317.944L120.008 319.555C119.747 319.402 119.48 319.237 119.219 319.084C119.067 318.995 118.918 318.898 118.766 318.81C118.666 318.748 118.566 318.686 118.472 318.636C118.438 318.616 118.405 318.595 118.38 318.578C118.286 318.528 118.204 318.471 118.119 318.424C116.622 317.508 115.128 316.58 113.639 315.64C113.63 315.637 113.63 315.637 113.623 315.626C102.291 308.434 91.4594 300.232 82.217 290.647C81.939 290.359 81.6518 290.068 81.3796 289.761C77.2376 285.418 73.4574 280.743 70.0769 275.784C68.2346 273.062 66.5312 270.249 64.9734 267.356C60.9625 259.871 58.1538 251.802 56.6504 243.444C53.6557 226.783 56.0229 209.349 65.4728 195.567C65.7148 195.215 65.954 194.871 66.2051 194.521Z" fill="#F0F0F0"/>
<path d="M66.6815 194.771C64.3157 215.828 68.6449 237.096 79.0543 255.552C81.3084 259.493 83.938 263.294 87.3196 266.356C90.6388 269.315 94.6897 271.331 99.0516 272.195C103.102 273.083 107.349 273.521 111.113 275.378C115.082 277.335 117.705 280.895 118.92 285.1C120.407 290.246 119.956 295.619 119.333 300.858C118.641 306.675 117.83 312.706 119.799 318.371C120.037 319.057 118.958 319.387 118.72 318.702C115.294 308.846 119.938 298.575 118.501 288.529C117.831 283.841 115.744 279.326 111.517 276.873C107.821 274.728 103.442 274.272 99.3328 273.409C95.0179 272.503 91.0912 270.936 87.6487 268.127C84.1272 265.253 81.3435 261.547 78.9985 257.681C73.7463 248.876 69.9112 239.299 67.6338 229.303C64.9714 217.908 64.2778 206.141 65.583 194.513C65.6641 193.793 66.762 194.056 66.6815 194.771Z" fill="white"/>
<path d="M75.3527 249.807C72.019 251.133 68.3225 251.231 64.9233 250.083C61.5241 248.935 58.6435 246.617 56.7961 243.541C56.4244 242.917 57.376 242.31 57.7482 242.935C59.4632 245.802 62.1467 247.962 65.3142 249.024C68.4817 250.086 71.9246 249.981 75.0216 248.728C75.6949 248.457 76.0222 249.537 75.3527 249.807Z" fill="white"/>
<path d="M96.9384 272.016C99.9005 265.307 100.225 257.727 97.8471 250.789C97.6109 250.102 98.6898 249.772 98.9257 250.458C101.387 257.683 101.033 265.569 97.9353 272.544C97.6395 273.209 96.6443 272.677 96.9384 272.016Z" fill="white"/>
<path d="M66.4435 218.174C67.8403 217.93 69.1545 217.342 70.2682 216.465C71.3819 215.587 72.2601 214.446 72.824 213.145C73.1112 212.477 74.1061 213.01 73.8209 213.674C73.1911 215.108 72.2197 216.367 70.9914 217.339C69.7631 218.312 68.3154 218.969 66.7746 219.253C66.6316 219.292 66.4792 219.275 66.3483 219.205C66.2173 219.136 66.1178 219.019 66.0698 218.879C66.0266 218.736 66.0417 218.582 66.1117 218.45C66.1817 218.318 66.3009 218.219 66.4435 218.174Z" fill="white"/>
<path d="M96.9856 168.6C76.4396 148.373 67.7619 127.272 72.5504 109.184C78.6956 85.9715 105.996 69.922 147.451 65.1508L147.604 66.4823C106.726 71.1868 79.8423 86.8761 73.8459 109.527C69.1857 127.13 77.7374 147.77 97.9259 167.645L96.9856 168.6Z" fill="#F0F0F0"/>
<path d="M295.22 240.397C269.578 240.397 241.712 236.586 214.034 229.258C179.806 220.197 148.423 206.52 123.277 189.705L124.022 188.591C149.046 205.324 180.291 218.939 214.377 227.963C245.18 236.118 276.214 239.897 304.113 238.899L304.161 240.238C301.215 240.344 298.235 240.397 295.22 240.397Z" fill="#F0F0F0"/>
<path d="M354.048 231.97L353.619 230.7C376.553 222.946 390.897 210.455 395.101 194.577C400.445 174.391 388.835 150.967 362.411 128.619C335.853 106.158 297.554 87.5202 254.57 76.1409L254.913 74.8454C298.085 86.2748 336.57 105.009 363.276 127.596C390.118 150.296 401.88 174.206 396.396 194.919C392.072 211.253 377.428 224.065 354.048 231.97Z" fill="#F0F0F0"/>
<path d="M143.461 240.957C93.0745 218.609 54.248 189.617 34.1341 159.319L35.2503 158.578C55.2252 188.666 93.8479 217.487 144.004 239.732L143.461 240.957Z" fill="#F0F0F0"/>
<path d="M320.616 279.671C315.419 279.671 310.133 279.555 304.758 279.323L304.816 277.984C344.925 279.721 380.314 274.921 407.164 264.101L407.665 265.344C384.243 274.782 354.39 279.671 320.616 279.671Z" fill="#F0F0F0"/>
<path d="M291.381 66.3525C283.053 63.641 274.487 61.1164 265.921 58.8485C216.626 45.7984 168.169 41.165 125.786 45.4516L125.651 44.1182C168.192 39.8174 216.815 44.462 266.264 57.553C274.854 59.8274 283.444 62.3592 291.796 65.0785L291.381 66.3525Z" fill="#F0F0F0"/>
<path d="M65.4954 170.61C44.9494 150.383 36.2717 129.282 41.0602 111.194C47.2054 87.9815 74.5055 71.9321 115.96 67.1609L116.114 68.4924C75.2357 73.1968 48.3521 88.8861 42.3557 111.537C37.6955 129.14 46.2472 149.78 66.4357 169.655L65.4954 170.61Z" fill="#F0F0F0"/>
<path d="M263.73 242.407C238.087 242.407 210.222 238.596 182.544 231.268C148.316 222.207 116.933 208.53 91.7868 191.715L92.5315 190.601C117.556 207.334 148.8 220.949 182.887 229.973C213.69 238.128 244.724 241.907 272.623 240.91L272.671 242.248C269.725 242.354 266.744 242.407 263.73 242.407Z" fill="#F0F0F0"/>
<path d="M322.558 233.98L322.129 232.71C345.062 224.956 359.407 212.465 363.611 196.587C368.954 176.401 357.345 152.977 330.921 130.629C304.362 108.168 266.064 89.5303 223.08 78.1509L223.423 76.8554C266.595 88.2848 305.079 107.019 331.786 129.606C358.627 152.306 370.39 176.216 364.906 196.929C360.582 213.263 345.938 226.075 322.558 233.98Z" fill="#F0F0F0"/>
<path d="M111.971 242.967C61.5843 220.619 22.7577 191.627 2.64386 161.329L3.7601 160.588C23.7349 190.676 62.3577 219.497 112.514 241.742L111.971 242.967Z" fill="#F0F0F0"/>
<path d="M289.126 281.681C283.928 281.681 278.643 281.565 273.268 281.333L273.325 279.995C313.435 281.731 348.824 276.931 375.674 266.111L376.175 267.354C352.753 276.792 322.9 281.681 289.126 281.681Z" fill="#F0F0F0"/>
<path d="M259.891 68.3625C251.563 65.651 242.997 63.1264 234.431 60.8586C185.136 47.8084 136.679 43.175 94.2955 47.4617L94.1607 46.1282C136.702 41.8274 185.325 46.472 234.773 59.563C243.364 61.8374 251.954 64.3692 260.306 67.0885L259.891 68.3625Z" fill="#F0F0F0"/>
<path d="M126.769 167.862C124.016 167.865 121.376 168.96 119.429 170.907C117.482 172.854 116.387 175.494 116.384 178.247C112.436 207.319 111.117 236.688 112.444 265.996C112.523 267.868 112.611 269.579 112.712 271.231C112.859 273.958 113.046 276.837 113.268 279.789C113.395 281.531 113.529 283.278 113.676 285.019C113.922 287.855 114.192 290.736 114.48 293.583C114.66 295.322 114.848 297.07 115.048 298.81C115.434 302.229 115.869 305.734 116.381 309.524C116.376 312.285 117.468 314.934 119.416 316.89C121.364 318.846 124.009 319.948 126.769 319.954H300.971C303.724 319.951 306.364 318.856 308.311 316.909C310.257 314.962 311.353 312.322 311.356 309.569L311.364 309.497C312.14 305.962 312.862 302.359 313.512 298.789C313.859 296.906 314.159 295.197 314.429 293.562C314.918 290.586 315.352 287.706 315.72 285.002C315.972 283.186 316.199 281.428 316.396 279.774C316.721 277.067 317.014 274.269 317.293 271.22C317.446 269.563 317.586 267.851 317.722 265.988V265.987C319.852 236.611 317.71 207.081 311.363 178.319L311.356 178.247C311.353 175.494 310.257 172.854 308.311 170.907C306.364 168.96 303.724 167.865 300.971 167.862L126.769 167.862Z" fill="#025464"/>
<path d="M220.633 212.322C182.888 212.322 142.892 208.892 90.5456 202.03H90.54C87.8263 202.026 85.2094 201.021 83.1912 199.207C81.1729 197.393 79.8952 194.898 79.603 192.2C79.5554 191.794 79.5323 191.386 79.534 190.977V159.487C79.5328 159.42 79.5359 159.352 79.5432 159.285C79.6021 156.392 80.7907 153.637 82.855 151.608C84.9192 149.58 87.6951 148.44 90.5891 148.432C181.66 136.049 236.983 136.05 337.192 148.434H337.197C340.089 148.453 342.859 149.603 344.915 151.637C346.971 153.672 348.15 156.429 348.199 159.321C348.205 159.376 348.207 159.432 348.206 159.487V190.977C348.208 191.387 348.184 191.796 348.137 192.203C347.84 194.908 346.554 197.408 344.527 199.222C342.499 201.037 339.872 202.038 337.151 202.033C293.856 208.891 258.369 212.322 220.633 212.322Z" fill="#E57C23"/>
<path d="M226.688 234.193H203.786C200.871 234.19 198.077 233.03 196.016 230.969C193.955 228.908 192.795 226.114 192.792 223.199V139.996C192.795 137.081 193.955 134.286 196.016 132.225C198.077 130.164 200.871 129.005 203.786 129.002H226.688C229.603 129.005 232.397 130.164 234.458 132.225C236.519 134.286 237.679 137.081 237.682 139.996V223.199C237.679 226.114 236.519 228.908 234.458 230.969C232.397 233.03 229.603 234.19 226.688 234.193Z" fill="#025464"/>
<path d="M278.682 113.081C278.516 111.521 278.224 109.977 277.809 108.464C277.361 106.949 276.793 105.471 276.112 104.045C273.669 98.8024 269.548 94.5236 264.401 91.8852C258.013 88.7405 250.706 88.4832 243.837 89.9983C238.064 91.2916 232.642 93.8298 227.951 97.4358C225.519 99.2682 223.297 101.364 221.326 103.685C219.291 106.126 215.505 112.835 215.232 113.456C213.092 108.597 210.021 104.204 206.192 100.524C201.742 96.3003 196.43 93.0899 190.621 91.1138C187.532 90.0732 184.326 89.4216 181.077 89.1738C177.638 88.888 174.176 89.19 170.839 90.067C164.845 91.7457 159.66 95.5358 156.242 100.738C152.984 105.573 151.384 111.335 151.683 117.157C151.848 120.096 152.482 122.991 153.56 125.73C154.139 127.213 154.825 128.652 155.612 130.035C156.428 131.401 157.339 132.707 158.34 133.943C162.268 138.763 167.559 142.286 173.521 144.052C179.886 146.019 186.637 146.083 193.183 145.16C199.904 144.211 206.374 142.036 212.704 139.653C213.548 139.335 214.389 139.008 215.232 138.684C220.859 140.849 226.535 142.937 232.426 144.262C239.053 145.863 245.931 146.139 252.666 145.074C258.943 144.044 264.779 141.193 269.45 136.875C273.772 132.808 276.797 127.555 278.145 121.775C278.811 118.928 278.992 115.988 278.682 113.081ZM191.435 138.687C187.802 139.153 184.126 139.174 180.488 138.751C177.881 138.373 175.326 137.693 172.876 136.725C167.101 134.32 162.497 129.749 160.051 123.991C159.319 122.176 158.799 120.283 158.498 118.349C158.306 116.628 158.306 114.892 158.497 113.171C158.782 111.361 159.27 109.589 159.952 107.888C160.69 106.234 161.607 104.665 162.685 103.21C163.731 101.908 164.912 100.721 166.21 99.6695C167.44 98.7597 168.764 97.984 170.158 97.3558C171.823 96.7055 173.555 96.2422 175.322 95.9744C177.716 95.7094 180.133 95.7283 182.522 96.0306C185.365 96.4696 188.148 97.2366 190.814 98.3164C193.651 99.5474 196.331 101.11 198.799 102.972C201.083 104.781 203.153 106.845 204.97 109.124C206.768 111.516 208.276 114.113 209.463 116.861C210.615 119.727 211.425 122.72 211.875 125.777L211.88 125.822C211.705 127.357 211.617 128.902 211.617 130.448C211.618 131.043 211.645 131.638 211.675 132.233C211.392 132.505 211.156 132.823 210.976 133.172C206.309 135.003 201.525 136.52 196.656 137.714C194.93 138.112 193.19 138.437 191.435 138.687ZM271.979 118.349C271.679 120.283 271.158 122.176 270.427 123.991C267.993 129.757 263.385 134.332 257.602 136.725C255.151 137.693 252.597 138.373 249.99 138.751C246.345 139.175 242.662 139.152 239.023 138.685C232.559 137.76 226.324 135.72 220.224 133.443C219.973 133.349 219.724 133.25 219.473 133.156C219.303 132.811 219.077 132.498 218.805 132.227C218.913 130.069 218.846 127.907 218.605 125.76C219.056 122.709 219.865 119.722 221.015 116.861C222.201 114.113 223.709 111.516 225.508 109.124C227.324 106.846 229.394 104.781 231.679 102.972C234.147 101.11 236.827 99.5474 239.664 98.3164C242.33 97.2367 245.113 96.4696 247.956 96.0306C250.345 95.7283 252.762 95.7094 255.155 95.9744C256.923 96.2422 258.655 96.7055 260.319 97.3558C261.714 97.9841 263.038 98.7598 264.268 99.6697C265.566 100.721 266.747 101.908 267.793 103.21C268.871 104.665 269.788 106.234 270.526 107.888C271.208 109.589 271.696 111.361 271.981 113.171C272.172 114.892 272.172 116.628 271.979 118.349Z" fill="#025464"/>
<path d="M145.529 237.878C147.75 237.878 149.549 236.078 149.549 233.858C149.549 231.638 147.75 229.838 145.529 229.838C143.309 229.838 141.509 231.638 141.509 233.858C141.509 236.078 143.309 237.878 145.529 237.878Z" fill="#E57C23"/>
<path d="M174.34 227.828C176.56 227.828 178.36 226.028 178.36 223.808C178.36 221.588 176.56 219.788 174.34 219.788C172.119 219.788 170.32 221.588 170.32 223.808C170.32 226.028 172.119 227.828 174.34 227.828Z" fill="#E57C23"/>
<path d="M161.61 259.318C163.83 259.318 165.63 257.519 165.63 255.298C165.63 253.078 163.83 251.278 161.61 251.278C159.389 251.278 157.59 253.078 157.59 255.298C157.59 257.519 159.389 259.318 161.61 259.318Z" fill="#E57C23"/>
<path d="M280.87 237.878C283.091 237.878 284.89 236.078 284.89 233.858C284.89 231.638 283.091 229.838 280.87 229.838C278.65 229.838 276.85 231.638 276.85 233.858C276.85 236.078 278.65 237.878 280.87 237.878Z" fill="#E57C23"/>
<path d="M252.06 227.828C254.28 227.828 256.08 226.028 256.08 223.808C256.08 221.588 254.28 219.788 252.06 219.788C249.84 219.788 248.04 221.588 248.04 223.808C248.04 226.028 249.84 227.828 252.06 227.828Z" fill="#E57C23"/>
<path d="M264.79 259.318C267.01 259.318 268.81 257.519 268.81 255.298C268.81 253.078 267.01 251.278 264.79 251.278C262.57 251.278 260.77 253.078 260.77 255.298C260.77 257.519 262.57 259.318 264.79 259.318Z" fill="#E57C23"/>
<path d="M284.22 308.229C286.441 308.229 288.24 306.429 288.24 304.209C288.24 301.989 286.441 300.189 284.22 300.189C282 300.189 280.2 301.989 280.2 304.209C280.2 306.429 282 308.229 284.22 308.229Z" fill="#E57C23"/>
<path d="M294.27 279.419C296.491 279.419 298.291 277.619 298.291 275.399C298.291 273.178 296.491 271.379 294.27 271.379C292.05 271.379 290.25 273.178 290.25 275.399C290.25 277.619 292.05 279.419 294.27 279.419Z" fill="#E57C23"/>
<path d="M262.78 292.149C265 292.149 266.8 290.349 266.8 288.129C266.8 285.909 265 284.109 262.78 284.109C260.56 284.109 258.76 285.909 258.76 288.129C258.76 290.349 260.56 292.149 262.78 292.149Z" fill="#E57C23"/>
<path d="M168.98 308.229C171.2 308.229 173 306.429 173 304.209C173 301.989 171.2 300.189 168.98 300.189C166.759 300.189 164.96 301.989 164.96 304.209C164.96 306.429 166.759 308.229 168.98 308.229Z" fill="#E57C23"/>
<path d="M179.03 279.419C181.25 279.419 183.05 277.619 183.05 275.399C183.05 273.178 181.25 271.379 179.03 271.379C176.809 271.379 175.01 273.178 175.01 275.399C175.01 277.619 176.809 279.419 179.03 279.419Z" fill="#E57C23"/>
<path d="M147.539 292.149C149.76 292.149 151.559 290.349 151.559 288.129C151.559 285.909 149.76 284.109 147.539 284.109C145.319 284.109 143.519 285.909 143.519 288.129C143.519 290.349 145.319 292.149 147.539 292.149Z" fill="#E57C23"/>
<path d="M263.044 24.3057C264.566 24.9411 266.227 25.1738 267.865 24.9813C269.503 24.7889 271.064 24.1777 272.398 23.2068C275.797 20.6712 277.072 16.245 278.139 12.1412L281.293 0L275.967 3.23364C272.136 5.55865 268.218 7.96069 265.453 11.4904C262.689 15.0202 261.29 19.9665 263.112 24.0626" fill="#F2F2F2"/>
<path d="M120.596 128.015C121.624 126.725 122.303 125.192 122.567 123.564C122.83 121.936 122.67 120.267 122.101 118.718C120.594 114.754 116.686 112.316 113.031 110.165L102.218 103.807L103.87 109.815C105.057 114.136 106.294 118.562 108.931 122.188C111.569 125.814 115.943 128.514 120.381 127.883" fill="#F2F2F2"/>
<path d="M374.528 314.948C375.556 313.658 376.235 312.125 376.498 310.496C376.762 308.868 376.602 307.199 376.033 305.651C374.526 301.687 370.618 299.249 366.963 297.098L356.15 290.74L357.801 296.748C358.988 301.069 360.225 305.495 362.863 309.121C365.5 312.746 369.875 315.446 374.313 314.816" fill="#F2F2F2"/>
<path d="M170.32 77.7458C173.28 77.7458 175.68 75.346 175.68 72.3857C175.68 69.4254 173.28 67.0257 170.32 67.0257C167.359 67.0257 164.96 69.4254 164.96 72.3857C164.96 75.346 167.359 77.7458 170.32 77.7458Z" fill="#FD6584"/>
<path d="M27.6086 235.868C30.5689 235.868 32.9687 233.468 32.9687 230.508C32.9687 227.548 30.5689 225.148 27.6086 225.148C24.6483 225.148 22.2486 227.548 22.2486 230.508C22.2486 233.468 24.6483 235.868 27.6086 235.868Z" fill="#FD6584"/>
<path d="M396.111 192.317C399.071 192.317 401.471 189.918 401.471 186.957C401.471 183.997 399.071 181.597 396.111 181.597C393.151 181.597 390.751 183.997 390.751 186.957C390.751 189.918 393.151 192.317 396.111 192.317Z" fill="#FD6584"/>
<path d="M22.2486 101.196C25.2088 101.196 27.6086 98.7964 27.6086 95.8361C27.6086 92.8758 25.2088 90.476 22.2486 90.476C19.2883 90.476 16.8885 92.8758 16.8885 95.8361C16.8885 98.7964 19.2883 101.196 22.2486 101.196Z" fill="#E6E6E6"/>
<path d="M353.901 253.958C356.861 253.958 359.261 251.558 359.261 248.598C359.261 245.638 356.861 243.238 353.901 243.238C350.941 243.238 348.541 245.638 348.541 248.598C348.541 251.558 350.941 253.958 353.901 253.958Z" fill="#E6E6E6"/>
<path d="M364.621 91.146C367.581 91.146 369.981 88.7462 369.981 85.7859C369.981 82.8256 367.581 80.4258 364.621 80.4258C361.661 80.4258 359.261 82.8256 359.261 85.7859C359.261 88.7462 361.661 91.146 364.621 91.146Z" fill="#E6E6E6"/>
<path d="M129.601 176.395C129.138 177.128 128.015 177.022 127.384 176.564C126.508 175.928 126.792 174.702 127.395 173.978C129.311 171.678 132.481 174.107 132.909 176.392C133.068 177.506 132.896 178.642 132.415 179.66C131.935 180.677 131.166 181.531 130.204 182.116C128.017 183.412 125.177 182.762 123.297 181.211C119.375 177.976 120.442 171.498 124.799 169.157C127.579 167.663 131.094 168.319 133.833 169.57C136.916 170.979 139.567 173.138 142.418 174.937C148.673 178.853 155.749 181.27 163.094 181.998C164.379 182.129 164.37 180.118 163.094 179.988C159.024 179.567 155.028 178.605 151.213 177.127C147.438 175.597 143.856 173.63 140.538 171.268C137.181 168.967 133.674 166.731 129.52 166.351C127.843 166.155 126.145 166.407 124.597 167.08C123.049 167.754 121.708 168.825 120.708 170.185C119.819 171.402 119.224 172.809 118.97 174.294C118.715 175.78 118.808 177.304 119.241 178.748C119.763 180.257 120.676 181.602 121.886 182.644C123.097 183.686 124.562 184.389 126.132 184.681C127.644 184.967 129.207 184.773 130.604 184.128C132 183.483 133.161 182.418 133.923 181.081C135.452 178.437 135.403 174.884 133.093 172.692C132.431 172.019 131.602 171.534 130.691 171.286C129.781 171.038 128.82 171.037 127.909 171.282C127.069 171.565 126.33 172.088 125.782 172.785C125.234 173.482 124.901 174.324 124.824 175.207C124.602 178.64 129.474 180.356 131.337 177.41C132.03 176.313 130.292 175.304 129.601 176.395Z" fill="#025464"/>
<path d="M301.488 176.395C301.952 177.128 303.075 177.022 303.706 176.564C304.582 175.928 304.298 174.702 303.695 173.978C301.779 171.678 298.609 174.107 298.181 176.392C298.022 177.506 298.194 178.642 298.675 179.66C299.155 180.677 299.924 181.531 300.886 182.116C303.073 183.412 305.913 182.762 307.793 181.211C311.715 177.976 310.647 171.498 306.291 169.157C303.511 167.663 299.996 168.319 297.257 169.57C294.174 170.979 291.523 173.138 288.672 174.937C282.417 178.853 275.34 181.27 267.996 181.998C266.711 182.129 266.72 180.118 267.996 179.988C272.066 179.567 276.062 178.605 279.877 177.127C283.652 175.597 287.234 173.63 290.552 171.268C293.909 168.967 297.416 166.731 301.57 166.351C303.247 166.155 304.945 166.407 306.493 167.08C308.041 167.754 309.382 168.825 310.382 170.185C311.271 171.402 311.866 172.809 312.12 174.294C312.375 175.78 312.282 177.304 311.849 178.748C311.327 180.257 310.414 181.602 309.204 182.644C307.993 183.686 306.528 184.389 304.958 184.681C303.446 184.966 301.883 184.773 300.486 184.128C299.089 183.483 297.929 182.418 297.167 181.081C295.638 178.437 295.687 174.884 297.997 172.692C298.659 172.019 299.488 171.534 300.399 171.286C301.309 171.038 302.27 171.037 303.181 171.282C304.021 171.565 304.76 172.088 305.308 172.785C305.856 173.482 306.189 174.324 306.266 175.207C306.488 178.64 301.616 180.356 299.753 177.41C299.06 176.313 300.798 175.304 301.488 176.395Z" fill="#025464"/>
<path d="M59.6536 24.3634L56.9985 27.6944L47.6089 22.14L50.2634 18.809L59.6536 24.3634Z" fill="#E4E4E4"/>
<path d="M69.4508 38.6749L71.7956 42.1744L61.9315 47.0808L59.5867 43.5819L69.4508 38.6749Z" fill="#E4E4E4"/>
<path d="M79.6618 23.4614L84.3476 23.6274L83.8812 33.4322L79.1947 33.2668L79.6618 23.4614Z" fill="#E4E4E4"/>
<path d="M391.306 229.386L388.651 232.717L379.261 227.163L381.916 223.832L391.306 229.386Z" fill="#E4E4E4"/>
<path d="M401.103 243.698L403.448 247.197L393.584 252.104L391.239 248.604L401.103 243.698Z" fill="#E4E4E4"/>
<path d="M411.314 228.484L416 228.65L415.533 238.455L410.847 238.29L411.314 228.484Z" fill="#E4E4E4"/>
</svg>
